<svg width="60" height="60" viewBox="0 0 60 60" fill="none" xmlns="http://www.w3.org/2000/svg">
<mask id="mask0_2782_309" style="mask-type:alpha" maskUnits="userSpaceOnUse" x="0" y="0" width="60" height="60">
<rect width="60" height="60" fill="#D9D9D9"/>
</mask>
<g mask="url(#mask0_2782_309)">
<path d="M30 56.2498C25.3237 56.2498 21.0208 55.1105 17.0912 52.8317C13.1617 50.5526 9.96458 47.3505 7.5 43.2255V51.2498H3.75V37.0192H8.95688L10.4375 40.7692C12.4662 44.4067 15.2081 47.2713 18.6631 49.363C22.1185 51.4542 25.8975 52.4998 30 52.4998C34.8717 52.4998 39.2675 51.0728 43.1875 48.2186C47.1075 45.3644 49.8271 41.6184 51.3462 36.9805L55.0194 37.793C53.3044 43.3155 50.1473 47.7721 45.5481 51.163C40.9485 54.5542 35.7658 56.2498 30 56.2498Z" fill="#0E1726"/>
<path d="M28.7695 4.48063C33.4458 4.48063 37.7487 5.62 41.6783 7.89875C45.6079 10.1779 48.8049 13.38 51.2695 17.505V9.48063H55.0195V23.7112H49.8127L48.332 19.9613C46.3033 16.3238 43.5614 13.4592 40.1064 11.3675C36.651 9.27625 32.872 8.23063 28.7695 8.23063C23.8979 8.23063 19.502 9.65771 15.582 12.5119C11.662 15.366 8.94245 19.1121 7.42328 23.75L3.75016 22.9375C5.46516 17.415 8.62223 12.9583 13.2214 9.5675C17.821 6.17625 23.0037 4.48063 28.7695 4.48063Z" fill="#0E1726"/>
<path d="M26.0702 46L25.4219 40.8695C24.9658 40.7185 24.4981 40.5069 24.0187 40.2349C23.5397 39.9627 23.1113 39.6712 22.7335 39.3604L17.9293 41.3684L14 34.6316L18.1554 31.5255C18.1162 31.2751 18.0884 31.0236 18.0719 30.7709C18.0555 30.5183 18.0473 30.2667 18.0473 30.016C18.0473 29.7766 18.0555 29.5332 18.0719 29.2859C18.0884 29.0386 18.1162 28.7681 18.1554 28.4745L14 25.3684L17.9293 18.664L22.7169 20.656C23.1276 20.3343 23.5659 20.0401 24.0319 19.7735C24.4979 19.5068 24.9559 19.2925 25.4057 19.1305L26.0702 14H33.9298L34.5781 19.1465C35.089 19.3301 35.5512 19.5444 35.9647 19.7895C36.3785 20.0345 36.7961 20.3234 37.2175 20.656L42.0707 18.664L46 25.3684L41.7791 28.5229C41.8401 28.7949 41.8734 29.0493 41.8791 29.2859C41.8845 29.5222 41.8872 29.7603 41.8872 30C41.8872 30.2288 41.8817 30.4615 41.8706 30.6981C41.8598 30.9345 41.8206 31.2049 41.7531 31.5095L45.9412 34.6316L42.0115 41.3684L37.2175 39.344C36.7961 39.6766 36.366 39.9708 35.9272 40.2265C35.4884 40.4825 35.0387 40.6915 34.5781 40.8535L33.9298 46H26.0702ZM28.2971 43.4737H31.6441L32.2563 38.9621C33.1253 38.7375 33.9194 38.4185 34.6386 38.0051C35.358 37.5913 36.0518 37.0595 36.7199 36.4097L40.9506 38.1684L42.6275 35.3053L38.9336 32.5524C39.0755 32.1162 39.172 31.6886 39.2231 31.2695C39.2744 30.8507 39.3001 30.4275 39.3001 30C39.3001 29.5615 39.2744 29.1384 39.2231 28.7305C39.172 28.3224 39.0755 27.9055 38.9336 27.48L42.6599 24.6947L40.9834 21.8316L36.7033 23.616C36.1334 23.0136 35.4507 22.4814 34.6552 22.0194C33.8594 21.5573 33.0543 21.2302 32.2401 21.0379L31.7029 16.5263H28.3235L27.7599 21.0219C26.8912 21.2248 26.089 21.5357 25.3533 21.9545C24.6174 22.3736 23.9154 22.9134 23.2473 23.5739L19.0166 21.8316L17.3401 24.6947L21.0175 27.4055C20.8755 27.8052 20.7762 28.2209 20.7195 28.6526C20.6627 29.0844 20.6343 29.5388 20.6343 30.016C20.6343 30.4545 20.6627 30.8842 20.7195 31.3053C20.7762 31.7263 20.8702 32.142 21.0013 32.5524L17.3401 35.3053L19.0166 38.1684L23.2312 36.4C23.8774 37.0563 24.5683 37.594 25.304 38.0131C26.0399 38.4319 26.8531 38.7535 27.7437 38.9781L28.2971 43.4737Z" fill="url(#paint0_linear_2782_309)"/>
<path d="M28.2721 36L37 26.8674L35.2659 25L28.2721 32.3181L24.7341 28.669L23 30.4834L28.2721 36Z" fill="url(#paint1_linear_2782_309)"/>
</g>
<defs>
<linearGradient id="paint0_linear_2782_309" x1="14" y1="45.9273" x2="46" y2="45.9273" gradientUnits="userSpaceOnUse">
<stop stop-color="#FED548"/>
<stop offset="1" stop-color="#FCC301"/>
</linearGradient>
<linearGradient id="paint1_linear_2782_309" x1="23" y1="35.975" x2="37" y2="35.975" gradientUnits="userSpaceOnUse">
<stop stop-color="#FED548"/>
<stop offset="1" stop-color="#FCC301"/>
</linearGradient>
</defs>
</svg>
