<svg width="60" height="60" viewBox="0 0 60 60" fill="none" xmlns="http://www.w3.org/2000/svg">
<mask id="mask0_2782_297" style="mask-type:alpha" maskUnits="userSpaceOnUse" x="0" y="0" width="60" height="60">
<rect width="60" height="60" fill="#D9D9D9"/>
</mask>
<g mask="url(#mask0_2782_297)">
<path d="M22.02 34.9956C21.3242 34.9956 20.7311 34.7612 20.2408 34.2925C19.7511 33.8238 19.5062 33.2436 19.5062 32.5518C19.5062 31.8605 19.7511 31.276 20.2408 30.7984C20.7311 30.3203 21.3242 30.0812 22.02 30.0812C22.7163 30.0812 23.3094 30.3203 23.7992 30.7984C24.2894 31.276 24.5346 31.8605 24.5346 32.5518C24.5346 33.2436 24.2894 33.8238 23.7992 34.2925C23.3094 34.7612 22.7163 34.9956 22.02 34.9956ZM37.9798 34.9956C37.2835 34.9956 36.6905 34.7612 36.2007 34.2925C35.7104 33.8238 35.4653 33.2436 35.4653 32.5518C35.4653 31.8605 35.7104 31.276 36.2007 30.7984C36.6905 30.3203 37.2835 30.0812 37.9798 30.0812C38.6757 30.0812 39.2687 30.3203 39.759 30.7984C40.2488 31.276 40.4937 31.8605 40.4937 32.5518C40.4937 33.2436 40.2488 33.8238 39.759 34.2925C39.2687 34.7612 38.6757 34.9956 37.9798 34.9956ZM14.0024 30.5647C13.7073 25.9567 15.1502 22.0137 18.331 18.7356C21.5117 15.4579 25.4488 13.8191 30.142 13.8191C34.0845 13.8191 37.5632 15.0309 40.5782 17.4544C43.5937 19.8779 45.4238 23.0153 46.0685 26.8666C42.0313 26.8196 38.301 25.7664 34.8777 23.7071C31.4544 21.6473 28.8264 18.8238 26.9937 15.2365C26.2723 18.7476 24.7603 21.8516 22.4577 24.5485C20.1546 27.2454 17.3362 29.2509 14.0024 30.5647Z" fill="#0E1726"/>
<path d="M28.2514 54V49.7647H49.0201C49.2569 49.7647 49.462 49.6922 49.6354 49.5473C49.8083 49.4028 49.8947 49.2129 49.8947 48.9776V29.2292C49.8947 23.8315 47.9507 19.2875 44.0627 15.5972C40.1752 11.9068 35.4876 10.0616 30 10.0616C24.5124 10.0616 19.8248 11.9068 15.9373 15.5972C12.0493 19.2875 10.1053 23.8315 10.1053 29.2292V45.8548H7.97368C6.61089 45.8548 5.44137 45.3835 4.46511 44.4409C3.48837 43.4979 3 42.3494 3 40.9955V35.5115C3 34.5958 3.26242 33.7567 3.78726 32.9944C4.31211 32.2325 4.99705 31.62 5.84211 31.1569L5.97355 27.5513C6.20661 24.4779 7.00997 21.6308 8.38366 19.0101C9.75734 16.3894 11.519 14.108 13.6686 12.1659C15.8186 10.2238 18.3 8.71059 21.1127 7.62635C23.926 6.54212 26.8884 6 30 6C33.1116 6 36.0667 6.54212 38.8652 7.62635C41.6638 8.71059 44.1452 10.2165 46.3094 12.144C48.4737 14.0715 50.2353 16.3456 51.5943 18.9664C52.9533 21.5875 53.764 24.4346 54.0265 27.5075L54.1579 31.0426C54.985 31.4299 55.6654 31.9838 56.1992 32.7042C56.7331 33.4247 57 34.2282 57 35.1148V41.4191C57 42.3056 56.7331 43.1092 56.1992 43.8297C55.6654 44.5501 54.985 45.104 54.1579 45.4913V48.9776C54.1579 50.3673 53.656 51.5518 52.6523 52.5311C51.6481 53.5104 50.4374 54 49.0201 54H28.2514Z" fill="url(#paint0_linear_2782_297)"/>
</g>
<defs>
<linearGradient id="paint0_linear_2782_297" x1="3" y1="53.891" x2="57" y2="53.891" gradientUnits="userSpaceOnUse">
<stop stop-color="#FED548"/>
<stop offset="1" stop-color="#FCC301"/>
</linearGradient>
</defs>
</svg>
