<svg width="60" height="60" viewBox="0 0 60 60" fill="none" xmlns="http://www.w3.org/2000/svg">
<mask id="mask0_2783_2737" style="mask-type:alpha" maskUnits="userSpaceOnUse" x="0" y="0" width="60" height="60">
<rect width="60" height="60" fill="#D9D9D9"/>
</mask>
<g mask="url(#mask0_2783_2737)">
<path d="M18.593 56.365C15.898 56.365 13.591 55.4089 11.6721 53.4967C9.75267 51.585 8.79297 49.2867 8.79297 46.6018V18.7071C8.79297 16.0222 9.75267 13.7239 11.6721 11.8122C13.591 9.90003 15.898 8.94394 18.593 8.94394H22.093V3.36499H26.293V8.94394H33.293V3.36499H37.493V8.94394H40.993C43.688 8.94394 45.9949 9.90003 47.9139 11.8122C49.8333 13.7239 50.793 16.0222 50.793 18.7071V46.6018C50.793 49.2867 49.8333 51.585 47.9139 53.4967C45.9949 55.4089 43.688 56.365 40.993 56.365H18.593ZM18.593 52.1808H40.993C42.533 52.1808 43.8513 51.6345 44.948 50.542C46.0446 49.4494 46.593 48.136 46.593 46.6018V18.7071C46.593 17.1729 46.0446 15.8595 44.948 14.767C43.8513 13.6744 42.533 13.1281 40.993 13.1281H18.593C17.053 13.1281 15.7346 13.6744 14.638 14.767C13.5413 15.8595 12.993 17.1729 12.993 18.7071V46.6018C12.993 48.136 13.5413 49.4494 14.638 50.542C15.7346 51.6345 17.053 52.1808 18.593 52.1808Z" fill="#0E1726"/>
<path d="M29.7881 45.6631C31.5357 45.6631 33.0146 45.0675 34.2247 43.8764C35.4343 42.6858 36.0391 41.2464 36.0391 39.5583C36.0391 38.1994 35.6436 37.032 34.8526 36.0561C34.0611 35.0798 32.3746 33.0965 29.793 30.1062C27.1759 33.0961 25.4807 35.0868 24.7075 36.0785C23.9337 37.0701 23.5469 38.2271 23.5469 39.5493C23.5469 41.2434 24.1503 42.6858 25.3571 43.8764C26.5639 45.0675 28.0409 45.6631 29.7881 45.6631Z" fill="#FCC508"/>
<path d="M19.293 23.5888H40.293V19.4045H19.293V23.5888Z" fill="#0E1726"/>
</g>
</svg>
