<svg width="51" height="41" viewBox="0 0 51 41" fill="none" xmlns="http://www.w3.org/2000/svg">
<path fill-rule="evenodd" clip-rule="evenodd" d="M8.89794 0.152656C6.04835 0.831129 4.69141 3.13794 4.69141 7.07308C4.69141 10.3297 6.1162 12.9079 8.5587 14.1292C9.50856 14.6041 9.57641 14.6041 10.9334 14.6041C12.2225 14.6041 12.3581 14.6041 13.1723 14.1971C15.6827 13.0437 17.1753 10.3297 17.1753 7.07308C17.1753 3.00224 15.6827 0.763281 12.7652 0.152656C11.8832 -0.0508854 9.7121 -0.0508854 8.89794 0.152656ZM12.7652 2.25593C13.6472 2.52732 14.4614 3.34148 14.8006 4.29134C15.072 5.17336 15.1399 7.75156 14.9363 8.70142C14.19 12.433 10.5263 13.8578 8.21946 11.4153C7.06606 10.1262 6.72682 8.90496 6.79467 6.59815C6.86252 3.95211 7.4053 2.86657 8.96578 2.32379C9.91564 1.98456 11.7475 1.98454 12.7652 2.25593Z" fill="#A6A6A6"/>
<path fill-rule="evenodd" clip-rule="evenodd" d="M38.0713 0.152656C35.2217 0.831129 33.7969 3.13794 33.7969 7.07308C33.7969 10.3297 35.2217 12.9079 37.732 14.1292C38.6819 14.6041 38.7497 14.6041 40.1067 14.6041C41.3958 14.6041 41.5315 14.6041 42.4813 14.1292C44.9238 12.9079 46.3486 10.3297 46.3486 7.07308C46.3486 3.07009 44.856 0.763281 41.9385 0.152656C41.0565 -0.0508854 38.8854 -0.0508854 38.0713 0.152656ZM41.9385 2.25593C42.8206 2.52732 43.6347 3.34148 43.9061 4.29134C44.2454 5.3769 44.3132 8.09079 44.0418 9.04065C43.7704 10.0584 43.4312 10.7369 42.8206 11.4153C41.2601 13.0437 38.8854 13.0437 37.3928 11.4153C36.7143 10.7369 36.3751 10.0584 36.1037 9.04065C35.8323 8.09079 35.9001 5.37691 36.2394 4.3592C36.5108 3.40934 37.2571 2.59518 38.1391 2.32379C39.0211 1.98456 40.9208 1.98454 41.9385 2.25593Z" fill="#A6A6A6"/>
<path fill-rule="evenodd" clip-rule="evenodd" d="M6.65966 15.1468C2.79236 16.0289 1.16403 17.3858 0.417709 20.2354C0.214168 21.1853 -0.0572213 24.1705 0.0106259 25.3918C0.0784732 26.2738 0.0784733 26.2738 0.689098 26.9523C1.8425 28.1057 4.4207 29.1234 7.13459 29.5305C7.67736 29.5983 8.96646 29.6661 9.98417 29.734L11.816 29.8697L11.9517 29.2591C12.0196 28.9198 12.1553 28.5127 12.2231 28.3092C12.291 28.1057 12.3588 27.9021 12.3588 27.8343C12.3588 27.7664 11.7482 27.6986 11.0697 27.6986C8.0166 27.6986 5.09917 27.2236 3.53868 26.4773C2.18174 25.7989 2.04604 25.6632 2.04604 24.4419C2.04604 21.9316 2.52097 19.8283 3.19945 18.9463C3.74222 18.3357 4.82778 17.7929 6.32042 17.318L7.54167 16.9787L8.35584 17.3858C9.98417 18.2678 11.816 18.2678 13.4444 17.3858L14.2585 16.9787L15.2763 17.318C15.8869 17.4537 16.5654 17.6572 16.9046 17.8607C17.176 17.9964 17.4474 18.0643 17.5152 18.0643C17.5152 17.9964 17.4474 17.4537 17.3117 16.843C17.0403 15.6896 17.0403 15.6896 16.5654 15.4861C16.294 15.4182 15.4798 15.2147 14.7335 15.079L13.4444 14.8076L12.9694 15.2147C11.9517 16.2324 9.84848 16.2324 8.89861 15.2825C8.62723 15.0112 8.35584 14.8076 8.22014 14.8076C8.08445 14.8076 7.40597 15.0112 6.65966 15.1468Z" fill="#A6A6A6"/>
<path fill-rule="evenodd" clip-rule="evenodd" d="M35.8334 15.1468C33.798 15.6218 33.9337 15.4861 33.6623 16.843C33.5266 17.4537 33.4588 17.9964 33.5266 18.0643C33.5266 18.0643 33.798 17.9286 34.1372 17.8607C34.4086 17.6572 35.155 17.4537 35.6977 17.318L36.7154 16.9787L37.5296 17.3858C39.1579 18.2678 41.0577 18.2678 42.686 17.3858L43.4323 17.0466L44.1786 17.2501C46.1462 17.725 47.4353 18.4035 47.9781 19.2177C48.453 20.0997 48.7922 21.5245 48.8601 23.5599L48.9958 25.3918L48.6566 25.731C47.5031 26.8844 43.9751 27.6986 39.8364 27.6986H38.5473L38.7509 28.1735C38.8187 28.4449 38.9544 28.9198 39.0222 29.2591L39.1579 29.8697L41.1255 29.734C45.5356 29.5304 48.7244 28.5806 50.2849 26.9523C50.8955 26.3416 50.9634 26.2738 50.9634 25.4596C51.0991 24.3741 50.8277 21.1853 50.5563 20.2354C49.81 17.318 48.0459 15.961 43.9751 15.079L42.5503 14.8076L42.1432 15.2147C41.1255 16.2324 39.0222 16.2324 38.0724 15.2825C37.801 15.0112 37.5296 14.8076 37.3939 14.8076C37.2582 14.8076 36.5797 15.0112 35.8334 15.1468Z" fill="#A6A6A6"/>
<path d="M20.772 23.2886C17.8546 23.8992 16.0906 24.7134 14.8693 25.9346C13.1731 27.6308 12.5625 29.8019 12.5625 34.4155V36.5866L13.4445 37.4008C15.1407 39.0291 17.9903 40.0468 22.0611 40.5217C24.3001 40.7253 28.9137 40.5896 30.8813 40.2504C33.9344 39.7076 36.4447 38.622 37.7338 37.2651L38.4801 36.5866L38.4123 34.3476C38.4123 29.8019 37.8017 27.6308 36.1055 25.9346C34.8842 24.7134 32.9845 23.8313 30.0671 23.2886L28.6423 23.0172L28.0995 23.4242C27.4889 24.1027 26.6747 24.3741 25.5213 24.3741C24.3679 24.3741 23.4859 24.0349 22.8753 23.4921C22.4003 22.9493 22.3325 22.9493 20.772 23.2886ZM23.1467 5.37687C20.5685 5.9875 19.008 7.75153 18.3974 10.6011C18.0581 12.1616 18.0581 15.079 18.4652 16.436C19.3472 19.6248 21.654 22.0673 24.5036 22.4744C28.0317 23.085 31.424 20.5068 32.5774 16.436C32.9167 15.079 32.9167 12.1616 32.5774 10.6011C32.0347 7.68368 30.4063 5.9875 27.8281 5.37687C26.7426 5.10549 24.1644 5.17333 23.1467 5.37687ZM26.8783 7.34445C28.8458 7.54799 30.0671 8.76925 30.542 10.8725C30.8134 12.1616 30.8813 14.2649 30.6777 15.4183C30.2706 17.5215 28.9815 19.3534 27.3532 20.0997C26.7426 20.439 26.4712 20.5068 25.5213 20.5068C24.5715 20.5068 24.3001 20.439 23.6216 20.0997C22.0611 19.3534 20.772 17.5215 20.3649 15.4183C20.0257 13.7221 20.2292 11.0082 20.8399 9.65126C21.1791 8.83709 21.9933 8.02292 22.8074 7.68368C23.4181 7.41229 25.1142 7.14091 25.7249 7.20875C25.9284 7.2766 26.4033 7.2766 26.8783 7.34445ZM22.1968 25.5954C23.8251 26.6809 26.8104 26.6809 28.5744 25.6632L29.1851 25.3918L29.3886 25.6632C29.7278 26.0703 30.4742 26.1381 30.8813 25.7989C31.0848 25.5954 31.1526 25.5954 32.0347 25.8667C33.3238 26.3417 34.4772 27.0202 35.0199 27.7665C35.9019 28.9199 36.2412 30.4125 36.3769 33.737L36.4447 35.7046L35.902 36.2474C34.8164 37.1973 32.5774 37.9436 29.66 38.3506C27.4889 38.622 22.1968 38.5542 20.2971 38.2149C17.9224 37.8079 15.8192 36.9937 15.005 36.1795C14.5979 35.7724 14.5301 35.7724 14.5301 34.619C14.5301 32.1087 14.9372 29.6662 15.4799 28.5128C16.1584 27.1558 17.651 26.206 20.0257 25.5954C21.5862 25.1883 21.654 25.1883 22.1968 25.5954Z" fill="url(#paint0_linear_2658_931)"/>
<defs>
<linearGradient id="paint0_linear_2658_931" x1="25.5213" y1="5.19788" x2="25.5213" y2="40.6174" gradientUnits="userSpaceOnUse">
<stop stop-color="#008CCF"/>
<stop offset="1" stop-color="#173B8E"/>
</linearGradient>
</defs>
</svg>
