<svg width="60" height="60" viewBox="0 0 60 60" fill="none" xmlns="http://www.w3.org/2000/svg">
<mask id="mask0_2740_1178" style="mask-type:alpha" maskUnits="userSpaceOnUse" x="0" y="0" width="60" height="60">
<rect width="60" height="60" fill="#D9D9D9"/>
</mask>
<g mask="url(#mask0_2740_1178)">
<path d="M37.3588 53.5715H22.707V36.978L31.9482 27.8572L33.1266 29.027C33.2712 29.1706 33.3914 29.3607 33.487 29.5974C33.5824 29.8341 33.6301 30.0571 33.6301 30.2663V30.6172L32.1516 36.978H41.4837C42.1463 36.978 42.7315 37.2303 43.2394 37.7348C43.7476 38.239 44.0017 38.82 44.0017 39.4778V41.7113C44.0017 41.8549 43.9829 42.01 43.9453 42.1766C43.9079 42.3432 43.866 42.4985 43.8196 42.6423L39.8283 51.992C39.6285 52.4352 39.2937 52.8092 38.8241 53.1141C38.3545 53.419 37.866 53.5715 37.3588 53.5715ZM24.7963 51.4973H37.3588C37.457 51.4973 37.5574 51.4707 37.66 51.4174C37.7628 51.3642 37.8411 51.2756 37.8947 51.1516L41.9124 41.8178V39.4778C41.9124 39.3535 41.8722 39.2516 41.7919 39.1718C41.7116 39.0921 41.6089 39.0522 41.4837 39.0522H29.5107L31.257 31.4735L24.7963 37.8609V51.4973ZM22.707 36.978V39.0522H18.2338V51.4973H22.707V53.5715H16.1445V36.978H22.707Z" fill="#0E1726"/>
<path d="M9.78098 22.4913L12.8566 20.5389L15.9322 22.517L15.1267 18.8177L17.8361 16.3515L14.2723 16.0175L12.8566 12.5237L11.4408 15.9918L7.87703 16.3258L10.5865 18.8177L9.78098 22.4913ZM7.5597 25.7144L8.95862 19.3749L4.28516 15.1124L10.4513 14.5493L12.8566 8.57153L15.2619 14.5493L21.428 15.1124L16.7546 19.3749L18.1535 25.7144L12.8566 22.3511L7.5597 25.7144Z" fill="url(#paint0_linear_2740_1178)"/>
<path d="M46.2107 22.4913L49.2863 20.5389L52.3619 22.517L51.5564 18.8177L54.2658 16.3515L50.702 16.0175L49.2863 12.5237L47.8705 15.9918L44.3067 16.3258L47.0162 18.8177L46.2107 22.4913ZM43.9894 25.7144L45.3883 19.3749L40.7148 15.1124L46.881 14.5493L49.2863 8.57153L51.6916 14.5493L57.8577 15.1124L53.1842 19.3749L54.5832 25.7144L49.2863 22.3511L43.9894 25.7144Z" fill="url(#paint1_linear_2740_1178)"/>
<path d="M28.3792 18.6083L31.0703 16.8999L33.7615 18.6308L33.0566 15.3938L35.4274 13.2359L32.3091 12.9437L31.0703 9.88658L29.8315 12.9212L26.7132 13.2134L29.084 15.3938L28.3792 18.6083ZM26.4355 21.4285L27.6596 15.8814L23.5703 12.1518L28.9657 11.659L31.0703 6.42847L33.175 11.659L38.5703 12.1518L34.481 15.8814L35.7051 21.4285L31.0703 18.4856L26.4355 21.4285Z" fill="url(#paint2_linear_2740_1178)"/>
</g>
<defs>
<linearGradient id="paint0_linear_2740_1178" x1="12.8566" y1="8.57153" x2="12.8566" y2="25.7144" gradientUnits="userSpaceOnUse">
<stop stop-color="#008CCF"/>
<stop offset="1" stop-color="#173B8E"/>
</linearGradient>
<linearGradient id="paint1_linear_2740_1178" x1="49.2863" y1="8.57153" x2="49.2863" y2="25.7144" gradientUnits="userSpaceOnUse">
<stop stop-color="#008CCF"/>
<stop offset="1" stop-color="#173B8E"/>
</linearGradient>
<linearGradient id="paint2_linear_2740_1178" x1="31.0703" y1="6.42847" x2="31.0703" y2="21.4285" gradientUnits="userSpaceOnUse">
<stop stop-color="#008CCF"/>
<stop offset="1" stop-color="#173B8E"/>
</linearGradient>
</defs>
</svg>
