<svg width="60" height="60" viewBox="0 0 60 60" fill="none" xmlns="http://www.w3.org/2000/svg">
<path fill-rule="evenodd" clip-rule="evenodd" d="M51.4944 33.1154L53.3591 34.9813C53.5948 35.2186 53.7271 35.5396 53.7271 35.8742C53.7271 36.2087 53.5948 36.5297 53.3591 36.767L51.8572 38.2698C52.2753 39.0484 52.5888 39.8787 52.7896 40.7394H54.7344C55.07 40.7394 55.392 40.8728 55.6293 41.1103C55.8667 41.3478 56 41.67 56 42.0058V44.6443C56 44.9801 55.8667 45.3023 55.6293 45.5398C55.392 45.7773 55.07 45.9107 54.7344 45.9107H52.625C52.3684 46.7609 51.9996 47.5729 51.5282 48.3254L52.9035 49.7016C53.1405 49.939 53.2736 50.2609 53.2736 50.5965C53.2736 50.9321 53.1405 51.254 52.9035 51.4915L51.0388 53.3574C50.8016 53.5932 50.4809 53.7256 50.1465 53.7256C49.8122 53.7256 49.4914 53.5932 49.2543 53.3574L47.7524 51.8545C46.9673 52.2736 46.1304 52.5873 45.2633 52.7875V54.7336C45.2633 55.0694 45.13 55.3916 44.8927 55.6291C44.6553 55.8666 44.3334 56 43.9977 56H41.3484C41.0127 56 40.6908 55.8666 40.4534 55.6291C40.2161 55.3916 40.0828 55.0694 40.0828 54.7336V52.6228C39.2336 52.363 38.4222 51.9926 37.6696 51.521L36.2901 52.8972C36.053 53.1331 35.7322 53.2655 35.3979 53.2655C35.0635 53.2655 34.7427 53.1331 34.5056 52.8972L32.6409 51.0313C32.4052 50.7941 32.2729 50.4731 32.2729 50.1385C32.2729 49.8039 32.4052 49.4829 32.6409 49.2457L34.1428 47.7428C33.7222 46.9595 33.4087 46.1232 33.2104 45.2564H31.2656C30.93 45.2564 30.608 45.1229 30.3707 44.8854C30.1333 44.6479 30 44.3258 30 43.9899V41.3515C30 41.0156 30.1333 40.6935 30.3707 40.456C30.608 40.2185 30.93 40.0851 31.2656 40.0851H33.375C33.633 39.2334 34.0033 38.42 34.4761 37.6662L33.0965 36.29C32.8608 36.0527 32.7285 35.7317 32.7285 35.3971C32.7285 35.0626 32.8608 34.7416 33.0965 34.5043L34.9612 32.6384C35.1983 32.4025 35.5191 32.2701 35.8535 32.2701C36.1878 32.2701 36.5086 32.4025 36.7457 32.6384L38.2518 34.1413C39.0353 33.7218 39.8708 33.408 40.7367 33.2083V31.2664C40.7367 30.9306 40.87 30.6084 41.1073 30.3709C41.3447 30.1334 41.6666 30 42.0023 30H44.6558C44.9915 30 45.3134 30.1334 45.5508 30.3709C45.7881 30.6084 45.9215 30.9306 45.9215 31.2664V33.3772C46.7729 33.6345 47.5859 34.0051 48.3388 34.479L49.7183 33.1154C49.9556 32.8783 50.2773 32.7451 50.6127 32.7451C50.9481 32.7451 51.2698 32.8783 51.5071 33.1154H51.4944ZM43.0021 37.8139C44.0274 37.8148 45.0294 38.1198 45.8815 38.6903C46.7336 39.2609 47.3975 40.0715 47.7892 41.0196C48.181 41.9677 48.2831 43.0107 48.0826 44.0169C47.882 45.023 47.3879 45.947 46.6626 46.6722C45.9373 47.3974 45.0135 47.8911 44.0078 48.0909C43.0022 48.2908 41.9599 48.1878 41.0128 47.795C40.0656 47.4022 39.2561 46.7372 38.6866 45.8841C38.1171 45.031 37.8131 44.0281 37.8131 43.0021C37.8131 42.3204 37.9473 41.6454 38.2082 41.0157C38.469 40.386 38.8513 39.8138 39.3332 39.332C39.8151 38.8502 40.3871 38.4681 41.0167 38.2076C41.6462 37.9472 42.3209 37.8134 43.0021 37.8139Z" fill="url(#paint0_linear_2740_1175)"/>
<path fill-rule="evenodd" clip-rule="evenodd" d="M11.6567 15.5052C15.1664 16.6731 20.0528 17.3925 25.4787 17.3925C30.9047 17.3925 35.8038 16.6943 39.3135 15.5052C42.3941 14.4812 44.2976 13.2414 44.2976 12.027C44.2976 10.8126 42.3941 9.57702 39.3135 8.55301C35.8038 7.38514 30.9175 6.66157 25.4915 6.66157C20.0655 6.66157 15.1791 7.38514 11.6567 8.55301C5.13449 10.7237 4.95178 13.2711 11.6567 15.5052ZM24.9051 44.1986C19.4367 44.1478 14.4738 43.3819 10.8239 42.1675C9.37229 41.7126 7.98883 41.065 6.71087 40.2422V48.2184C6.95306 49.3482 8.80138 50.4865 11.6695 51.4385C15.1791 52.6064 20.0655 53.33 25.4915 53.33C26.405 53.33 27.3058 53.33 28.1854 53.2665C28.4299 53.6522 28.7148 54.0111 29.0352 54.3371L30.5011 55.7927C28.8865 55.9281 27.1996 56 25.466 56C19.7681 56 14.58 55.2214 10.7984 53.9647C8.80563 53.3046 4 51.1254 4 48.5231V47.6768C4.02549 35.7921 4.02833 23.9131 4.0085 12.0397C4.0085 9.54317 6.61314 7.43592 10.8069 6.03532C14.6055 4.77858 19.7936 4 25.4915 4C31.1894 4 36.3775 4.77858 40.1591 6.03532C43.9407 7.29205 46.4986 9.1708 46.9235 11.3669C46.9749 11.5109 47.0008 11.6626 47 11.8154V24.8736C46.2948 24.6172 45.5497 24.4868 44.799 24.4886H44.2934C44.2954 24.4562 44.2954 24.4237 44.2934 24.3912V16.068C43.0031 16.9033 41.6052 17.561 40.1378 18.0229C36.3775 19.2797 31.2022 20.0794 25.4915 20.0794C19.7808 20.0794 14.6055 19.2797 10.8069 18.0229C9.35507 17.5667 7.9716 16.9177 6.69387 16.0934V24.6409C6.93607 25.7749 8.78439 26.9132 11.6525 27.8652C15.1622 29.0331 20.0485 29.7567 25.4745 29.7567C27.2123 29.7567 28.8992 29.6805 30.5011 29.5409L29.8085 30.2348C29.7108 30.3195 29.6173 30.4041 29.5238 30.4972C28.984 31.0329 28.5451 31.6606 28.2279 32.3506C27.3313 32.3886 26.4135 32.4098 25.4872 32.4098C19.7893 32.4098 14.6013 31.6312 10.8197 30.3745C9.36995 29.9219 7.98796 29.2772 6.71087 28.4576V36.4339C6.95306 37.5637 8.80138 38.6977 11.6567 39.654C15.0559 40.7796 19.6873 41.4904 24.8669 41.5412V43.6569C24.8669 43.8431 24.8669 44.0293 24.8924 44.2112L24.9051 44.1986Z" fill="#0E1726"/>
<defs>
<linearGradient id="paint0_linear_2740_1175" x1="43" y1="30" x2="43" y2="56" gradientUnits="userSpaceOnUse">
<stop stop-color="#008CCF"/>
<stop offset="1" stop-color="#173B8E"/>
</linearGradient>
</defs>
</svg>
