<svg width="50" height="50" viewBox="0 0 50 50" fill="none" xmlns="http://www.w3.org/2000/svg">
<path d="M37.6701 25.1417L33.4982 21.2094L28.6086 25.7615C28.4125 25.9444 28.1535 26.0447 27.8853 26.0414C27.6172 26.0381 27.3606 25.9315 27.1691 25.7438L10.9191 9.80942C10.7264 9.61505 10.6179 9.35265 10.6172 9.07896C10.6164 8.80528 10.7234 8.54228 10.915 8.34685C11.1066 8.15141 11.3675 8.03924 11.6411 8.03458C11.9148 8.02991 12.1792 8.13313 12.3774 8.32193L27.917 23.5594L32.792 19.0198C32.9855 18.8397 33.2404 18.7398 33.5048 18.7406C33.7692 18.7414 34.0235 18.8427 34.2159 19.024L39.1701 23.6928L40.7368 22.1803C40.8064 22.1129 40.8934 22.0663 40.988 22.0456C41.0826 22.025 41.1811 22.0311 41.2724 22.0634C41.3638 22.0956 41.4443 22.1527 41.505 22.2282C41.5656 22.3036 41.6041 22.3946 41.6159 22.4907L42.2618 27.6573C42.272 27.7376 42.2634 27.8192 42.2366 27.8956C42.2099 27.972 42.1656 28.041 42.1075 28.0974C42.0494 28.1537 41.9789 28.1957 41.9017 28.22C41.8245 28.2443 41.7427 28.2503 41.6628 28.2376L36.5201 27.4105C36.4247 27.3951 36.3354 27.3534 36.2623 27.2902C36.1892 27.2269 36.1351 27.1446 36.1062 27.0524C36.0772 26.9602 36.0745 26.8617 36.0983 26.768C36.1221 26.6743 36.1715 26.5891 36.2409 26.5219L37.6701 25.1417Z" fill="url(#paint0_linear_2658_952)"/>
<path d="M33.438 45.8334C33.3667 45.8407 33.2948 45.8407 33.2234 45.8334H7.29219C6.46281 45.8326 5.66764 45.5027 5.08118 44.9163C4.49472 44.3298 4.16489 43.5346 4.16406 42.7053V7.29484C4.16406 7.01857 4.27381 6.75362 4.46916 6.55827C4.66451 6.36292 4.92946 6.25317 5.20573 6.25317C5.482 6.25317 5.74695 6.36292 5.9423 6.55827C6.13765 6.75362 6.2474 7.01857 6.2474 7.29484V42.7053C6.2474 43.2792 6.71719 43.75 7.29219 43.75H10.4141V26.0365C10.4141 24.8907 11.3474 23.9584 12.487 23.9584H16.6745C17.8193 23.9584 18.7474 24.8938 18.7474 26.0365V43.75H20.8307V31.2448C20.8307 30.099 21.7641 29.1667 22.9036 29.1667H27.0911C28.2359 29.1667 29.1641 30.1021 29.1641 31.2448V43.75H32.2891V35.4115C32.2891 34.2657 33.2224 33.3334 34.362 33.3334H38.5495C39.6943 33.3334 40.6224 34.2688 40.6224 35.4115V43.75H44.7859C45.0622 43.75 45.3272 43.8598 45.5225 44.0551C45.7179 44.2505 45.8276 44.5154 45.8276 44.7917C45.8276 45.068 45.7179 45.3329 45.5225 45.5283C45.3272 45.7236 45.0622 45.8334 44.7859 45.8334H39.688C39.6167 45.8407 39.5448 45.8407 39.4734 45.8334H33.438ZM38.5391 43.75V35.4167C38.5391 35.4167 34.3724 35.4167 34.3724 35.4136V43.75H38.5391ZM27.0807 43.75V31.25C27.0807 31.25 22.9141 31.25 22.9141 31.2469V43.75H27.0807ZM16.6641 43.75V26.0417C16.6641 26.0417 12.4974 26.0417 12.4974 26.0386V43.75H16.6641Z" fill="#A6A6A6"/>
<defs>
<linearGradient id="paint0_linear_2658_952" x1="26.4416" y1="8.03442" x2="26.4416" y2="28.2441" gradientUnits="userSpaceOnUse">
<stop stop-color="#008CCF"/>
<stop offset="1" stop-color="#173B8E"/>
</linearGradient>
</defs>
</svg>
