<svg width="50" height="50" viewBox="0 0 50 50" fill="none" xmlns="http://www.w3.org/2000/svg">
<path d="M27.4432 3.93465C27.1412 4.0135 26.8528 4.25196 26.722 4.52888C26.6835 4.6135 26.5797 4.79427 26.4951 4.93273C25.8662 5.94619 23.0547 9.99427 19.7335 14.6731L19.2489 15.3558L15.1585 15.3654C11.247 15.375 11.0643 15.377 10.9624 15.4097C10.6778 15.5058 10.4297 15.6981 10.2951 15.925C10.2432 16.0116 7.36815 23.35 7.25854 23.6731C7.22392 23.775 7.222 24.1193 7.21623 35.1731C7.21238 43.477 7.21623 46.5981 7.23162 46.6827C7.30854 47.0923 7.65662 47.4577 8.072 47.5654C8.17777 47.5943 9.85277 47.5962 25.7124 47.5962C41.6451 47.5962 43.247 47.5943 43.3547 47.5654C43.5451 47.5173 43.7258 47.4097 43.8758 47.2597C44.0316 47.1039 44.1201 46.95 44.1739 46.7385C44.2124 46.5923 44.2124 46.4808 44.2124 35.2558C44.2124 24.9847 44.2105 23.9077 44.1816 23.7731C44.1412 23.5789 41.2028 16.0423 41.1105 15.9C41.0143 15.75 40.8143 15.5712 40.6508 15.4923C40.3797 15.3577 40.6008 15.3654 36.5951 15.3654C34.6085 15.3654 32.9816 15.3616 32.9816 15.3577C32.9816 15.3539 33.7489 13.9154 34.6874 12.1616C35.7739 10.127 36.4085 8.91927 36.4393 8.82696C36.5374 8.53081 36.4912 8.16735 36.3162 7.88273C36.2182 7.72119 36.0297 7.55388 35.8432 7.4635C35.7547 7.42119 35.1662 7.16158 34.5355 6.88465C31.9393 5.75388 29.7508 4.76542 28.5105 4.1635C28.297 4.06158 28.0624 3.96157 27.9835 3.94042C27.8143 3.89811 27.5932 3.89427 27.4432 3.93465ZM28.7874 6.82888C29.8835 7.33657 31.8085 8.19619 33.0874 8.75004C33.4374 8.90196 33.7278 9.03081 33.7374 9.0385C33.7451 9.04427 32.5374 11.3212 31.0566 14.0981C29.5739 16.8731 28.3412 19.1904 28.3162 19.2443L28.2701 19.3462H27.5951H26.922L26.8605 19.3C26.8258 19.275 25.5739 18.6077 24.0778 17.8173C22.5816 17.025 21.3547 16.377 21.3508 16.3731C21.347 16.3712 21.6682 15.9116 22.0624 15.352C24.8085 11.4731 26.7335 8.70388 27.7797 7.12888C27.9893 6.81542 28.1682 6.55773 28.1778 6.55773C28.1893 6.55773 28.4624 6.68081 28.7874 6.82888ZM19.0143 17.7193C19.0662 17.7539 19.7682 18.1327 20.5758 18.5597L22.047 19.3366L20.947 19.3423L19.847 19.3462L19.8508 20.1404L19.8566 20.9327L25.7182 20.9385L31.5778 20.9423V20.1443V19.3462L31.2143 19.3423L30.8528 19.3366L31.2989 18.5L31.747 17.6635L35.5547 17.6577L39.3624 17.6539L39.4201 17.802C39.4508 17.8847 39.9028 19.0423 40.4239 20.375C40.9451 21.7077 41.3758 22.8135 41.3797 22.8308C41.3893 22.8635 40.6335 22.8654 25.7143 22.8654C16.2239 22.8654 10.0393 22.8577 10.0393 22.8481C10.0393 22.8385 10.4874 21.6808 11.0355 20.275C11.5835 18.8712 12.0374 17.7058 12.0451 17.6866C12.0566 17.6558 12.2393 17.6539 15.4912 17.6539H18.9239L19.0143 17.7193ZM41.9239 35.2308V45.3077H25.7124H9.50085V35.2308V25.1539H25.7124H41.9239V35.2308Z" fill="#A6A6A6"/>
<path d="M27.2887 10.2231C27.2618 10.227 27.1752 10.2404 27.0964 10.252C26.7964 10.2962 26.4425 10.4404 26.1868 10.6231C26.0156 10.7443 25.756 11.0212 25.6483 11.1962C25.4137 11.5712 25.2887 12.0654 25.3137 12.5097C25.3387 12.925 25.431 13.2673 25.6272 13.6635C26.0618 14.5481 26.9175 15.2116 27.8579 15.3962C28.1022 15.4443 28.5675 15.4443 28.7983 15.3962C29.4714 15.2558 29.9906 14.8654 30.2791 14.2789C30.5618 13.7097 30.5906 13.0558 30.3656 12.3827C29.9579 11.1616 28.7887 10.2577 27.5675 10.2212C27.4406 10.2173 27.3156 10.2173 27.2887 10.2231ZM27.8464 11.8039C28.3791 11.9923 28.8022 12.4347 28.9445 12.9539C29.0002 13.1577 28.9906 13.4481 28.9252 13.577C28.8656 13.6943 28.7791 13.7827 28.6637 13.8423C28.5368 13.9077 28.2637 13.9231 28.0752 13.877C27.5406 13.7443 27.0195 13.2289 26.8848 12.7C26.7695 12.2481 26.9022 11.9039 27.2406 11.7827C27.3675 11.7366 27.6906 11.7481 27.8464 11.8039Z" fill="url(#paint0_linear_2587_518)"/>
<path d="M19.9037 4.33464C19.7095 4.40964 19.5652 4.52503 19.4729 4.68272C19.4056 4.79618 19.3614 4.98849 19.3729 5.11541C19.3864 5.25772 19.8383 6.96541 19.8941 7.08657C19.9652 7.23849 20.0806 7.3558 20.2479 7.43657C20.3864 7.5058 20.4037 7.50964 20.5787 7.50964C20.7441 7.50964 20.7729 7.50387 20.8902 7.44811C20.9614 7.41541 21.0575 7.35195 21.1037 7.30964C21.2595 7.16541 21.3633 6.90195 21.3422 6.70387C21.3268 6.56157 20.8729 4.8558 20.8191 4.73657C20.7537 4.59426 20.6152 4.45387 20.4672 4.3808C20.3556 4.32503 20.3191 4.31734 20.1575 4.31349C20.0364 4.30964 19.9498 4.31734 19.9037 4.33464Z" fill="url(#paint1_linear_2587_518)"/>
<path d="M15.6545 6.98852C15.5256 7.02314 15.4353 7.07122 15.3391 7.15583C15.0814 7.38275 15.0083 7.74045 15.1545 8.05391C15.2083 8.17122 15.2795 8.24814 15.9199 8.89045C16.7276 9.70006 16.743 9.7116 17.0295 9.72699C17.5353 9.75391 17.9218 9.30968 17.818 8.81929C17.8026 8.74622 17.766 8.64622 17.7372 8.59429C17.668 8.47699 16.3449 7.13852 16.2295 7.07122C16.0603 6.97122 15.8314 6.93852 15.6545 6.98852Z" fill="url(#paint2_linear_2587_518)"/>
<path d="M13.2412 11.45C12.6989 11.6212 12.5162 12.2808 12.897 12.6904C12.9528 12.7519 13.0451 12.825 13.1008 12.8539C13.1566 12.8827 13.6008 13.0154 14.0874 13.1481C14.9143 13.3769 14.9835 13.3923 15.1451 13.3923C15.2816 13.3923 15.3412 13.3827 15.4297 13.3481C15.5893 13.2846 15.7681 13.1135 15.8374 12.9577C16.0028 12.5904 15.8451 12.1366 15.4912 11.9558C15.4585 11.9404 15.0162 11.8135 14.5085 11.675C13.5258 11.4058 13.4316 11.3904 13.2412 11.45Z" fill="url(#paint3_linear_2587_518)"/>
<defs>
<linearGradient id="paint0_linear_2587_518" x1="24.8473" y1="-7.27478" x2="30.0789" y2="-7.21902" gradientUnits="userSpaceOnUse">
<stop stop-color="#693185"/>
<stop offset="1" stop-color="#E73970"/>
</linearGradient>
<linearGradient id="paint1_linear_2587_518" x1="19.1954" y1="-6.41457" x2="21.1796" y2="-6.40149" gradientUnits="userSpaceOnUse">
<stop stop-color="#693185"/>
<stop offset="1" stop-color="#E73970"/>
</linearGradient>
<linearGradient id="paint2_linear_2587_518" x1="14.8349" y1="-2.30424" x2="17.604" y2="-2.27476" gradientUnits="userSpaceOnUse">
<stop stop-color="#693185"/>
<stop offset="1" stop-color="#E73970"/>
</linearGradient>
<linearGradient id="paint3_linear_2587_518" x1="12.4098" y1="4.80863" x2="15.6337" y2="4.86465" gradientUnits="userSpaceOnUse">
<stop stop-color="#693185"/>
<stop offset="1" stop-color="#E73970"/>
</linearGradient>
</defs>
</svg>
