<svg width="60" height="60" viewBox="0 0 60 60" fill="none" xmlns="http://www.w3.org/2000/svg">
<path d="M15.2109 35.2204C14.9575 34.2825 14.7797 33.5802 14.6597 32.6334C14.5397 31.6955 14.4863 30.562 14.4863 28.7795V21.1074V17.387C14.4863 16.4002 14.8642 15.5023 15.4731 14.8533C16.0821 14.1999 16.9266 13.7954 17.8512 13.7954H18.9091V5.32321C18.9091 4.58978 19.2069 3.92303 19.6914 3.43852C20.1759 2.95846 20.8427 2.66064 21.5761 2.66064H37.4893H40.0185H40.0452H40.0718C41.6943 2.66064 42.5921 2.71843 43.2144 3.3274C43.8412 3.93636 43.9301 4.8387 43.9301 6.51892V8.97701C43.9301 9.41706 43.5745 9.77711 43.13 9.77711H40.8141V13.7954H41.5431C42.4721 13.7954 43.3167 14.1999 43.9256 14.8578C44.5391 15.5112 44.9169 16.4135 44.9169 17.4003V28.8151C45.0547 30.4998 45.0102 31.8555 44.8635 33.0156C44.7124 34.2069 44.4635 35.1804 44.1923 36.1005C42.8677 40.6122 42.9477 44.5904 43.0366 49.031C43.0589 50.2534 43.0855 51.5024 43.0855 52.6226C43.0855 52.6359 43.0855 52.6448 43.0855 52.6581C43.1255 54.1339 42.8099 55.294 42.0854 56.0986C41.352 56.9165 40.2496 57.3254 38.7294 57.2765H20.4515C20.4382 57.2765 20.4293 57.2765 20.416 57.2765C18.9713 57.3165 17.9757 56.8987 17.3222 56.1208C16.6733 55.3474 16.411 54.2628 16.4155 52.9649V44.5193C16.4155 42.5813 16.3577 41.1633 16.1843 39.7898C16.0065 38.4163 15.7043 37.0517 15.2109 35.2204ZM40.8141 4.26085V5.12318V8.17691H42.3299V6.51892C42.3299 5.28765 42.2988 4.66535 42.0987 4.46976C41.9521 4.32308 41.5387 4.27418 40.8141 4.26085ZM37.4893 4.2564H21.5761C21.2828 4.2564 21.0161 4.37642 20.8249 4.572C20.6293 4.76758 20.5093 5.03428 20.5093 5.32321V13.5687H39.2228V5.12763V4.2564H37.4893ZM15.9621 32.4422C16.0688 33.2779 16.2377 33.9402 16.4777 34.8336C16.9844 36.7139 17.2956 38.1363 17.4823 39.6031C17.669 41.07 17.7312 42.5413 17.7312 44.5193V52.9649V52.9693C17.7267 53.9339 17.8912 54.6984 18.3001 55.1874C18.6913 55.6541 19.3581 55.9075 20.376 55.8763C20.3982 55.8719 20.4249 55.8719 20.4515 55.8719H38.7339V55.8763H38.7561C39.8896 55.9163 40.6719 55.6541 41.1431 55.134C41.6098 54.614 41.8098 53.7916 41.7787 52.7026C41.7743 52.6759 41.7743 52.6493 41.7743 52.6226C41.7743 51.2713 41.752 50.1512 41.7298 49.0577C41.6409 44.4927 41.5565 40.4032 42.9433 35.6826C43.1967 34.8159 43.4322 33.9091 43.5656 32.8334C43.6989 31.7577 43.739 30.5042 43.6145 28.9351C43.6056 28.8951 43.6056 28.8507 43.6056 28.8107V17.4003C43.6056 16.7913 43.3745 16.2402 43.0011 15.8446C42.6277 15.4489 42.1165 15.2 41.5476 15.2H40.463H27.6791H17.8512C17.2867 15.2 16.7755 15.4445 16.4066 15.8401C16.0332 16.2357 15.8065 16.7869 15.8065 17.3914V21.1119V28.784C15.8065 30.5175 15.8554 31.5932 15.9621 32.4422Z" fill="#0E1726"/>
<path d="M22.2998 9.23045H37.5417V10.6929H22.2998V9.23045ZM22.2598 5.87891H24.4912V7.34132H22.2598V5.87891ZM26.6514 5.87891H37.5417V7.34132H26.6514V5.87891Z" fill="#0E1726"/>
<path d="M19.7456 18.3782H39.7482C40.086 18.3782 40.3883 18.5249 40.6105 18.7604C40.815 18.9783 40.9439 19.2805 40.9439 19.605V28.4239C40.9439 28.7484 40.815 29.0506 40.6105 29.2685C40.5883 29.2951 40.5616 29.3173 40.5349 29.3396C40.3216 29.5352 40.046 29.6507 39.7437 29.6507H19.7412C19.4033 29.6507 19.1011 29.504 18.8788 29.2685C18.6699 29.0462 18.541 28.7484 18.541 28.4239V19.605C18.541 19.2805 18.6699 18.9827 18.8788 18.7604C19.1055 18.5249 19.4078 18.3782 19.7456 18.3782ZM39.3615 19.965H20.1323V28.0639H39.3615V19.965Z" fill="url(#paint0_linear_2563_264)"/>
<path d="M27.5239 48.0486H31.9644V52.9515H27.5239V48.0486ZM20.4785 32.5889H24.9191V37.4917H20.4785V32.5889ZM27.5239 32.5889H31.9644V37.4917H27.5239V32.5889ZM34.5692 32.5889H39.0098V37.4917H34.5692V32.5889ZM34.5692 40.3187H39.0098V52.9292H34.5692V40.3187ZM27.5239 40.3187H31.9644V45.2216H27.5239V40.3187ZM20.4785 40.3187H24.9191V45.2216H20.4785V40.3187ZM20.4785 48.0486H24.9191V52.9515H20.4785V48.0486Z" fill="#0E1726"/>
<defs>
<linearGradient id="paint0_linear_2563_264" x1="18.541" y1="24.0144" x2="40.9439" y2="24.0144" gradientUnits="userSpaceOnUse">
<stop stop-color="#393185"/>
<stop offset="1" stop-color="#E4097F"/>
</linearGradient>
</defs>
</svg>
