<svg width="60" height="60" viewBox="0 0 60 60" fill="none" xmlns="http://www.w3.org/2000/svg">
<path d="M37.3022 44.8572H20.5879V48.5715H37.3022V44.8572Z" fill="url(#paint0_linear_2580_412)"/>
<path d="M33.5882 52.2858H22.4453V56.0001H33.5882V52.2858Z" fill="url(#paint1_linear_2580_412)"/>
<path d="M14.6146 35.5242L17.2475 32.8908C15.8384 31.5855 14.7397 29.9809 14.0324 28.1951C13.3251 26.4092 13.027 24.4876 13.1601 22.5714C13.1567 19.66 14.0097 16.812 15.6131 14.3819C17.2165 11.9518 19.4993 10.0471 22.1773 8.90489C24.8552 7.76272 27.81 7.43356 30.6737 7.95841C33.5374 8.48326 36.1834 9.83894 38.2822 11.8566L40.9075 9.23135C38.2896 6.69341 34.9818 4.98326 31.3975 4.3146C27.8132 3.64594 24.1113 4.04843 20.7544 5.47178C17.3975 6.89512 14.5346 9.27619 12.5233 12.3174C10.512 15.3587 9.44158 18.9252 9.4458 22.5714C9.31657 24.9761 9.71193 27.3801 10.6045 29.6167C11.497 31.8534 12.8653 33.8691 14.6146 35.5242Z" fill="#0E1726"/>
<path d="M54.0169 6.62619L51.3907 4L5.58203 49.1643L8.20822 51.7905L42.2437 18.3992C42.6588 19.7511 42.8712 21.1572 42.874 22.5714C43.0003 24.7566 42.5885 26.9394 41.6746 28.9283C40.7608 30.9172 39.3729 32.6515 37.6326 33.9791C35.644 35.8218 33.5884 37.7278 33.5884 41.1429H37.3026C37.3026 39.4354 38.2802 38.45 40.1537 36.7123C42.2683 35.0322 43.9541 32.8744 45.0727 30.4162C46.1913 27.958 46.7107 25.2694 46.5883 22.5714C46.5814 20.1406 46.0913 17.7354 45.1464 15.4957L54.0169 6.62619Z" fill="#0E1726"/>
<defs>
<linearGradient id="paint0_linear_2580_412" x1="20.5879" y1="46.7143" x2="37.3022" y2="46.7143" gradientUnits="userSpaceOnUse">
<stop stop-color="#393185"/>
<stop offset="1" stop-color="#E4097F"/>
</linearGradient>
<linearGradient id="paint1_linear_2580_412" x1="22.4453" y1="54.1429" x2="33.5882" y2="54.1429" gradientUnits="userSpaceOnUse">
<stop stop-color="#393185"/>
<stop offset="1" stop-color="#E4097F"/>
</linearGradient>
</defs>
</svg>
