<svg width="60" height="60" viewBox="0 0 60 60" fill="none" xmlns="http://www.w3.org/2000/svg">
<path d="M24.0023 5.12494C22.8583 5.42082 21.9509 6.36763 20.9449 8.32044C20.1362 9.83929 19.7614 10.1943 17.6705 11.2201C15.6191 12.2458 15.1457 12.6403 14.8301 13.6463C14.7314 14.0013 14.6328 14.4156 14.6328 14.5734V14.8495H24.9886H35.3444V14.6325C35.3444 14.1789 35.0485 13.2715 34.7527 12.8573C34.3976 12.3444 33.7269 11.8907 32.4053 11.299C30.3539 10.3719 29.7227 9.78012 28.8548 8.08374C28.6181 7.5906 28.2236 6.93967 27.9671 6.60434C27.0006 5.28274 25.5015 4.73043 24.0023 5.12494ZM25.5606 7.76813C26.1721 8.08374 26.4877 8.77412 26.3299 9.42506C26.0735 10.4311 24.7125 10.7467 23.9826 9.97737C23.6276 9.60259 23.5092 8.8333 23.7656 8.35989C24.101 7.74841 24.9689 7.45253 25.5606 7.76813Z" fill="#0E1726"/>
<path d="M8.18233 10.7861C7.6103 10.9834 7.23551 11.299 6.97909 11.8316L6.72266 12.3642V31.6555C6.72266 50.1185 6.72266 50.9864 6.90018 51.3612C7.07771 51.7754 7.64975 52.3277 8.06398 52.5052C8.24151 52.5841 11.6343 52.6236 21.418 52.663L34.5156 52.7025L35.0877 53.0773C36.4685 53.9846 38.0662 54.5764 39.8415 54.8525C44.6939 55.6021 49.6844 53.0378 51.9528 48.6391C52.9588 46.6863 53.2744 45.3647 53.2744 43.1751C53.2744 41.0054 52.9588 39.664 51.9923 37.7704C50.9074 35.6401 48.9743 33.7267 46.8045 32.6418C46.055 32.267 44.3783 31.695 43.7274 31.5964L43.254 31.5372L43.2342 21.8521C43.2145 11.1807 43.2342 11.9499 42.603 11.299C41.9915 10.6875 42.0507 10.7072 38.3226 10.6678L34.9299 10.6481L35.5216 11.1807C36.2712 11.8513 36.7249 12.6798 36.9616 13.8041L37.0208 14.0803H38.3818H39.7429V22.8186V31.5569L39.2892 31.6161C38.5593 31.7147 36.8432 32.3262 36.0345 32.7404C32.8784 34.4368 30.7678 37.2378 29.9591 40.7884C29.6829 41.9522 29.6632 44.3192 29.9196 45.4633C30.2352 46.8835 30.9059 48.5602 31.4582 49.3689L31.6357 49.6451H20.9052H10.1351L10.1549 31.8923L10.1746 14.1197L11.5554 14.1L12.9361 14.0803L13.0545 13.5674C13.2715 12.6601 13.6265 12.0288 14.3366 11.3187L15.0073 10.6678H11.7723C9.38558 10.6678 8.43876 10.6875 8.18233 10.7861ZM44.1022 34.0423C47.5738 35.0878 50.1381 37.8296 50.8482 41.2815C51.1638 42.8595 51.006 45.0096 50.4537 46.4693C49.5661 48.8166 47.7316 50.8088 45.4829 51.8543C44.1416 52.4658 43.3329 52.6236 41.5181 52.6236C39.7429 52.6236 39.1511 52.5249 37.79 51.9332C35.6597 51.0258 33.7069 49.1125 32.8193 47.0216C32.1881 45.5619 32.0894 44.9504 32.0894 43.1357C32.0894 41.6168 32.1289 41.3999 32.3656 40.6108C33.3321 37.4548 35.6992 35.0286 38.7369 34.1015C39.8218 33.7662 40.2754 33.7267 41.7943 33.7464C42.9975 33.7859 43.3526 33.8253 44.1022 34.0423Z" fill="#0E1726"/>
<path d="M42.5243 40.9659L39.2696 44.2205L37.948 42.8989L36.6264 41.5773L35.364 42.8398L34.1016 44.1022L36.6856 46.6862L39.2696 49.2702L43.7867 44.7531L48.3038 40.236L47.0414 38.9736L45.779 37.7112L42.5243 40.9659Z" fill="url(#paint0_linear_2580_429)"/>
<path d="M18.0042 22.4833C17.1363 23.3512 16.4065 24.0416 16.3473 24.0416C16.3079 24.0416 15.9725 23.7654 15.6372 23.4301L15.0257 22.8186L14.4142 23.4301L13.8027 24.0416L15.1046 25.3237L16.3868 26.6256L18.6354 24.3769L20.8841 22.1282L20.2726 21.5168C19.9373 21.1814 19.6414 20.9053 19.602 20.9053C19.5823 20.9053 18.8721 21.6154 18.0042 22.4833Z" fill="#0E1726"/>
<path d="M22.9958 23.4103C22.4633 23.9429 22.7789 24.8305 23.5284 24.9686C23.706 24.9883 26.0335 25.008 28.6767 24.9883L33.4897 24.9686L33.7462 24.7122C34.1209 24.3374 34.1209 23.7259 33.7462 23.4103L33.47 23.1736H28.3611H23.272L22.9958 23.4103Z" fill="#0E1726"/>
<path d="M17.9671 29.2687L16.3496 30.8862L15.6987 30.2352L15.028 29.5843L14.3968 30.2155L13.7656 30.8467L15.0478 32.1288L16.3496 33.4307L18.6181 31.1623L20.8865 28.8939L20.275 28.2824C19.9397 27.9471 19.6438 27.6709 19.6043 27.6709C19.5846 27.6512 18.8548 28.381 17.9671 29.2687Z" fill="#0E1726"/>
<path d="M23.2728 29.9985C22.9572 30.1169 22.7402 30.4917 22.7402 30.8862C22.7402 31.1623 22.7994 31.3004 23.0361 31.4977L23.332 31.7541H27.6124C32.307 31.7541 32.3465 31.7541 32.5832 31.182C32.741 30.8073 32.6226 30.4325 32.2873 30.1366L31.9914 29.8999H27.7307C25.4032 29.9196 23.3912 29.9591 23.2728 29.9985Z" fill="#0E1726"/>
<path d="M17.9851 36.074L16.3873 37.6718L15.6969 36.9814L15.0066 36.291L14.3754 36.9222L13.7441 37.5534L15.046 38.8553L16.3282 40.1374L18.5768 37.8887L20.8255 35.6401L20.2338 35.0483C19.9182 34.7327 19.6223 34.4565 19.6026 34.4565C19.5828 34.496 18.853 35.2061 17.9851 36.074Z" fill="#0E1726"/>
<path d="M22.9965 36.9813C22.8189 37.1589 22.7598 37.3167 22.7598 37.6125C22.7598 37.9084 22.8189 38.0662 22.9965 38.2438L23.2332 38.4805H25.5805H27.9278L28.1645 38.2438C28.342 38.0662 28.4012 37.9084 28.4012 37.6125C28.4012 37.3167 28.342 37.1589 28.1645 36.9813L27.9278 36.7446H25.5805H23.2332L22.9965 36.9813Z" fill="#0E1726"/>
<defs>
<linearGradient id="paint0_linear_2580_429" x1="34.1016" y1="43.4907" x2="48.3038" y2="43.4907" gradientUnits="userSpaceOnUse">
<stop stop-color="#393185"/>
<stop offset="1" stop-color="#E4097F"/>
</linearGradient>
</defs>
</svg>
