<?xml version="1.0" encoding="UTF-8"?>
<!DOCTYPE svg PUBLIC "-//W3C//DTD SVG 1.1//EN" "http://www.w3.org/Graphics/SVG/1.1/DTD/svg11.dtd">
<!-- Creator: CorelDRAW 2021 (64-Bit) -->
<svg xmlns="http://www.w3.org/2000/svg" fill="blue" xml:space="preserve" width="0.46717in" height="0.89583in" version="1.1" style="shape-rendering:geometricPrecision; text-rendering:geometricPrecision; image-rendering:optimizeQuality; fill-rule:evenodd; clip-rule:evenodd"
viewBox="0 0 1742.68 1129.69"
 xmlns:xlink="http://www.w3.org/1999/xlink"
 xmlns:xodm="http://www.corel.com/coreldraw/odm/2003">
 <g id="Layer_x0020_1" fill="blue">
  <metadata id="CorelCorpID_0Corel-Layer"/>
  <path fill="#000" d="M425.5 635.95l122.34 -405.66 125.2 412.43 3.91 8.54 -256.71 -0.4c6.32,-18.39 2.54,-8 5.25,-14.91zm-425.5 493.73l273.28 -0.17 80.76 -262.25 385.21 -0.24 80.6 262.35 274.64 0.02 -397.04 -1128.99 -294.12 -0.41c-20.39,5.61 -97.28,254.39 -104.82,275.99 -32.82,94.03 -66.11,190.66 -100.09,284.51l-198.4 569.19z"/>
  <path fill="#000" d="M1119.41 462.98l-0.75 208.87c44.33,0 175.87,-5.56 208.47,3.36l0 203.88 205.34 -0.74c0,-42.79 -9.8,-177.95 6.47,-209.19l203.74 -0.3 0 -205.34c-48.92,-1.79 -166.29,5.87 -205.77,-3.77l-0.15 -210.04 -207.99 0 -1.08 210.04c-34.6,8.65 -163.71,3.22 -208.28,3.22z"/>
 </g>
</svg>
