<?xml version="1.0" encoding="UTF-8"?>
<svg version="1.1" xmlns="http://www.w3.org/2000/svg" width="20" height="20">
<path fill="#FFFFFF" transform="translate(41,0)" d="M0 0 C5.65382622 0.21662169 8.63001267 3.96672036 12.375 7.75 C13.02855469 8.37132812 13.68210938 8.99265625 14.35546875 9.6328125 C18.88460029 14.15240903 18.88460029 14.15240903 19.33984375 17.49609375 C17.25440867 21.39336456 14.33314354 24.24273128 11.1875 27.3125 C10.55779297 27.95767578 9.92808594 28.60285156 9.27929688 29.26757812 C8.66505859 29.87666016 8.05082031 30.48574219 7.41796875 31.11328125 C6.85875732 31.66798096 6.2995459 32.22268066 5.72338867 32.79418945 C4 34 4 34 0 34 C1 29 1 29 10 20 C-4.19 19.67 -18.38 19.34 -33 19 C-33 17.68 -33 16.36 -33 15 C-29.61947726 13.30973863 -25.77739858 13.75555041 -22.0546875 13.68359375 C-21.1696756 13.66281265 -20.2846637 13.64203156 -19.37283325 13.62062073 C-16.54030259 13.55513402 -13.70767775 13.49624438 -10.875 13.4375 C-8.95702143 13.39431394 -7.03905246 13.35069963 -5.12109375 13.30664062 C-0.41415949 13.19945353 4.29286967 13.0981836 9 13 C8.02546875 12.09507813 8.02546875 12.09507813 7.03125 11.171875 C6.1959375 10.37265625 5.360625 9.5734375 4.5 8.75 C3.6646875 7.96109375 2.829375 7.1721875 1.96875 6.359375 C0 4 0 4 0 0 Z " />
<path fill="#FFFFFF" transform="translate(0,15)" d="M0 0 C1.32 0 2.64 0 4 0 C4 1.32 4 2.64 4 4 C2.68 4 1.36 4 0 4 C0 2.68 0 1.36 0 0 Z " />
</svg>
