<svg xmlns="http://www.w3.org/2000/svg" width="256" height="256" fill="none" viewBox="0 0 256 256" id="color-wheel">
  <rect width="256" height="256" fill="#F5F5F5"></rect>
  <path fill="#CEDD39" d="M127.931 32L127.95 59L142.95 67.6358L157.95 76.2716L169.431 56.03L127.931 32Z"></path>
  <path fill="#F5EF3A" d="M210.931 80.06L169.431 56.03L157.95 76.2716L187.95 93.5431L210.931 80.06Z"></path>
  <path fill="#FABB13" d="M210.931 80.06L187.95 93.5431L187.975 128.043L210.965 128.06L210.931 80.06Z"></path>
  <path fill="#F9981C" d="M211 176.06L210.965 128.06L187.975 128.043L188 162.543L211 176.06Z"></path>
  <path fill="#F05524" d="M211 176.06L188 162.543L158.025 179.772L169.535 200.03L211 176.06Z"></path>
  <path fill="#EE2F24" d="M128.069 224L169.535 200.03L158.025 179.772L143.037 188.386L128.05 197L128.069 224Z"></path>
  <path fill="#A91D4C" d="M128.069 224L128.05 197L113.05 188.364L98.05 179.728L86.5691 199.97L128.069 224Z"></path>
  <path fill="#7D3596" d="M45.0691 175.94L86.5691 199.97L98.05 179.728L68.05 162.457L45.0691 175.94Z"></path>
  <path fill="#452F92" d="M45.0691 175.94L68.05 162.457L68.025 127.957L45.0346 127.94L45.0691 175.94Z"></path>
  <path fill="#3D5DAA" d="M45 79.94L45.0346 127.94L68.025 127.957L68 93.4569L45 79.94Z"></path>
  <path fill="#1592CD" d="M45 79.94L68 93.4569L97.975 76.2284L86.4654 55.97L45 79.94Z"></path>
  <path fill="#61B146" d="M127.95 59L127.931 32L86.4654 55.97L97.975 76.2284L112.963 67.6142L127.95 59Z"></path>
  <path fill="#61B146" d="M127.95 59L112.963 67.6142L113.006 127.989L127.931 128L128 128L127.95 59Z"></path>
  <path fill="#A91D4C" d="M113.05 188.364L128.05 197L128 128L127.931 128L113.006 127.989L113.05 188.364Z"></path>
  <path fill="#EE2F24" d="M128.05 197L143.037 188.386L142.994 128.011L128 128L128.05 197Z"></path>
  <path fill="#CEDD39" d="M142.95 67.6358L127.95 59L128 128L142.994 128.011L142.95 67.6358Z"></path>
  <path fill="#61B146" d="M112.963 67.6142L97.975 76.2284L113.006 127.989L112.963 67.6142Z"></path>
  <path fill="#CEDD39" d="M157.95 76.2716L142.95 67.6358L142.994 128.011L157.95 76.2716Z"></path>
  <path fill="#F5EF3A" d="M187.95 93.5431L157.95 76.2716L142.994 128.011L187.95 93.5431Z"></path>
  <path fill="#FABB13" d="M187.975 128.043L187.95 93.5431L142.994 128.011L187.975 128.043Z"></path>
  <path fill="#F9981C" d="M188 162.543L187.975 128.043L142.994 128.011L188 162.543Z"></path>
  <path fill="#F05524" d="M158.025 179.772L188 162.543L142.994 128.011L158.025 179.772Z"></path>
  <path fill="#EE2F24" d="M143.037 188.386L158.025 179.772L142.994 128.011L143.037 188.386Z"></path>
  <path fill="#A91D4C" d="M98.05 179.728L113.05 188.364L113.006 127.989L98.05 179.728Z"></path>
  <path fill="#7D3596" d="M68.05 162.457L98.05 179.728L113.006 127.989L68.05 162.457Z"></path>
  <path fill="#452F92" d="M68.025 127.957L68.05 162.457L113.006 127.989L68.025 127.957Z"></path>
  <path fill="#3D5DAA" d="M68 93.4569L68.025 127.957L113.006 127.989L68 93.4569Z"></path>
  <path fill="#1592CD" d="M97.975 76.2284L68 93.4569L113.006 127.989L97.975 76.2284Z"></path>
  <path fill="#000" fill-opacity=".15" d="M127.95 58L187.95 93.0438L188 163.044L128.05 198L68.05 162.956L68 92.9562L127.95 58Z"></path>
</svg>
