<svg width="40" height="41" fill="none" xmlns="http://www.w3.org/2000/svg"><path d="M19.491 35.88c-4.234 0-4.733-.022-6.386-.094a11.346 11.346 0 0 1-3.76-.773 7.951 7.951 0 0 1-4.527-4.522 11.315 11.315 0 0 1-.722-3.76C4 25.086 4 24.546 4 20.35c0-4.24.022-4.735.096-6.377.026-1.283.27-2.552.722-3.754A7.922 7.922 0 0 1 9.35 5.696a11.259 11.259 0 0 1 3.759-.722c1.644-.093 2.184-.093 6.382-.093 4.27 0 4.76.022 6.386.093 1.288.024 2.565.268 3.77.722a7.945 7.945 0 0 1 4.532 4.523c.46 1.22.706 2.51.725 3.811.096 1.647.096 2.185.096 6.378 0 4.194-.024 4.744-.096 6.372a11.335 11.335 0 0 1-.723 3.762 7.946 7.946 0 0 1-4.534 4.524c-1.205.45-2.477.694-3.763.72-1.644.095-2.182.095-6.393.095zm-.058-28.278c-4.21 0-4.647.02-6.291.094a8.6 8.6 0 0 0-2.875.535 5.148 5.148 0 0 0-2.957 2.942 8.598 8.598 0 0 0-.535 2.9c-.092 1.665-.092 2.102-.092 6.277 0 4.125.016 4.625.092 6.28.015.98.196 1.951.535 2.87a5.148 5.148 0 0 0 2.959 2.942 8.48 8.48 0 0 0 2.873.534c1.666.096 2.105.096 6.29.096 4.223 0 4.66-.02 6.29-.096a8.552 8.552 0 0 0 2.875-.534 5.165 5.165 0 0 0 2.943-2.938 8.61 8.61 0 0 0 .536-2.901h.018c.075-1.643.075-2.082.075-6.28 0-4.2-.02-4.641-.093-6.283a8.689 8.689 0 0 0-.536-2.867 5.158 5.158 0 0 0-2.943-2.942 8.514 8.514 0 0 0-2.875-.535c-1.664-.094-2.1-.094-6.29-.094zm.058 20.687a7.966 7.966 0 0 1-4.422-1.337 7.948 7.948 0 0 1-3.388-8.155 7.942 7.942 0 0 1 2.176-4.07A7.96 7.96 0 0 1 22.53 13a7.955 7.955 0 0 1 3.572 2.926 7.938 7.938 0 0 1 1.343 4.414 7.952 7.952 0 0 1-2.332 5.615 7.976 7.976 0 0 1-5.62 2.333zm0-13.108a5.17 5.17 0 0 0-4.77 3.184 5.15 5.15 0 0 0 1.119 5.619 5.167 5.167 0 0 0 8.815-3.646 5.165 5.165 0 0 0-1.516-3.643 5.18 5.18 0 0 0-3.648-1.514zm8.262-1.225a1.859 1.859 0 0 1-1.31-.547 1.852 1.852 0 0 1 1.324-3.159 1.857 1.857 0 0 1 1.849 1.86 1.851 1.851 0 0 1-1.863 1.846z" fill="#091638"/></svg>