<svg width="261" height="61" fill="none" xmlns="http://www.w3.org/2000/svg"><path d="M19.495 60.126a20.181 20.181 0 0 1-12.409-4.255A19.736 19.736 0 0 1 .021 44.937h16.512v5.96L28.35 40.419 16.533 29.936v5.962H0a19.708 19.708 0 0 1 7.044-11.002 20.155 20.155 0 0 1 12.451-4.28c3.958 0 7.827 1.159 11.118 3.33a19.812 19.812 0 0 1 7.37 8.866 19.52 19.52 0 0 1 1.138 11.413 19.678 19.678 0 0 1-5.477 10.115 19.897 19.897 0 0 1-6.487 4.292 20.104 20.104 0 0 1-7.662 1.494z" fill="#fff"/><path fill-rule="evenodd" clip-rule="evenodd" d="M141.137 26.066v31.058h6.285V33.918c.926.653 10.2 12.904 12.364 15.282 1.958 2.281 5.667 8.276 8.345 8.276 1.958 0 3.092-.424 3.092-3.421V22.809h-6.287v23.2l-13.188-16.39c-1.443-1.826-4.949-6.81-6.8-6.81-1.649 0-3.812-.163-3.812 3.261l.001-.004zM56.189 25.873v31.246h6.187V33.725L78.448 53.73a13.527 13.527 0 0 0 2.678 2.87c1.134.945 3.503 1.498 4.636.03.343-.48.523-1.048.516-1.628V22.809h-6.079v23.393a6.946 6.946 0 0 1-1.237-1.368c-3.914-4.919-9.789-12.707-13.394-16.812-.412-.521-.72-.945-1.237-1.498-2.164-2.87-2.475-3.714-5.362-3.714a3.04 3.04 0 0 0-1.152.272 2.9 2.9 0 0 0-.942.686 2.727 2.727 0 0 0-.575.985 2.628 2.628 0 0 0-.114 1.121l.003-.001zM234.314 57.478a3.268 3.268 0 0 0 1.261-.341 3.106 3.106 0 0 0 1.006-.8 5.184 5.184 0 0 0 .619-2.67v-30.27c0-.456-.205-.586-.619-.586h-5.872v22.612a10.423 10.423 0 0 1-1.958-2.706l-9.375-14.109c-.619-.977-1.134-1.857-1.855-2.834a13.94 13.94 0 0 1-.928-1.4 9.705 9.705 0 0 1-1.029-1.566h-7.425c0 1.01 4.328 6.451 5.152 7.886.309.457.515.717.825 1.14 1.958 2.51 7.315 10.492 9.375 13.522l3.914 5.506a56.742 56.742 0 0 0 4.019 5.54 4.674 4.674 0 0 0 2.887 1.076h.003zM113.864 57.475c.358.014.714-.065 1.03-.228.51-.192.943-.531 1.239-.97.296-.438.44-.953.41-1.473V22.807c-7.52 0-6.49-.553-6.49 2.312v20.104c-.205.065.206.49-.413-.325l-1.339-2.183c-2.369-3.193-5.254-8.048-7.52-11.274l-5.667-8.634h-7.727c.205.618.31.521.72 1.107 2.267 3.421 5.977 8.21 7.837 11.306l5.461 7.852c.301.351.577.721.825 1.108.412.489.515.748.825 1.174l7.424 10.588a4.58 4.58 0 0 0 1.52 1.108 4.816 4.816 0 0 0 1.865.425zM247.404 42.848l9.478-.228-.103-5.702h-9.375v-8.35h11.023v-5.609h-17.309v34.016l17.309.034v-5.667l-11.128-.034.105-8.46zM183.043 28.935l-.206 27.957 5.976.13.103-28.12 9.171.033v-6.13h-24.723v6.13h9.679zM200.246 57.117h6.491V22.813h-6.491v34.304zM45.9 57.107h6.388V22.802H45.9v34.305zM126.937 42.848l9.478-.228-.103-5.702h-9.375v-8.35h11.023v-5.609h-17.309v34.016l17.309.034v-5.667l-11.128-.034.105-8.46z" fill="#fff"/><path d="M32.843 20.467c3.25 0 5.886-2.5 5.886-5.584 0-3.085-2.636-5.585-5.886-5.585-3.251 0-5.887 2.5-5.887 5.585 0 3.084 2.636 5.584 5.887 5.584zM40.696 7.444c1.92 0 3.478-1.477 3.478-3.3 0-1.822-1.557-3.299-3.478-3.299-1.921 0-3.479 1.477-3.479 3.3 0 1.822 1.558 3.3 3.479 3.3zM256.978 13.866c.529 0 1.052.098 1.54.29.488.191.931.472 1.305.827.373.354.669.775.871 1.238.202.463.306.96.306 1.46a3.8 3.8 0 0 1-1.163 2.712 4.23 4.23 0 0 1-2.859 1.104 4.206 4.206 0 0 1-1.539-.29 4.046 4.046 0 0 1-1.305-.827 3.816 3.816 0 0 1-.872-1.238 3.648 3.648 0 0 1 .001-2.919 3.72 3.72 0 0 1 .885-1.227c.367-.36.807-.646 1.293-.84a4.101 4.101 0 0 1 1.537-.29zm2.568 1.405a3.614 3.614 0 0 0-1.177-.746 3.774 3.774 0 0 0-1.391-.257 3.71 3.71 0 0 0-1.377.257 3.552 3.552 0 0 0-1.163.746c-.337.314-.604.69-.786 1.104a3.207 3.207 0 0 0-.272 1.306c-.002.452.09.9.272 1.319.181.418.449.797.786 1.116a3.749 3.749 0 0 0 2.54 1.005 3.815 3.815 0 0 0 2.568-1.005 3.43 3.43 0 0 0 1.059-2.436 3.369 3.369 0 0 0-1.059-2.409z" fill="#fff"/><path d="M256.104 16.024h.371c.502 0 .82 0 1.058.226a.787.787 0 0 1 .265.628.787.787 0 0 1-.265.628c-.238.226-.556.226-1.058.226h-.371v-1.707zm-.502-.451v4.216h.502v-1.606h.371c.212.01.424.001.635-.025l.714 1.632h.529l-.767-1.757a1.29 1.29 0 0 0 .533-.479 1.2 1.2 0 0 0 .181-.675 1.282 1.282 0 0 0-.395-.954 1.975 1.975 0 0 0-.678-.311 2.03 2.03 0 0 0-.752-.041h-.873z" fill="#fff"/></svg>