<svg width="27" height="33" fill="none" xmlns="http://www.w3.org/2000/svg"><g clip-path="url(#a)"><path d="M23.952.051H2.444c-.658.01-1.284.28-1.742.75C.244 1.268-.008 1.9 0 2.553v19.025c-.009.654.243 1.285.701 1.754.459.47 1.085.739 1.743.75H3.91v3.006a.495.495 0 0 0 .49.504H6.74v4.728a.495.495 0 0 0 .491.504h2.056a.501.501 0 0 0 .49-.504v-4.733h1.851v4.733a.495.495 0 0 0 .491.504h2.064a.501.501 0 0 0 .492-.504v-4.732h1.845v4.732a.495.495 0 0 0 .491.504h2.06a.501.501 0 0 0 .49-.504v-4.732h2.445a.504.504 0 0 0 .454-.316.494.494 0 0 0 .034-.191v-2.997h1.463a2.49 2.49 0 0 0 1.742-.749c.458-.47.71-1.1.702-1.753V2.553A2.462 2.462 0 0 0 25.697.8 2.491 2.491 0 0 0 23.952.05zm.01 19.424c.003.391-.149.768-.424 1.048-.274.28-.65.442-1.043.448H3.911a1.495 1.495 0 0 1-1.043-.449 1.477 1.477 0 0 1-.422-1.049V4.05a1.477 1.477 0 0 1 .422-1.048c.274-.28.65-.442 1.043-.448 0 0 18.19-.007 18.585 0 .395.006.771.168 1.046.45.275.281.426.66.42 1.052-.005.393 0 15.42 0 15.42z" fill="#C3C4C5"/><path d="M9.703 10.798a.8.8 0 0 0-.624-.319.806.806 0 0 0-.623.319l-2.95 3.626c-.302.372-.302.97 0 1.343.302.371.789.371 1.09 0l2.481-3.054 3.57 4.396c.166.204.39.328.622.333.242.006.47-.109.64-.318l5.667-6.978v2.44c0 .525.345.95.772.95.427 0 .772-.425.772-.95V7.927c0-.525-.345-.95-.772-.95h-3.782c-.426 0-.771.425-.771.95 0 .525.345.95.771.95h1.858l-5.139 6.33-3.582-4.409z" fill="url(#b)"/></g><defs><linearGradient id="b" x1="5.28" y1="12.21" x2="21.12" y2="12.21" gradientUnits="userSpaceOnUse"><stop stop-color="#393185"/><stop offset="1" stop-color="#E4097F"/></linearGradient><clipPath id="a"><path fill="#fff" d="M0 0h26.4v33H0z"/></clipPath></defs></svg>