<svg width="30" height="30" fill="none" xmlns="http://www.w3.org/2000/svg"><path d="M15 29.07c-.615 0-1.145-.178-1.59-.536a2.073 2.073 0 0 1-.781-1.38h-.962a1.6 1.6 0 0 1-1.168-.499A1.6 1.6 0 0 1 10 25.487v-5.02c-1.724-.954-3.058-2.257-4.002-3.906-.943-1.65-1.415-3.388-1.415-5.215 0-2.912 1.009-5.377 3.025-7.392C9.624 1.937 12.088.929 15 .929c2.913 0 5.377 1.008 7.393 3.025 2.016 2.015 3.024 4.48 3.024 7.392 0 1.84-.472 3.581-1.415 5.224-.944 1.644-2.277 2.943-4.002 3.898v5.019a1.6 1.6 0 0 1-.498 1.168 1.599 1.599 0 0 1-1.168.499h-.962a2.073 2.073 0 0 1-.782 1.38c-.445.358-.975.537-1.59.537zm-3.333-3.583h6.667v-1.628h-6.667v1.628zm0-2.91h6.667v-1.648h-6.667v1.648zm-.333-3.314h2.93v-5.205l-3.475-3.475 1.045-1.044L15 12.705l3.167-3.166 1.045 1.044-3.475 3.475v5.205h2.93a9.124 9.124 0 0 0 3.666-3.188c.945-1.402 1.417-2.979 1.417-4.729 0-2.444-.847-4.514-2.541-6.208C19.514 3.443 17.445 2.596 15 2.596c-2.444 0-4.514.847-6.208 2.542C7.097 6.832 6.25 8.902 6.25 11.346c0 1.75.472 3.326 1.417 4.73a9.125 9.125 0 0 0 3.667 3.187z" fill="#C3C4C5"/><path fill-rule="evenodd" clip-rule="evenodd" d="M11.578 19.263h2.685v-5.205l-3.474-3.475 1.045-1.044L15 12.705l3.167-3.166 1.045 1.044-3.475 3.475v5.205h2.53v.005h-6.689v-.005z" fill="url(#a)"/><defs><linearGradient id="a" x1="10.789" y1="14.404" x2="19.212" y2="14.404" gradientUnits="userSpaceOnUse"><stop stop-color="#393185"/><stop offset="1" stop-color="#E4097F"/></linearGradient></defs></svg>