<svg width="30" height="30" fill="none" xmlns="http://www.w3.org/2000/svg"><rect x="1" y="1" width="28" height="28" rx="1" stroke="#C3C4C5" stroke-width="2"/><path d="M17.643 8.831h.026a.335.335 0 0 1 .107.029l.014-.029-.014.029c.025.012.04.023.047.03l-4.156 5.54-.001.002a.149.149 0 0 1-.057.039l.206.456-.206-.456a.351.351 0 0 1-.136.029.37.37 0 0 1-.072-.009.25.25 0 0 1-.125-.063v-3.264h-2.58a.35.35 0 0 1-.14-.03l-.213.45.213-.45a.175.175 0 0 1-.047-.031l4.152-5.537a.184.184 0 0 1 .088-.05l-.147-.474.147.474a.377.377 0 0 1 .188-.007.251.251 0 0 1 .124.062v3.26h2.582zm-4.867 3.333v2.28c0 .12.05.237.142.333a.745.745 0 0 0 .372.202.87.87 0 0 0 .18.02l-.694-2.835zm2.286-6.6.01-.009-.01.01z" fill="url(#a)" stroke="url(#b)"/><mask id="c" fill="#fff"><rect x="5.123" y="16.667" width="19.756" height="6.768" rx="1"/></mask><rect x="5.123" y="16.667" width="19.756" height="6.768" rx="1" stroke="#C3C4C5" stroke-width="4" mask="url(#c)"/><defs><linearGradient id="a" x1="9.999" y1="10" x2="18.333" y2="10" gradientUnits="userSpaceOnUse"><stop stop-color="#393185"/><stop offset="1" stop-color="#E4097F"/></linearGradient><linearGradient id="b" x1="9.999" y1="10" x2="18.333" y2="10" gradientUnits="userSpaceOnUse"><stop stop-color="#393185"/><stop offset="1" stop-color="#E4097F"/></linearGradient></defs></svg>