<?xml version="1.0" encoding="UTF-8"?>
<svg version="1.1" xmlns="http://www.w3.org/2000/svg" width="24" height="24">
<path d="M0 0 C4.95 0 9.9 0 15 0 C15 1.98 15 3.96 15 6 C17.64 6 20.28 6 23 6 C23 7.32 23 8.64 23 10 C22.01 10 21.02 10 20 10 C20.33 12.31 20.66 14.62 21 17 C19.35 17 17.7 17 16 17 C16 14.69 16 12.38 16 10 C15.34 10 14.68 10 14 10 C14 9.01 14 8.02 14 7 C13.01 7 12.02 7 11 7 C11 10.63 11 14.26 11 18 C8.69 18 6.38 18 4 18 C4 14.37 4 10.74 4 7 C2.68 7 1.36 7 0 7 C0 4.69 0 2.38 0 0 Z " fill="#000000" transform="translate(0,3)"/>
</svg>
