<svg width="21" height="33" fill="none" xmlns="http://www.w3.org/2000/svg"><g clip-path="url(#a)"><path d="M17.705 32.828H2.92c-1.284 0-2.325-.928-2.325-2.062V7.769c0-1.134 1.041-2.063 2.325-2.063h3.228v4.091h8.33v-4.09h3.227c1.284 0 2.325.928 2.325 2.062v22.997c0 1.134-1.041 2.062-2.325 2.062zM2.92 7.047c-.52 0-.972.344-.972.722v22.997c0 .378.452.722.972.722h14.785c.52 0 .972-.344.972-.722V7.769c0-.378-.452-.722-.972-.722H15.83v4.09H4.794v-4.09H2.92z" fill="#C3C4C5"/><path d="M16.525 13.372H4.275v4.331h12.25v-4.331z" fill="url(#b)"/><path d="M17.22 18.356H3.614v-5.672h13.604v5.672zm-12.252-1.34h10.898v-2.991H4.968v2.99z" fill="url(#c)"/><path d="M6.252 20.213H3.684v1.34h2.568v-1.34zM11.7 20.213H9.134v1.34H11.7v-1.34zM17.15 20.213h-2.57v1.34h2.57v-1.34zM6.252 23.066H3.684v1.34h2.568v-1.34zM11.7 23.066H9.134v1.34H11.7v-1.34zM17.15 23.066h-2.57v1.34h2.57v-1.34zM6.252 25.919H3.684v1.34h2.568v-1.34zM11.7 25.919H9.134v1.34H11.7v-1.34zM17.15 25.919h-2.57v1.34h2.57v-1.34zM6.252 28.772H3.684v1.34h2.568v-1.34zM11.7 28.772H9.134v1.34H11.7v-1.34zM17.15 28.772h-2.57v1.34h2.57v-1.34zM15.83 11.103H4.795V.172L7.12 1.719l1.319-1.1 1.874 1.134L11.805.62l1.562 1.134 2.43-1.512v10.862h.034zm-9.682-1.34h8.33V2.646l-1.146.722-1.492-1.1-1.423 1.1-1.874-1.1-1.354 1.134-1.041-.722v7.081z" fill="#C3C4C5"/><path fill-rule="evenodd" clip-rule="evenodd" d="M15.137 10.45H5.489V1.41l1.665 1.134 1.32-1.135 1.873 1.135 1.493-1.135 1.527 1.135 1.77-1.135v9.04zm-2.36-6.016H7.848v1.34h4.929v-1.34zM7.848 7.15h4.929v1.34H7.848V7.15z" fill="#C3C4C5"/><path d="M16.524 9.762H4.066v1.341h12.46v-1.34z" fill="#C3C4C5"/></g><defs><linearGradient id="b" x1="4.274" y1="15.537" x2="16.525" y2="15.537" gradientUnits="userSpaceOnUse"><stop stop-color="#393185"/><stop offset="1" stop-color="#E4097F"/></linearGradient><linearGradient id="c" x1="3.615" y1="15.52" x2="17.219" y2="15.52" gradientUnits="userSpaceOnUse"><stop stop-color="#393185"/><stop offset="1" stop-color="#E4097F"/></linearGradient><clipPath id="a"><path fill="#fff" d="M0 0h20.625v33H0z"/></clipPath></defs></svg>