<svg width="50" height="37" viewBox="0 0 50 37" fill="none" xmlns="http://www.w3.org/2000/svg">
<path d="M40.5957 36.6121C43.5679 35.9684 46.2887 33.9532 48.0589 31.0843C49.8649 28.1584 50.446 24.7125 49.6533 21.6295C48.509 17.1801 44.8612 14.7751 42.7891 13.7366C41.1507 12.9162 40.1367 11.2706 40.2058 9.54596C40.2132 9.37667 40.227 9.22854 40.2408 9.10565C40.6543 5.57995 44.254 2.51571 48.9949 1.65301C49.4287 1.57487 49.7257 1.17201 49.6736 0.734146C49.6232 0.313374 49.2659 3.05176e-05 48.8467 3.05176e-05C48.8305 3.05176e-05 48.8142 0.000846863 48.7971 0.00165939C45.9209 0.169319 36.0762 1.38036 30.1757 9.9179C26.0322 15.9129 23.6801 25.1894 28.3062 31.3903C30.8251 34.7679 35.5993 37.6921 40.5957 36.6121ZM31.5462 10.8652C34.4005 6.73647 38.3429 4.4568 41.7807 3.19855C39.9926 4.762 38.8393 6.74379 38.5854 8.91276C38.5667 9.07065 38.5496 9.25947 38.5407 9.47759C38.4446 11.8574 39.8192 14.1142 42.0427 15.2276C44.2646 16.3402 47.1083 18.4261 48.0386 22.0446C48.7198 24.6905 48.2095 27.6669 46.6411 30.2094C45.107 32.695 42.7752 34.435 40.2425 34.9828C39.6589 35.1097 39.0746 35.1683 38.4967 35.1683C34.8733 35.1683 31.4787 32.8561 29.6426 30.3941C24.883 24.0134 28.8067 14.8296 31.5462 10.8652Z" fill="url(#paint0_linear_2321_6091)"/>
<path d="M14.8263 36.6122C17.7986 35.9684 20.5186 33.9541 22.2887 31.0852C24.0947 28.1593 24.6766 24.7125 23.8839 21.6296C22.7388 17.1801 19.0918 14.7743 17.0197 13.7366C15.3806 12.9162 14.3665 11.2706 14.4365 9.54598C14.4438 9.37832 14.456 9.23183 14.4715 9.10568C14.8849 5.57998 18.4847 2.51574 23.2255 1.65303C23.6593 1.5749 23.9564 1.17204 23.9043 0.734173C23.8538 0.3134 23.4965 5.72205e-05 23.0774 5.72205e-05C23.0611 5.72205e-05 23.0448 0.000873566 23.0277 0.0016861C20.1515 0.169346 10.3069 1.38039 4.40629 9.91792C0.262863 15.9121 -2.09005 25.1886 2.53683 31.3904C5.05576 34.7679 9.83402 37.6905 14.8263 36.6122ZM5.77686 10.8653C8.63111 6.73649 12.5727 4.45765 16.0097 3.19858C14.2224 4.76122 13.0708 6.74219 12.816 8.90872C12.7973 9.06742 12.7802 9.25787 12.7713 9.47762C12.6744 11.8566 14.0491 14.1134 16.2734 15.2276C18.4944 16.3394 21.3381 18.4253 22.2692 22.0446C22.9496 24.6914 22.4401 27.6677 20.871 30.2102C19.3368 32.695 17.0051 34.4351 14.4731 34.9828C13.8895 35.1098 13.306 35.1684 12.7273 35.1684C9.10397 35.1684 5.70849 32.8561 3.87321 30.3942C-0.887142 24.0126 3.03736 14.8297 5.77686 10.8653Z" fill="white"/>
<path d="M14.8263 36.6122C17.7986 35.9684 20.5186 33.9541 22.2887 31.0852C24.0947 28.1593 24.6766 24.7125 23.8839 21.6296C22.7388 17.1801 19.0918 14.7743 17.0197 13.7366C15.3806 12.9162 14.3665 11.2706 14.4365 9.54598C14.4438 9.37832 14.456 9.23183 14.4715 9.10568C14.8849 5.57998 18.4847 2.51574 23.2255 1.65303C23.6593 1.5749 23.9564 1.17204 23.9043 0.734173C23.8538 0.3134 23.4965 5.72205e-05 23.0774 5.72205e-05C23.0611 5.72205e-05 23.0448 0.000873566 23.0277 0.0016861C20.1515 0.169346 10.3069 1.38039 4.40629 9.91792C0.262863 15.9121 -2.09005 25.1886 2.53683 31.3904C5.05576 34.7679 9.83402 37.6905 14.8263 36.6122ZM5.77686 10.8653C8.63111 6.73649 12.5727 4.45765 16.0097 3.19858C14.2224 4.76122 13.0708 6.74219 12.816 8.90872C12.7973 9.06742 12.7802 9.25787 12.7713 9.47762C12.6744 11.8566 14.0491 14.1134 16.2734 15.2276C18.4944 16.3394 21.3381 18.4253 22.2692 22.0446C22.9496 24.6914 22.4401 27.6677 20.871 30.2102C19.3368 32.695 17.0051 34.4351 14.4731 34.9828C13.8895 35.1098 13.306 35.1684 12.7273 35.1684C9.10397 35.1684 5.70849 32.8561 3.87321 30.3942C-0.887142 24.0126 3.03736 14.8297 5.77686 10.8653Z" fill="black" fill-opacity="0.2"/>
<defs>
<linearGradient id="paint0_linear_2321_6091" x1="50" y1="18.4201" x2="25.77" y2="18.4201" gradientUnits="userSpaceOnUse">
<stop stop-color="#393185"/>
<stop offset="1" stop-color="#E4097F"/>
</linearGradient>
</defs>
</svg>
