<svg width="24" height="24" viewBox="0 0 24 24" fill="none" xmlns="http://www.w3.org/2000/svg">
<path d="M15.5 1.5C15.8978 1.5 16.2794 1.65804 16.5607 1.93934C16.842 2.22064 17 2.60218 17 3V21C17 21.3978 16.842 21.7794 16.5607 22.0607C16.2794 22.342 15.8978 22.5 15.5 22.5H6.5C6.10218 22.5 5.72064 22.342 5.43934 22.0607C5.15804 21.7794 5 21.3978 5 21V3C5 2.60218 5.15804 2.22064 5.43934 1.93934C5.72064 1.65804 6.10218 1.5 6.5 1.5H15.5ZM6.5 0C5.70435 0 4.94129 0.316071 4.37868 0.87868C3.81607 1.44129 3.5 2.20435 3.5 3V21C3.5 21.7956 3.81607 22.5587 4.37868 23.1213C4.94129 23.6839 5.70435 24 6.5 24H15.5C16.2956 24 17.0587 23.6839 17.6213 23.1213C18.1839 22.5587 18.5 21.7956 18.5 21V3C18.5 2.20435 18.1839 1.44129 17.6213 0.87868C17.0587 0.316071 16.2956 0 15.5 0L6.5 0Z" fill="#A6A6A6"/>
<path d="M11 21C11.3978 21 11.7794 20.842 12.0607 20.5607C12.342 20.2794 12.5 19.8978 12.5 19.5C12.5 19.1022 12.342 18.7206 12.0607 18.4393C11.7794 18.158 11.3978 18 11 18C10.6022 18 10.2206 18.158 9.93934 18.4393C9.65804 18.7206 9.5 19.1022 9.5 19.5C9.5 19.8978 9.65804 20.2794 9.93934 20.5607C10.2206 20.842 10.6022 21 11 21Z" fill="url(#paint0_linear_2275_4110)"/>
<defs>
<linearGradient id="paint0_linear_2275_4110" x1="9.5" y1="19.5" x2="12.5" y2="19.5" gradientUnits="userSpaceOnUse">
<stop stop-color="#393185"/>
<stop offset="1" stop-color="#E4097F"/>
</linearGradient>
</defs>
</svg>
