<svg width="60" height="60" viewBox="0 0 60 60" fill="none" xmlns="http://www.w3.org/2000/svg">
<path d="M15.2128 35.2204C14.9595 34.2825 14.7817 33.5802 14.6616 32.6334C14.5416 31.6955 14.4883 30.562 14.4883 28.7795V21.1074V17.387C14.4883 16.4002 14.8661 15.5023 15.4751 14.8533C16.084 14.1999 16.9286 13.7954 17.8532 13.7954H18.9111V5.32321C18.9111 4.58978 19.2089 3.92303 19.6934 3.43852C20.1779 2.95846 20.8446 2.66064 21.5781 2.66064H37.4912H40.0204H40.0471H40.0738C41.6962 2.66064 42.5941 2.71843 43.2164 3.3274C43.8431 3.93636 43.932 4.8387 43.932 6.51892V8.97701C43.932 9.41706 43.5764 9.77711 43.1319 9.77711H40.8161V13.7954H41.5451C42.4741 13.7954 43.3186 14.1999 43.9276 14.8578C44.541 15.5112 44.9188 16.4135 44.9188 17.4003V28.8151C45.0566 30.4998 45.0122 31.8555 44.8655 33.0156C44.7144 34.2069 44.4654 35.1804 44.1943 36.1005C42.8697 40.6122 42.9497 44.5904 43.0386 49.031C43.0608 50.2534 43.0875 51.5024 43.0875 52.6226C43.0875 52.6359 43.0875 52.6448 43.0875 52.6581C43.1275 54.1339 42.8119 55.294 42.0874 56.0986C41.3539 56.9165 40.2516 57.3254 38.7314 57.2765H20.4535C20.4402 57.2765 20.4313 57.2765 20.4179 57.2765C18.9733 57.3165 17.9776 56.8987 17.3242 56.1208C16.6752 55.3474 16.413 54.2628 16.4174 52.9649V44.5193C16.4174 42.5813 16.3596 41.1633 16.1863 39.7898C16.0085 38.4163 15.7062 37.0517 15.2128 35.2204ZM40.8161 4.26085V5.12318V8.17691H42.3318V6.51892C42.3318 5.28765 42.3007 4.66535 42.1007 4.46976C41.954 4.32308 41.5406 4.27418 40.8161 4.26085ZM37.4912 4.2564H21.5781C21.2847 4.2564 21.018 4.37642 20.8269 4.572C20.6313 4.76758 20.5113 5.03428 20.5113 5.32321V13.5687H39.2248V5.12763V4.2564H37.4912ZM15.964 32.4422C16.0707 33.2779 16.2396 33.9402 16.4796 34.8336C16.9864 36.7139 17.2975 38.1363 17.4842 39.6031C17.6709 41.07 17.7331 42.5413 17.7331 44.5193V52.9649V52.9693C17.7287 53.9339 17.8932 54.6984 18.3021 55.1874C18.6933 55.6541 19.36 55.9075 20.3779 55.8763C20.4001 55.8719 20.4268 55.8719 20.4535 55.8719H38.7358V55.8763H38.758C39.8915 55.9163 40.6739 55.6541 41.145 55.134C41.6117 54.614 41.8118 53.7916 41.7807 52.7026C41.7762 52.6759 41.7762 52.6493 41.7762 52.6226C41.7762 51.2713 41.754 50.1512 41.7318 49.0577C41.6429 44.4927 41.5584 40.4032 42.9452 35.6826C43.1986 34.8159 43.4342 33.9091 43.5676 32.8334C43.7009 31.7577 43.7409 30.5042 43.6164 28.9351C43.6076 28.8951 43.6076 28.8507 43.6076 28.8107V17.4003C43.6076 16.7913 43.3764 16.2402 43.003 15.8446C42.6297 15.4489 42.1185 15.2 41.5495 15.2H40.4649H27.6811H17.8532C17.2886 15.2 16.7775 15.4445 16.4085 15.8401C16.0351 16.2357 15.8084 16.7869 15.8084 17.3914V21.1119V28.784C15.8084 30.5175 15.8573 31.5932 15.964 32.4422Z" fill="white"/>
<path d="M22.3017 9.23045H37.5437V10.6929H22.3017V9.23045ZM22.2617 5.87891H24.4931V7.34132H22.2617V5.87891ZM26.6534 5.87891H37.5437V7.34132H26.6534V5.87891Z" fill="white"/>
<path d="M19.7476 18.3782H39.7501C40.0879 18.3782 40.3902 18.5249 40.6125 18.7604C40.8169 18.9783 40.9458 19.2805 40.9458 19.605V28.4239C40.9458 28.7484 40.8169 29.0506 40.6125 29.2685C40.5902 29.2951 40.5636 29.3173 40.5369 29.3396C40.3235 29.5352 40.0479 29.6507 39.7457 29.6507H19.7431C19.4053 29.6507 19.103 29.504 18.8808 29.2685C18.6719 29.0462 18.543 28.7484 18.543 28.4239V19.605C18.543 19.2805 18.6719 18.9827 18.8808 18.7604C19.1075 18.5249 19.4097 18.3782 19.7476 18.3782ZM39.3634 19.965H20.1343V28.0639H39.3634V19.965Z" fill="url(#paint0_linear_2783_2041)"/>
<path d="M27.5258 48.0486H31.9664V52.9515H27.5258V48.0486ZM20.4805 32.5889H24.921V37.4917H20.4805V32.5889ZM27.5258 32.5889H31.9664V37.4917H27.5258V32.5889ZM34.5712 32.5889H39.0117V37.4917H34.5712V32.5889ZM34.5712 40.3187H39.0117V52.9292H34.5712V40.3187ZM27.5258 40.3187H31.9664V45.2216H27.5258V40.3187ZM20.4805 40.3187H24.921V45.2216H20.4805V40.3187ZM20.4805 48.0486H24.921V52.9515H20.4805V48.0486Z" fill="white"/>
<defs>
<linearGradient id="paint0_linear_2783_2041" x1="18.543" y1="24.0144" x2="40.9458" y2="24.0144" gradientUnits="userSpaceOnUse">
<stop stop-color="#393185"/>
<stop offset="1" stop-color="#E4097F"/>
</linearGradient>
</defs>
</svg>
