<svg width="50" height="50" viewBox="0 0 50 50" fill="none" xmlns="http://www.w3.org/2000/svg">
<path d="M37.6721 25.1417L33.5002 21.2094L28.6106 25.7615C28.4145 25.9444 28.1554 26.0447 27.8873 26.0414C27.6191 26.0381 27.3626 25.9315 27.171 25.7438L10.921 9.80942C10.7283 9.61505 10.6199 9.35265 10.6191 9.07896C10.6184 8.80528 10.7254 8.54228 10.917 8.34685C11.1086 8.15141 11.3694 8.03924 11.6431 8.03458C11.9167 8.02991 12.1812 8.13313 12.3794 8.32193L27.9189 23.5594L32.7939 19.0198C32.9875 18.8397 33.2423 18.7398 33.5067 18.7406C33.7712 18.7414 34.0254 18.8427 34.2179 19.024L39.1721 23.6928L40.7387 22.1803C40.8083 22.1129 40.8953 22.0663 40.9899 22.0456C41.0846 22.025 41.1831 22.0311 41.2744 22.0634C41.3657 22.0956 41.4462 22.1527 41.5069 22.2282C41.5676 22.3036 41.606 22.3946 41.6179 22.4907L42.2637 27.6573C42.274 27.7376 42.2654 27.8192 42.2386 27.8956C42.2118 27.972 42.1676 28.041 42.1095 28.0974C42.0513 28.1537 41.9809 28.1957 41.9037 28.22C41.8265 28.2443 41.7447 28.2503 41.6648 28.2376L36.5221 27.4105C36.4266 27.3951 36.3374 27.3534 36.2643 27.2902C36.1912 27.2269 36.1371 27.1446 36.1081 27.0524C36.0791 26.9602 36.0764 26.8617 36.1002 26.768C36.124 26.6743 36.1734 26.5891 36.2429 26.5219L37.6721 25.1417Z" fill="url(#paint0_linear_2589_528)"/>
<path d="M33.44 45.8334C33.3686 45.8407 33.2967 45.8407 33.2254 45.8334H7.29414C6.46476 45.8326 5.66959 45.5027 5.08314 44.9163C4.49668 44.3298 4.16684 43.5346 4.16602 42.7053V7.29484C4.16602 7.01857 4.27576 6.75362 4.47111 6.55827C4.66646 6.36292 4.93141 6.25317 5.20768 6.25317C5.48395 6.25317 5.7489 6.36292 5.94425 6.55827C6.1396 6.75362 6.24935 7.01857 6.24935 7.29484V42.7053C6.24935 43.2792 6.71914 43.75 7.29414 43.75H10.416V26.0365C10.416 24.8907 11.3493 23.9584 12.4889 23.9584H16.6764C17.8212 23.9584 18.7493 24.8938 18.7493 26.0365V43.75H20.8327V31.2448C20.8327 30.099 21.766 29.1667 22.9056 29.1667H27.0931C28.2379 29.1667 29.166 30.1021 29.166 31.2448V43.75H32.291V35.4115C32.291 34.2657 33.2243 33.3334 34.3639 33.3334H38.5514C39.6962 33.3334 40.6244 34.2688 40.6244 35.4115V43.75H44.7879C45.0642 43.75 45.3291 43.8598 45.5245 44.0551C45.7198 44.2505 45.8296 44.5154 45.8296 44.7917C45.8296 45.068 45.7198 45.3329 45.5245 45.5283C45.3291 45.7236 45.0642 45.8334 44.7879 45.8334H39.69C39.6186 45.8407 39.5467 45.8407 39.4754 45.8334H33.44ZM38.541 43.75V35.4167C38.541 35.4167 34.3743 35.4167 34.3743 35.4136V43.75H38.541ZM27.0827 43.75V31.25C27.0827 31.25 22.916 31.25 22.916 31.2469V43.75H27.0827ZM16.666 43.75V26.0417C16.666 26.0417 12.4993 26.0417 12.4993 26.0386V43.75H16.666Z" fill="#A6A6A6"/>
<defs>
<linearGradient id="paint0_linear_2589_528" x1="7.80223" y1="96.0522" x2="39.6098" y2="95.5204" gradientUnits="userSpaceOnUse">
<stop stop-color="#693185"/>
<stop offset="1" stop-color="#E73970"/>
</linearGradient>
</defs>
</svg>
