<svg width="26" height="26" viewBox="0 0 26 26" fill="none" xmlns="http://www.w3.org/2000/svg">
<g opacity="0.8">
<path d="M10.173 24C13.2143 24 15.936 22.0096 16.9423 19.0453C17.0322 18.7802 17.0166 18.4891 16.8988 18.2359C16.781 17.9828 16.5707 17.7884 16.3141 17.6954C16.0576 17.6025 15.7758 17.6187 15.5308 17.7404C15.2857 17.8621 15.0976 18.0794 15.0076 18.3444C14.7328 19.1501 14.2734 19.8751 13.6686 20.4575C13.0638 21.0399 12.3316 21.4625 11.5344 21.6891C10.7372 21.9157 9.89884 21.9396 9.09078 21.7588C8.28272 21.578 7.52902 21.1979 6.89402 20.6508C6.25902 20.1038 5.76159 19.4061 5.4442 18.6173C5.12682 17.8285 4.99891 16.9721 5.07138 16.1212C5.14386 15.2703 5.41458 14.4501 5.86042 13.7307C6.30627 13.0114 6.91399 12.4141 7.63171 11.9901C7.75189 11.923 7.85787 11.8317 7.94341 11.7217C8.02896 11.6116 8.09235 11.485 8.12985 11.3493C8.16735 11.2136 8.17821 11.0715 8.16178 10.9314C8.14536 10.7913 8.10198 10.656 8.0342 10.5334C7.96643 10.4109 7.87562 10.3036 7.76712 10.2178C7.65862 10.1321 7.53462 10.0696 7.4024 10.0341C7.27019 9.99855 7.13244 9.9907 6.99725 10.011C6.86206 10.0313 6.73216 10.0793 6.61519 10.1522C5.51827 10.8023 4.60655 11.7396 3.97188 12.8696C3.3372 13.9997 3.00198 15.2826 3 16.5891C3 20.6757 6.2176 24 10.173 24Z" fill="white"/>
<path d="M11.683 8.05064C11.4317 8.13463 11.224 8.31493 11.1056 8.55196C10.9871 8.78899 10.9675 9.06337 11.0511 9.31484L13.0507 15.3157C13.1887 15.7238 13.5706 15.9999 14.0005 15.9999H19.2796L21.0493 21.3167C21.1341 21.5683 21.3151 21.7761 21.5527 21.8946C21.7903 22.013 22.0651 22.0325 22.317 21.9488C22.5683 21.8648 22.776 21.6845 22.8944 21.4474C23.0129 21.2104 23.0325 20.936 22.9489 20.6846L20.9493 14.6837C20.8824 14.4846 20.7547 14.3115 20.5844 14.1888C20.414 14.0661 20.2094 13.9999 19.9995 13.9995H14.7204L14.0545 11.9992H17.9998C18.265 11.9992 18.5193 11.8939 18.7068 11.7063C18.8943 11.5187 18.9996 11.2643 18.9996 10.9991C18.9996 10.7338 18.8943 10.4794 18.7068 10.2919C18.5193 10.1043 18.265 9.99894 17.9998 9.99894H13.3867L12.9487 8.68274C12.8639 8.43157 12.6832 8.22415 12.4461 8.10573C12.209 7.98731 11.9346 7.96751 11.683 8.05064Z" fill="white"/>
<path d="M10.5 7C11.8807 7 13 5.88071 13 4.5C13 3.11929 11.8807 2 10.5 2C9.11929 2 8 3.11929 8 4.5C8 5.88071 9.11929 7 10.5 7Z" fill="white"/>
</g>
</svg>
