<svg width="917" height="150" viewBox="0 0 917 150" fill="none" xmlns="http://www.w3.org/2000/svg">
<path d="M411.366 14.2471L411.36 14.2462C411.362 10.6112 411.938 7.97283 412.878 6.05426C413.816 4.14231 415.126 2.92232 416.645 2.13461C418.175 1.34146 419.936 0.976974 421.779 0.814969C423.307 0.680695 424.861 0.687136 426.369 0.693386C426.684 0.694693 426.998 0.695993 427.308 0.695993C428.199 0.695993 429.228 0.997423 430.379 1.58122C431.527 2.16322 432.767 3.01104 434.069 4.06708C436.675 6.17954 439.487 9.0888 442.258 12.2605C446.25 16.8288 450.12 21.8962 453.144 25.8558C454.323 27.3991 455.373 28.7741 456.252 29.8857L456.255 29.8891L513.148 100.595L514.037 101.7V100.281V0.695993H540.161V134.995C540.161 141.427 538.939 144.929 536.822 146.855C534.698 148.788 531.544 149.256 527.322 149.256C524.607 149.256 521.553 147.728 518.32 145.169C515.101 142.621 511.779 139.11 508.537 135.271C505.297 131.435 502.151 127.29 499.282 123.481C499.059 123.185 498.837 122.89 498.618 122.598C496.017 119.143 493.657 116.008 491.698 113.725L491.694 113.72L491.689 113.714C487.425 109.029 476.72 95.401 465.97 81.7161C464.992 80.471 464.014 79.2255 463.04 77.9862C457.206 70.5626 451.537 63.3684 447.075 57.854C444.845 55.0971 442.914 52.7568 441.414 51.0163C440.664 50.1463 440.019 49.4227 439.497 48.8705C438.984 48.3287 438.562 47.9223 438.266 47.7139L437.478 47.1595V48.1228V147.736H411.366V14.2471Z" stroke="#45474E"/>
<path d="M44.8858 13.4131V12.6225L44.8122 12.6575C44.7458 11.3338 44.9231 10.0072 45.3384 8.73745C45.8273 7.2424 46.6361 5.857 47.7158 4.66817C48.7956 3.47928 50.1233 2.51246 51.6171 1.82921C53.1083 1.14719 54.7323 0.762749 56.3882 0.700492C62.5592 0.701397 65.872 1.60434 68.8018 3.95815C70.286 5.15056 71.6899 6.73013 73.3162 8.80371C74.3025 10.0612 75.3585 11.4842 76.558 13.1006C77.3412 14.1561 78.1857 15.294 79.1118 16.5221L79.1277 16.5432L79.1457 16.5625C80.898 18.4371 82.0838 19.9587 83.3911 21.636C83.7339 22.0758 84.085 22.5264 84.4569 22.9968L84.4649 23.007L84.4735 23.0167C95.1363 35.1583 110.403 54.7718 124.396 72.7493C130.794 80.9696 136.926 88.8477 142.23 95.5131C143.75 97.7271 145.572 99.7401 147.647 101.5L148.47 102.198V101.118V0.694824H173.693L173.693 139.079L173.693 139.086C173.724 141.478 172.984 143.824 171.567 145.81C169.26 148.791 165.681 149.752 162.012 149.446C158.334 149.139 154.654 147.561 152.288 145.589L152.281 145.583C147.855 142.038 143.997 137.904 140.825 133.309L140.815 133.294L140.804 133.28L71.4665 46.9756L70.5767 45.8681V47.2888V147.712H44.8858V13.4131Z" stroke="#45474E"/>
<path d="M700.609 1.06536C700.563 0.927819 700.526 0.803068 700.498 0.690674H731.652C732.884 2.98941 734.333 5.17713 735.981 7.22692C737.194 9.31983 738.535 11.3428 739.998 13.2856C742.381 16.5174 744.238 19.4978 746.191 22.6304C746.773 23.5639 747.363 24.511 747.978 25.4822L747.978 25.4823L747.984 25.4915L788.412 86.3354C790.583 90.663 793.461 94.6365 796.939 98.1087L797.792 98.9606V97.7549V0.701922H822.625C823.489 0.701922 823.999 0.843741 824.3 1.10645C824.585 1.35447 824.794 1.81003 824.794 2.73414V133.319V133.329L824.794 133.339C824.954 137.227 824.064 141.091 822.208 144.563C821.084 145.917 819.672 147.036 818.063 147.845C816.443 148.659 814.661 149.142 812.831 149.261C808.364 149.15 804.083 147.557 800.733 144.765C794.485 137.157 788.718 129.206 783.461 120.952L783.454 120.941L783.446 120.931L766.566 97.1868C766.565 97.1853 766.564 97.1839 766.563 97.1824C765.22 95.206 763.551 92.7397 761.655 89.9395C751.025 74.2378 733.287 48.0367 726.106 38.8293C725.719 38.3009 725.371 37.8327 725.039 37.3871C724.225 36.2916 723.511 35.3321 722.572 33.9474C721.666 32.3715 719.821 29.7292 717.583 26.6073C716.672 25.3359 715.694 23.9838 714.684 22.5866C713.195 20.5263 711.635 18.368 710.111 16.226C707.556 12.634 705.119 9.10855 703.322 6.21234C702.423 4.76354 701.69 3.4817 701.183 2.43329C700.93 1.90906 700.737 1.45115 700.609 1.06536Z" stroke="#45474E"/>
<path d="M293.224 149.251L293.217 149.25C290.497 149.183 287.822 148.574 285.368 147.463C282.923 146.356 280.752 144.776 278.994 142.826L246.982 97.1697L246.982 97.1696L246.977 97.1626C246.478 96.4759 246.109 95.8965 245.736 95.3122C245.619 95.1285 245.502 94.9443 245.38 94.7561C244.876 93.9771 244.312 93.1582 243.418 92.095C242.345 90.4239 241.153 88.8245 239.851 87.3082L216.316 53.4672C212.291 46.7723 206.276 38.2576 200.057 29.5869C199.07 28.2112 198.078 26.8315 197.088 25.4543C191.826 18.1364 186.615 10.889 182.504 4.68632L182.505 4.68622L182.497 4.67526C181.845 3.74705 181.349 3.18423 180.97 2.75417C180.826 2.59145 180.7 2.44773 180.587 2.31042C180.266 1.91701 180.003 1.51166 179.687 0.685033H212.044L236.345 37.7114L236.349 37.718L236.353 37.7245C240.618 43.7952 245.392 51.2068 250.276 58.7868C250.981 59.8818 251.689 60.9803 252.398 62.0788C258.003 70.7671 263.674 79.453 268.792 86.353L274.558 95.7542L274.571 95.7755L274.586 95.7954C275.249 96.6684 275.635 97.2073 275.854 97.5197C275.911 97.601 275.962 97.6741 276.002 97.7326C276.035 97.7797 276.061 97.8173 276.079 97.8421L276.079 97.8432C276.097 97.8675 276.127 97.9109 276.159 97.9458C276.168 97.9563 276.187 97.9764 276.212 97.9981L276.213 97.9988C276.229 98.0122 276.297 98.0705 276.403 98.1008C276.466 98.1186 276.568 98.1342 276.686 98.0987C276.811 98.0609 276.901 97.9812 276.956 97.9003C277.041 97.7744 277.043 97.6483 277.043 97.6251L277.043 97.6233C277.044 97.5591 277.032 97.5047 277.03 97.4957L277.03 97.4948C277.026 97.4768 277.021 97.4595 277.019 97.4496L277.014 97.4333C277.01 97.4166 277.007 97.4031 277.003 97.3864C276.999 97.3715 276.996 97.3578 276.994 97.3453L277.263 97.2595V96.894V10.1621C277.263 8.62338 277.195 7.31148 277.138 6.20355L277.135 6.15792C277.077 5.0306 277.032 4.14088 277.075 3.41736C277.118 2.6952 277.247 2.2058 277.484 1.85017C277.714 1.50688 278.087 1.22744 278.751 1.01337C279.426 0.795854 280.365 0.658021 281.677 0.581225C282.983 0.504729 284.627 0.490157 286.699 0.505398C288.093 0.515655 289.68 0.539444 291.482 0.566464C294.911 0.617864 299.12 0.680957 304.265 0.684844V138.226V138.24L304.266 138.254C304.385 140.385 303.797 142.501 302.581 144.303C301.363 146.105 299.578 147.504 297.471 148.298L297.444 148.308L297.418 148.321C296.136 148.984 294.686 149.305 293.224 149.251ZM276.988 97.2757C276.988 97.2759 276.988 97.2761 276.988 97.2764L276.988 97.2757Z" stroke="#45474E"/>
<path d="M869.304 86.1463L868.822 86.1579L868.816 86.64L868.365 123.138L868.359 123.643L868.864 123.644L916.373 123.789V147.24L842.698 147.095V1.34277H916.373V24.5397H869.316H868.816V25.0397V61.0649V61.5649H869.316H909.271L909.697 85.1735L869.304 86.1463Z" stroke="#45474E"/>
<path d="M592.154 26.6297L592.158 26.126H591.654H550.398V0.678223H656.055V26.1242L616.995 25.9854L616.495 25.9836L616.493 26.4835L616.05 147.285L591.269 146.745L592.154 26.6297Z" stroke="#45474E"/>
<path d="M693.373 0.71167V147.707H666.372V0.71167H693.373Z" stroke="#45474E"/>
<path d="M27.0568 0.665527V147.661H0.5V0.665527H27.0568Z" stroke="#45474E"/>
<path d="M349.591 86.1463L349.109 86.1579L349.103 86.64L348.653 123.138L348.646 123.643L349.151 123.644L396.66 123.789V147.24L322.985 147.095V1.34277H396.66V24.5397H349.603H349.103V25.0397V61.0649V61.5649H349.603H389.558L389.985 85.1735L349.591 86.1463Z" stroke="#45474E"/>
</svg>
