<svg width="40" height="40" fill="none" xmlns="http://www.w3.org/2000/svg"><path fill-rule="evenodd" clip-rule="evenodd" d="M16.724 15.555h5.695v2.713c.82-1.56 2.924-2.963 6.085-2.963 6.058 0 7.496 3.107 7.496 8.806v10.556h-6.133v-9.258c0-3.245-.82-5.076-2.909-5.076-2.896 0-4.1 1.973-4.1 5.075v9.259h-6.134V15.555zM6.207 34.417h6.134V15.305H6.207v19.112zM13.22 9.073c0 .492-.101.98-.3 1.433a3.707 3.707 0 0 1-.854 1.21 4.04 4.04 0 0 1-2.791 1.098 4.066 4.066 0 0 1-2.788-1.096 3.732 3.732 0 0 1-.852-1.212c-.197-.454-.3-.94-.3-1.433 0-.992.413-1.943 1.154-2.644a4.055 4.055 0 0 1 2.788-1.096 4.06 4.06 0 0 1 2.789 1.096 3.643 3.643 0 0 1 1.154 2.644z" fill="#091638"/></svg>