<svg width="165" height="38" viewBox="0 0 165 38" fill="none" xmlns="http://www.w3.org/2000/svg">
<path d="M12.3372 37.5147C9.48723 37.5148 6.72052 36.5661 4.48425 34.822C2.24798 33.0778 0.672841 30.6401 0.013424 27.9029H10.4623V31.6748L17.9413 25.0429L10.4623 18.4097V22.1822H0C0.645765 19.4306 2.21723 16.9763 4.4579 15.2199C6.69857 13.4636 9.47611 12.5089 12.3372 12.5117C14.8417 12.5118 17.29 13.2451 19.3724 14.6188C21.4548 15.9925 23.0778 17.945 24.0362 20.2294C24.9946 22.5137 25.2453 25.0273 24.7566 27.4524C24.268 29.8774 23.0619 32.1049 21.2909 33.8533C20.1178 35.0177 18.7224 35.9409 17.1855 36.5694C15.6486 37.1979 14.0007 37.5192 12.3372 37.5147Z" fill="white"/>
<path fill-rule="evenodd" clip-rule="evenodd" d="M89.3153 15.9603V35.6145H93.2923V20.9294C93.8787 21.3421 99.7471 29.0953 101.117 30.6001C102.355 32.0437 104.703 35.8374 106.398 35.8374C107.637 35.8374 108.354 35.5691 108.354 33.6723V13.8992H104.376V28.5803L96.0303 18.2088C95.1167 17.0532 92.8982 13.8992 91.7271 13.8992C90.6831 13.8992 89.3145 13.796 89.3145 15.9628L89.3153 15.9603Z" fill="white"/>
<path fill-rule="evenodd" clip-rule="evenodd" d="M35.5577 15.8381V35.6112H39.4729V20.8072L49.6436 33.4667C50.1129 34.1466 50.6838 34.7583 51.3384 35.2827C52.0562 35.8811 53.5553 36.2311 54.2722 35.3025C54.4894 34.9985 54.6033 34.6387 54.5985 34.2715V13.8992H50.752V28.7032C50.4518 28.4486 50.1885 28.1575 49.969 27.8373C47.492 24.7246 43.7743 19.796 41.4931 17.1984C41.2321 16.8682 41.0372 16.6 40.7101 16.25C39.3406 14.4341 39.144 13.9 37.3169 13.9C37.0641 13.9093 36.8159 13.9679 36.5879 14.0722C36.36 14.1765 36.1571 14.3241 35.9919 14.506C35.8267 14.6879 35.7027 14.9001 35.6277 15.1294C35.5527 15.3588 35.5283 15.6003 35.556 15.8389L35.5577 15.8381Z" fill="white"/>
<path fill-rule="evenodd" clip-rule="evenodd" d="M148.28 35.8382C148.559 35.8204 148.831 35.747 149.078 35.6227C149.325 35.4984 149.542 35.326 149.714 35.1168C149.995 34.5944 150.13 34.0123 150.106 33.4264V14.2715C150.106 13.9826 149.976 13.9001 149.714 13.9001H145.998V28.2097C145.493 27.7047 145.074 27.1269 144.759 26.4977L138.827 17.5691C138.435 16.9509 138.109 16.3937 137.653 15.7754C137.439 15.4912 137.243 15.1952 137.066 14.8889C136.816 14.579 136.598 14.2474 136.414 13.8984H131.716C131.716 14.5381 134.455 17.981 134.976 18.889C135.172 19.1779 135.302 19.3429 135.498 19.6104C136.737 21.1985 140.127 26.2501 141.431 28.1676L143.908 31.6517C144.682 32.8668 145.531 34.0374 146.451 35.1573C146.956 35.5809 147.603 35.822 148.278 35.8382H148.28Z" fill="white"/>
<path fill-rule="evenodd" clip-rule="evenodd" d="M72.0559 35.8367C72.2829 35.8453 72.5081 35.7953 72.7076 35.6923C73.0303 35.5707 73.3047 35.3561 73.492 35.0788C73.6793 34.8014 73.7701 34.4752 73.7516 34.1463V13.8977C68.9925 13.8977 69.6442 13.5478 69.6442 15.3612V28.0835C69.5146 28.1248 69.7747 28.3931 69.3832 27.878L68.5357 26.4962C67.0367 24.4756 65.2105 21.4034 63.7767 19.3621L60.1904 13.8977H55.3008C55.4304 14.289 55.4965 14.2279 55.7567 14.5985C57.1914 16.7636 59.5387 19.7946 60.7159 21.7533L64.1717 26.7224C64.3625 26.9443 64.5369 27.1784 64.6937 27.4232C64.9547 27.7327 65.0199 27.897 65.2157 28.1661L69.9139 34.8669C70.1793 35.162 70.5071 35.4009 70.8761 35.568C71.2452 35.7351 71.6471 35.8267 72.0559 35.8367Z" fill="white"/>
<path fill-rule="evenodd" clip-rule="evenodd" d="M156.563 26.5802L162.561 26.4358L162.496 22.8278H156.563V17.5435H163.539V13.9941H152.585V35.5204L163.539 35.5419V31.9554L156.497 31.934L156.563 26.5802Z" fill="white"/>
<path fill-rule="evenodd" clip-rule="evenodd" d="M115.834 17.776L115.704 35.4673L119.486 35.5499L119.551 17.7554L125.354 17.776V13.8965H109.709V17.776H115.834Z" fill="white"/>
<path fill-rule="evenodd" clip-rule="evenodd" d="M126.721 35.6103H130.828V13.9016H126.721V35.6103Z" fill="white"/>
<path fill-rule="evenodd" clip-rule="evenodd" d="M29.0469 35.6037H33.0891V13.895H29.0469V35.6037Z" fill="white"/>
<path fill-rule="evenodd" clip-rule="evenodd" d="M80.3284 26.5802L86.3264 26.4358L86.2612 22.8278H80.3284V17.5435H87.3044V13.9941H76.3506V35.5204L87.3044 35.5419V31.9554L80.2623 31.934L80.3284 26.5802Z" fill="white"/>
<path d="M20.7836 12.4165C22.8408 12.4165 24.5085 10.8344 24.5085 8.88292C24.5085 6.93139 22.8408 5.34937 20.7836 5.34937C18.7263 5.34937 17.0586 6.93139 17.0586 8.88292C17.0586 10.8344 18.7263 12.4165 20.7836 12.4165Z" fill="white"/>
<path d="M25.753 4.17623C26.9687 4.17623 27.9542 3.24135 27.9542 2.08812C27.9542 0.934882 26.9687 0 25.753 0C24.5373 0 23.5518 0.934882 23.5518 2.08812C23.5518 3.24135 24.5373 4.17623 25.753 4.17623Z" fill="white"/>
<path d="M161.989 8.24002C162.324 8.23986 162.655 8.3022 162.963 8.42347C163.272 8.54474 163.553 8.72256 163.789 8.94677C164.026 9.17098 164.213 9.43719 164.341 9.73016C164.469 10.0231 164.534 10.3371 164.534 10.6542C164.533 11.2952 164.269 11.9105 163.798 12.37C163.314 12.8169 162.665 13.0673 161.989 13.0684C161.655 13.0686 161.324 13.0062 161.015 12.885C160.706 12.7637 160.426 12.5859 160.189 12.3617C159.953 12.1375 159.766 11.8713 159.638 11.5783C159.51 11.2853 159.444 10.9713 159.444 10.6542C159.443 10.3374 159.509 10.0236 159.638 9.73155C159.768 9.43954 159.958 9.1754 160.198 8.95503C160.43 8.72742 160.709 8.54675 161.017 8.42387C161.325 8.30099 161.655 8.23845 161.989 8.24002ZM163.614 9.12934C163.401 8.92665 163.148 8.76613 162.869 8.65713C162.59 8.54812 162.291 8.49279 161.989 8.49436C161.69 8.49292 161.394 8.54836 161.118 8.65743C160.842 8.76649 160.591 8.92695 160.382 9.12934C160.169 9.32817 159.999 9.56556 159.884 9.82747C159.769 10.0894 159.711 10.3705 159.712 10.6542C159.711 10.9403 159.769 11.2239 159.884 11.4884C159.999 11.7529 160.168 11.9931 160.382 12.1951C160.81 12.598 161.387 12.8261 161.989 12.8307C162.597 12.8264 163.18 12.5985 163.614 12.1951C164.04 11.7829 164.28 11.2304 164.284 10.6536C164.279 10.0819 164.039 9.53486 163.614 9.12934Z" fill="white"/>
<path d="M161.436 9.60607H161.671C161.989 9.60607 162.19 9.60607 162.341 9.74896C162.398 9.79946 162.442 9.86122 162.471 9.92987C162.5 9.99852 162.513 10.0724 162.508 10.1462C162.513 10.22 162.5 10.2938 162.471 10.3625C162.442 10.4311 162.398 10.4929 162.341 10.5434C162.19 10.6863 161.989 10.6863 161.671 10.6863H161.436V9.60607ZM161.118 9.32031V11.9883H161.436V10.9721H161.671C161.805 10.978 161.939 10.9726 162.073 10.9561L162.524 11.9889H162.859L162.374 10.8772C162.514 10.8086 162.631 10.7035 162.711 10.5741C162.791 10.4448 162.831 10.2966 162.826 10.1468C162.828 10.0355 162.808 9.92476 162.765 9.82113C162.722 9.71749 162.658 9.62302 162.576 9.54323C162.448 9.45142 162.302 9.38447 162.147 9.34621C161.991 9.30796 161.83 9.29915 161.671 9.32031H161.118Z" fill="white"/>
</svg>
