<svg width="24" height="26" viewBox="0 0 24 26" fill="none" xmlns="http://www.w3.org/2000/svg">
<mask id="mask0_2130_1564" style="mask-type:alpha" maskUnits="userSpaceOnUse" x="0" y="0" width="24" height="25">
<path d="M24 0.5H0V24.5H24V0.5Z" fill="#D9D9D9"/>
</mask>
<g mask="url(#mask0_2130_1564)">
<path d="M12.1 22.0001C10.77 22.0001 9.52308 21.7479 8.35925 21.2434C7.19542 20.7389 6.18017 20.0533 5.3135 19.1866C4.44683 18.3199 3.76125 17.3047 3.25675 16.1409C2.75225 14.977 2.5 13.7301 2.5 12.4001C2.5 10.2105 3.16767 8.26011 4.503 6.54911C5.83817 4.83828 7.56475 3.71619 9.68275 3.18286C9.49808 4.78803 9.66342 6.34445 10.1788 7.85211C10.6943 9.35978 11.5244 10.686 12.6693 11.8309C13.8141 12.9757 15.1403 13.8059 16.648 14.3214C18.1557 14.8367 19.7121 15.002 21.3173 14.8174C20.7943 16.9354 19.6747 18.6619 17.9585 19.9971C16.2425 21.3324 14.2897 22.0001 12.1 22.0001ZM12.1 20.5001C13.5667 20.5001 14.925 20.1334 16.175 19.4001C17.425 18.6668 18.4083 17.6575 19.125 16.3724C17.6917 16.2389 16.3333 15.8759 15.05 15.2834C13.7667 14.6909 12.6167 13.8856 11.6 12.8676C10.5833 11.8496 9.775 10.7005 9.175 9.42036C8.575 8.1402 8.21667 6.78344 8.1 5.35011C6.81667 6.06678 5.8125 7.05428 5.0875 8.31261C4.3625 9.57095 4 10.9334 4 12.4001C4 14.6501 4.7875 16.5626 6.3625 18.1376C7.9375 19.7126 9.85 20.5001 12.1 20.5001Z" fill="white"/>
</g>
</svg>
