<svg width="62" height="62" viewBox="0 0 62 62" fill="none" xmlns="http://www.w3.org/2000/svg">
<path d="M12.872 9.853C9.41703 10.6013 6.2544 12.9437 4.19676 16.2785C2.09748 19.6796 1.42201 23.6851 2.34345 27.2687C3.67359 32.4408 7.91377 35.2363 10.3224 36.4435C12.2268 37.3971 13.4056 39.31 13.3251 41.3147C13.3166 41.5114 13.3005 41.6836 13.2845 41.8265C12.8039 45.9247 8.61952 49.4866 3.1088 50.4894C2.60456 50.5802 2.25926 51.0485 2.3198 51.5575C2.37846 52.0466 2.79377 52.4108 3.28098 52.4108C3.29991 52.4108 3.31883 52.4099 3.33869 52.4089C6.68202 52.2141 18.1254 50.8063 24.9842 40.8823C29.8005 33.9138 32.5346 23.1307 27.1573 15.9228C24.2293 11.9967 18.6798 8.5976 12.872 9.853ZM23.3911 39.7811C20.0733 44.5804 15.4906 47.2303 11.4945 48.6929C13.573 46.8755 14.9136 44.5719 15.2087 42.0507C15.2305 41.8672 15.2503 41.6477 15.2608 41.3941C15.3724 38.6279 13.7745 36.0045 11.1899 34.7103C8.60722 33.4171 5.30174 30.9924 4.22041 26.7863C3.42857 23.7107 4.02174 20.251 5.84477 17.2955C7.62806 14.4063 10.3385 12.3837 13.2826 11.747C13.9609 11.5994 14.6401 11.5313 15.3118 11.5313C19.5236 11.5313 23.4696 14.219 25.6039 17.0808C31.1363 24.4978 26.5755 35.1729 23.3911 39.7811ZM42.8266 9.853C39.3717 10.6013 36.21 12.9428 34.1523 16.2776C32.0531 19.6786 31.3766 23.6851 32.2981 27.2687C33.6292 32.4408 37.8684 35.2373 40.277 36.4435C42.1824 37.3971 43.3611 39.31 43.2798 41.3147C43.2713 41.5096 43.2571 41.6798 43.2391 41.8265C42.7585 45.9247 38.5741 49.4866 33.0634 50.4894C32.5592 50.5802 32.2139 51.0485 32.2744 51.5575C32.3331 52.0466 32.7484 52.4108 33.2356 52.4108C33.2545 52.4108 33.2735 52.4099 33.2933 52.4089C36.6366 52.2141 48.08 50.8063 54.9388 40.8823C59.7551 33.9147 62.4902 23.1317 57.1119 15.9228C54.1839 11.9967 48.6297 8.59949 42.8266 9.853ZM53.3457 39.7811C50.0279 44.5804 45.4462 47.2293 41.4511 48.6929C43.5286 46.8765 44.8672 44.5738 45.1633 42.0554C45.1851 41.8709 45.205 41.6496 45.2154 41.3941C45.328 38.6288 43.7301 36.0055 41.1445 34.7103C38.5628 33.418 35.2573 30.9933 34.175 26.7863C33.3841 23.7097 33.9764 20.25 35.8003 17.2946C37.5836 14.4063 40.2941 12.3837 43.2372 11.747C43.9155 11.5994 44.5938 11.5313 45.2665 11.5313C49.4783 11.5313 53.4252 14.219 55.5585 17.0808C61.0919 24.4987 56.5301 35.1729 53.3457 39.7811Z" fill="#0E1726"/>
</svg>
