<svg width="24" height="24" viewBox="0 0 24 24" fill="none" xmlns="http://www.w3.org/2000/svg">
<mask id="mask0_2122_1545" style="mask-type:alpha" maskUnits="userSpaceOnUse" x="0" y="0" width="24" height="24">
<rect width="24" height="24" fill="#D9D9D9"/>
</mask>
<g mask="url(#mask0_2122_1545)">
<path d="M10.8 21.9778C8.5492 21.697 6.6865 20.7447 5.2119 19.1211C3.7373 17.4972 3 15.5949 3 13.414C3 12.2423 3.2408 11.1197 3.7224 10.0464C4.204 8.97284 4.8786 8.02972 5.7462 7.21703L7.0293 8.44933C6.2923 9.0951 5.7365 9.84461 5.3619 10.6978C4.9873 11.5511 4.8 12.4564 4.8 13.414C4.8 15.1043 5.3619 16.5941 6.4857 17.8833C7.6095 19.1724 9.0476 19.961 10.8 20.2491V21.9778ZM13.2 22V20.2713C14.9324 19.9344 16.3655 19.128 17.4993 17.8522C18.6331 16.5764 19.2 15.097 19.2 13.414C19.2 11.4931 18.5 9.86045 17.1 8.51588C15.7 7.17131 14 6.49903 12 6.49903H11.5755L13.1955 8.05489L11.9307 9.26932L8.1462 5.63466L11.9307 2L13.1955 3.21444L11.5755 4.7703H12C14.5108 4.7703 16.6385 5.60806 18.3831 7.28358C20.1277 8.95911 21 11.0026 21 13.414C21 15.5829 20.2608 17.4757 18.7824 19.0923C17.3038 20.7086 15.443 21.6779 13.2 22Z" fill="#0E1726"/>
</g>
</svg>
