<?xml version="1.0" standalone="no"?>
<!DOCTYPE svg PUBLIC "-//W3C//DTD SVG 20010904//EN"
 "http://www.w3.org/TR/2001/REC-SVG-20010904/DTD/svg10.dtd">
<svg version="1.0" xmlns="http://www.w3.org/2000/svg"
 width="256.000000pt" height="256.000000pt" viewBox="0 0 256.000000 256.000000"
 preserveAspectRatio="xMidYMid meet">

<g transform="translate(0.000000,256.000000) scale(0.100000,-0.100000)"
fill="#000000" stroke="none">
<path d="M1200 2513 c-262 -15 -555 -135 -745 -307 l-50 -45 195 -195 c109
-109 197 -191 201 -185 3 6 9 10 13 9 4 -1 20 9 35 22 93 79 269 148 380 148
l41 0 0 280 c0 154 -3 279 -7 278 -5 -1 -33 -3 -63 -5z"/>
<path d="M2003 1184 c-3 -8 -1 -20 6 -27 8 -8 11 -4 11 16 0 30 -7 35 -17 11z"/>
<path d="M2485 1070 c-3 -5 -1 -10 4 -10 6 0 11 5 11 10 0 6 -2 10 -4 10 -3 0
-8 -4 -11 -10z"/>
<path d="M1851 838 c-2 -37 -1 -38 34 -38 33 0 35 2 35 34 0 31 -3 34 -33 38
-32 3 -33 2 -36 -34z m29 -7 c0 -6 -4 -13 -10 -16 -5 -3 -10 1 -10 9 0 9 5 16
10 16 6 0 10 -4 10 -9z"/>
<path d="M1754 789 c-81 -85 -259 -171 -386 -186 l-63 -8 0 -275 0 -275 65 3
c257 13 545 133 740 310 47 42 53 52 42 65 -9 10 -10 17 -2 22 20 13 11 37
-14 33 -32 -4 -56 19 -56 53 0 22 -5 29 -20 29 -13 0 -20 7 -20 20 0 13 -7 20
-20 20 -14 0 -20 7 -20 21 0 16 -5 20 -24 17 -25 -3 -56 17 -56 37 0 6 -9 20
-20 30 -11 10 -20 26 -20 37 0 11 -7 18 -18 18 -32 0 -84 31 -78 46 8 20 3 18
-30 -17z"/>
<path d="M2324 666 c-3 -9 -11 -13 -17 -9 -6 4 -7 1 -2 -6 6 -10 11 -9 23 3 9
8 13 19 9 22 -4 4 -9 -1 -13 -10z"/>
<path d="M2240 601 c0 -40 13 -61 25 -41 4 6 10 8 15 5 5 -3 11 -1 14 4 7 11
-13 9 -31 -2 -7 -5 -13 -4 -13 1 0 15 26 33 35 24 5 -4 5 -1 1 6 -4 7 -2 19 4
27 11 13 7 15 -19 15 -29 0 -31 -2 -31 -39z"/>
<path d="M2236 517 c3 -10 9 -15 12 -12 3 3 0 11 -7 18 -10 9 -11 8 -5 -6z"/>
</g>
</svg>
