<svg width="40" height="40" fill="none" xmlns="http://www.w3.org/2000/svg"><path d="M35.548 16.72a12.379 12.379 0 0 0-1.286-5.933 4.112 4.112 0 0 0-2.43-1.436 108.955 108.955 0 0 0-11.83-.446c-3.933-.069-7.867.075-11.786.431A4.033 4.033 0 0 0 6.153 10.4c-1.272 1.193-1.413 3.233-1.555 4.957-.205 3.1-.205 6.21 0 9.309.041.97.183 1.933.424 2.873.17.726.515 1.397 1.004 1.954.575.58 1.309.97 2.105 1.12a62.82 62.82 0 0 0 9.186.474c4.947.072 9.285 0 14.416-.402a4.048 4.048 0 0 0 2.162-1.12c.396-.403.691-.895.862-1.437.505-1.576.754-3.226.735-4.884.056-.805.056-5.66.056-6.522zm-18.74 7.385v-8.893l8.367 4.468c-2.346 1.322-5.44 2.816-8.366 4.425z" fill="#091638"/></svg>