<svg width="51" height="41" viewBox="0 0 51 41" fill="none" xmlns="http://www.w3.org/2000/svg">
<path fill-rule="evenodd" clip-rule="evenodd" d="M8.89891 0.152656C6.04933 0.831129 4.69238 3.13794 4.69238 7.07308C4.69238 10.3297 6.11717 12.9079 8.55967 14.1292C9.50954 14.6041 9.57738 14.6041 10.9343 14.6041C12.2234 14.6041 12.3591 14.6041 13.1733 14.1971C15.6836 13.0437 17.1763 10.3297 17.1763 7.07308C17.1763 3.00224 15.6836 0.763281 12.7662 0.152656C11.8842 -0.0508854 9.71308 -0.0508854 8.89891 0.152656ZM12.7662 2.25593C13.6482 2.52732 14.4624 3.34148 14.8016 4.29134C15.073 5.17336 15.1409 7.75156 14.9373 8.70142C14.191 12.433 10.5272 13.8578 8.22044 11.4153C7.06704 10.1262 6.7278 8.90496 6.79565 6.59815C6.86349 3.95211 7.40627 2.86657 8.96676 2.32379C9.91662 1.98456 11.7485 1.98454 12.7662 2.25593Z" fill="#A6A6A6"/>
<path fill-rule="evenodd" clip-rule="evenodd" d="M38.0732 0.152656C35.2236 0.831129 33.7988 3.13794 33.7988 7.07308C33.7988 10.3297 35.2236 12.9079 37.734 14.1292C38.6838 14.6041 38.7517 14.6041 40.1086 14.6041C41.3977 14.6041 41.5334 14.6041 42.4833 14.1292C44.9258 12.9079 46.3506 10.3297 46.3506 7.07308C46.3506 3.07009 44.8579 0.763281 41.9405 0.152656C41.0585 -0.0508854 38.8874 -0.0508854 38.0732 0.152656ZM41.9405 2.25593C42.8225 2.52732 43.6367 3.34148 43.9081 4.29134C44.2473 5.3769 44.3152 8.09079 44.0438 9.04065C43.7724 10.0584 43.4331 10.7369 42.8225 11.4153C41.262 13.0437 38.8874 13.0437 37.3947 11.4153C36.7163 10.7369 36.377 10.0584 36.1056 9.04065C35.8342 8.09079 35.9021 5.37691 36.2413 4.3592C36.5127 3.40934 37.259 2.59518 38.1411 2.32379C39.0231 1.98456 40.9228 1.98454 41.9405 2.25593Z" fill="#A6A6A6"/>
<path fill-rule="evenodd" clip-rule="evenodd" d="M6.65966 15.1468C2.79236 16.0289 1.16403 17.3858 0.417709 20.2354C0.214168 21.1853 -0.0572213 24.1705 0.0106259 25.3918C0.0784732 26.2738 0.0784733 26.2738 0.689098 26.9523C1.8425 28.1057 4.4207 29.1234 7.13459 29.5305C7.67736 29.5983 8.96646 29.6661 9.98417 29.734L11.816 29.8697L11.9517 29.2591C12.0196 28.9198 12.1553 28.5127 12.2231 28.3092C12.291 28.1057 12.3588 27.9021 12.3588 27.8343C12.3588 27.7664 11.7482 27.6986 11.0697 27.6986C8.0166 27.6986 5.09917 27.2236 3.53868 26.4773C2.18174 25.7989 2.04604 25.6632 2.04604 24.4419C2.04604 21.9316 2.52097 19.8283 3.19945 18.9463C3.74222 18.3357 4.82778 17.7929 6.32042 17.318L7.54167 16.9787L8.35584 17.3858C9.98417 18.2678 11.816 18.2678 13.4444 17.3858L14.2585 16.9787L15.2763 17.318C15.8869 17.4537 16.5654 17.6572 16.9046 17.8607C17.176 17.9964 17.4474 18.0643 17.5152 18.0643C17.5152 17.9964 17.4474 17.4537 17.3117 16.843C17.0403 15.6896 17.0403 15.6896 16.5654 15.4861C16.294 15.4182 15.4798 15.2147 14.7335 15.079L13.4444 14.8076L12.9694 15.2147C11.9517 16.2324 9.84848 16.2324 8.89861 15.2825C8.62723 15.0112 8.35584 14.8076 8.22014 14.8076C8.08445 14.8076 7.40597 15.0112 6.65966 15.1468Z" fill="#A6A6A6"/>
<path fill-rule="evenodd" clip-rule="evenodd" d="M35.8344 15.1468C33.799 15.6218 33.9347 15.4861 33.6633 16.843C33.5276 17.4537 33.4597 17.9964 33.5276 18.0643C33.5276 18.0643 33.799 17.9286 34.1382 17.8607C34.4096 17.6572 35.1559 17.4537 35.6987 17.318L36.7164 16.9787L37.5306 17.3858C39.1589 18.2678 41.0586 18.2678 42.687 17.3858L43.4333 17.0466L44.1796 17.2501C46.1472 17.725 47.4363 18.4035 47.9791 19.2177C48.454 20.0997 48.7932 21.5245 48.8611 23.5599L48.9968 25.3918L48.6575 25.731C47.5041 26.8844 43.9761 27.6986 39.8374 27.6986H38.5483L38.7518 28.1735C38.8197 28.4449 38.9554 28.9198 39.0232 29.2591L39.1589 29.8697L41.1265 29.734C45.5366 29.5304 48.7254 28.5806 50.2859 26.9523C50.8965 26.3416 50.9643 26.2738 50.9643 25.4596C51.1 24.3741 50.8286 21.1853 50.5572 20.2354C49.8109 17.318 48.0469 15.961 43.9761 15.079L42.5513 14.8076L42.1442 15.2147C41.1265 16.2324 39.0232 16.2324 38.0734 15.2825C37.802 15.0112 37.5306 14.8076 37.3949 14.8076C37.2592 14.8076 36.5807 15.0112 35.8344 15.1468Z" fill="#A6A6A6"/>
<path d="M20.772 23.2887C17.8546 23.8993 16.0906 24.7135 14.8693 25.9347C13.1731 27.6309 12.5625 29.802 12.5625 34.4156V36.5867L13.4445 37.4009C15.1407 39.0292 17.9903 40.0469 22.0611 40.5219C24.3001 40.7254 28.9137 40.5897 30.8813 40.2505C33.9344 39.7077 36.4447 38.6221 37.7338 37.2652L38.4801 36.5867L38.4123 34.3478C38.4123 29.802 37.8017 27.6309 36.1055 25.9347C34.8842 24.7135 32.9845 23.8315 30.0671 23.2887L28.6423 23.0173L28.0995 23.4244C27.4889 24.1028 26.6747 24.3742 25.5213 24.3742C24.3679 24.3742 23.4859 24.035 22.8753 23.4922C22.4003 22.9494 22.3325 22.9495 20.772 23.2887ZM23.1467 5.377C20.5685 5.98762 19.008 7.75165 18.3974 10.6012C18.0581 12.1617 18.0581 15.0792 18.4652 16.4361C19.3472 19.6249 21.654 22.0674 24.5036 22.4745C28.0317 23.0851 31.424 20.5069 32.5774 16.4361C32.9167 15.0792 32.9167 12.1617 32.5774 10.6012C32.0347 7.68381 30.4063 5.98762 27.8281 5.377C26.7426 5.10561 24.1644 5.17345 23.1467 5.377ZM26.8783 7.34457C28.8458 7.54811 30.0671 8.76937 30.542 10.8726C30.8134 12.1617 30.8813 14.265 30.6777 15.4184C30.2706 17.5216 28.9815 19.3535 27.3532 20.0999C26.7426 20.4391 26.4712 20.5069 25.5213 20.5069C24.5715 20.5069 24.3001 20.4391 23.6216 20.0999C22.0611 19.3535 20.772 17.5216 20.3649 15.4184C20.0257 13.7222 20.2292 11.0083 20.8399 9.65138C21.1791 8.83721 21.9933 8.02304 22.8074 7.6838C23.4181 7.41241 25.1142 7.14103 25.7249 7.20888C25.9284 7.27672 26.4033 7.27673 26.8783 7.34457ZM22.1968 25.5955C23.8251 26.681 26.8104 26.681 28.5744 25.6633L29.1851 25.3919L29.3886 25.6633C29.7279 26.0704 30.4742 26.1383 30.8813 25.799C31.0848 25.5955 31.1526 25.5955 32.0347 25.8669C33.3238 26.3418 34.4772 27.0203 35.0199 27.7666C35.9019 28.92 36.2412 30.4126 36.3769 33.7371L36.4447 35.7047L35.902 36.2475C34.8164 37.1974 32.5774 37.9437 29.66 38.3508C27.4889 38.6221 22.1968 38.5543 20.2971 38.2151C17.9224 37.808 15.8192 36.9938 15.005 36.1796C14.5979 35.7726 14.5301 35.7726 14.5301 34.6192C14.5301 32.1088 14.9372 29.6663 15.4799 28.5129C16.1584 27.156 17.651 26.2061 20.0257 25.5955C21.5862 25.1884 21.654 25.1884 22.1968 25.5955Z" fill="url(#paint0_linear_2205_2521)"/>
<defs>
<linearGradient id="paint0_linear_2205_2521" x1="10.2557" y1="159.458" x2="36.309" y2="159.255" gradientUnits="userSpaceOnUse">
<stop stop-color="#693185"/>
<stop offset="1" stop-color="#E73970"/>
</linearGradient>
</defs>
</svg>
