<svg width="33" height="32" viewBox="0 0 33 32" fill="none" xmlns="http://www.w3.org/2000/svg">
<rect x="0.5" y="0.5" width="32" height="31" stroke="#0E1726"/>
<rect x="3" y="3" width="1" height="1" fill="#0E1726"/>
<rect x="3" y="6" width="1" height="1" fill="#0E1726"/>
<rect x="3" y="9" width="1" height="1" fill="#0E1726"/>
<rect x="3" y="12" width="1" height="1" fill="#0E1726"/>
<rect x="3" y="15" width="1" height="1" fill="#0E1726"/>
<rect x="3" y="18" width="1" height="1" fill="#0E1726"/>
<rect x="3" y="21" width="1" height="1" fill="#0E1726"/>
<rect x="3" y="24" width="1" height="1" fill="#0E1726"/>
<rect x="3" y="27" width="1" height="1" fill="#0E1726"/>
<rect x="3" y="30" width="1" height="1" fill="#0E1726"/>
<rect x="6" y="3" width="1" height="1" fill="#0E1726"/>
<rect x="6" y="6" width="1" height="1" fill="#0E1726"/>
<rect x="6" y="9" width="1" height="1" fill="#0E1726"/>
<rect x="6" y="12" width="1" height="1" fill="#0E1726"/>
<rect x="6" y="15" width="1" height="1" fill="#0E1726"/>
<rect x="6" y="18" width="1" height="1" fill="#0E1726"/>
<rect x="6" y="21" width="1" height="1" fill="#0E1726"/>
<rect x="6" y="24" width="1" height="1" fill="#0E1726"/>
<rect x="6" y="27" width="1" height="1" fill="#0E1726"/>
<rect x="6" y="30" width="1" height="1" fill="#0E1726"/>
<rect x="9" y="3" width="1" height="1" fill="#0E1726"/>
<rect x="9" y="6" width="1" height="1" fill="#0E1726"/>
<rect x="9" y="9" width="1" height="1" fill="#0E1726"/>
<rect x="9" y="12" width="1" height="1" fill="#0E1726"/>
<rect x="9" y="15" width="1" height="1" fill="#0E1726"/>
<rect x="9" y="18" width="1" height="1" fill="#0E1726"/>
<rect x="9" y="21" width="1" height="1" fill="#0E1726"/>
<rect x="9" y="24" width="1" height="1" fill="#0E1726"/>
<rect x="9" y="27" width="1" height="1" fill="#0E1726"/>
<rect x="9" y="30" width="1" height="1" fill="#0E1726"/>
<rect x="12" y="3" width="1" height="1" fill="#0E1726"/>
<rect x="12" y="6" width="1" height="1" fill="#0E1726"/>
<rect x="12" y="9" width="1" height="1" fill="#0E1726"/>
<rect x="12" y="12" width="1" height="1" fill="#0E1726"/>
<rect x="12" y="15" width="1" height="1" fill="#0E1726"/>
<rect x="12" y="18" width="1" height="1" fill="#0E1726"/>
<rect x="12" y="21" width="1" height="1" fill="#0E1726"/>
<rect x="12" y="24" width="1" height="1" fill="#0E1726"/>
<rect x="12" y="27" width="1" height="1" fill="#0E1726"/>
<rect x="12" y="30" width="1" height="1" fill="#0E1726"/>
<rect x="15" y="3" width="1" height="1" fill="#0E1726"/>
<rect x="15" y="6" width="1" height="1" fill="#0E1726"/>
<rect x="15" y="9" width="1" height="1" fill="#0E1726"/>
<rect x="15" y="12" width="1" height="1" fill="#0E1726"/>
<rect x="15" y="15" width="1" height="1" fill="#0E1726"/>
<rect x="15" y="18" width="1" height="1" fill="#0E1726"/>
<rect x="15" y="21" width="1" height="1" fill="#0E1726"/>
<rect x="15" y="24" width="1" height="1" fill="#0E1726"/>
<rect x="15" y="27" width="1" height="1" fill="#0E1726"/>
<rect x="15" y="30" width="1" height="1" fill="#0E1726"/>
<rect x="18" y="3" width="1" height="1" fill="#0E1726"/>
<rect x="18" y="6" width="1" height="1" fill="#0E1726"/>
<rect x="18" y="9" width="1" height="1" fill="#0E1726"/>
<rect x="18" y="12" width="1" height="1" fill="#0E1726"/>
<rect x="18" y="15" width="1" height="1" fill="#0E1726"/>
<rect x="18" y="18" width="1" height="1" fill="#0E1726"/>
<rect x="18" y="21" width="1" height="1" fill="#0E1726"/>
<rect x="18" y="24" width="1" height="1" fill="#0E1726"/>
<rect x="18" y="27" width="1" height="1" fill="#0E1726"/>
<rect x="18" y="30" width="1" height="1" fill="#0E1726"/>
<rect x="21" y="3" width="1" height="1" fill="#0E1726"/>
<rect x="21" y="6" width="1" height="1" fill="#0E1726"/>
<rect x="21" y="9" width="1" height="1" fill="#0E1726"/>
<rect x="21" y="12" width="1" height="1" fill="#0E1726"/>
<rect x="21" y="15" width="1" height="1" fill="#0E1726"/>
<rect x="21" y="18" width="1" height="1" fill="#0E1726"/>
<rect x="21" y="21" width="1" height="1" fill="#0E1726"/>
<rect x="21" y="24" width="1" height="1" fill="#0E1726"/>
<rect x="21" y="27" width="1" height="1" fill="#0E1726"/>
<rect x="21" y="30" width="1" height="1" fill="#0E1726"/>
<rect x="24" y="3" width="1" height="1" fill="#0E1726"/>
<rect x="24" y="6" width="1" height="1" fill="#0E1726"/>
<rect x="24" y="9" width="1" height="1" fill="#0E1726"/>
<rect x="24" y="12" width="1" height="1" fill="#0E1726"/>
<rect x="24" y="15" width="1" height="1" fill="#0E1726"/>
<rect x="24" y="18" width="1" height="1" fill="#0E1726"/>
<rect x="24" y="21" width="1" height="1" fill="#0E1726"/>
<rect x="24" y="24" width="1" height="1" fill="#0E1726"/>
<rect x="24" y="27" width="1" height="1" fill="#0E1726"/>
<rect x="24" y="30" width="1" height="1" fill="#0E1726"/>
<rect x="27" y="3" width="1" height="1" fill="#0E1726"/>
<rect x="27" y="6" width="1" height="1" fill="#0E1726"/>
<rect x="27" y="9" width="1" height="1" fill="#0E1726"/>
<rect x="27" y="12" width="1" height="1" fill="#0E1726"/>
<rect x="27" y="15" width="1" height="1" fill="#0E1726"/>
<rect x="27" y="18" width="1" height="1" fill="#0E1726"/>
<rect x="27" y="21" width="1" height="1" fill="#0E1726"/>
<rect x="27" y="24" width="1" height="1" fill="#0E1726"/>
<rect x="27" y="27" width="1" height="1" fill="#0E1726"/>
<rect x="27" y="30" width="1" height="1" fill="#0E1726"/>
<rect x="29" y="3" width="1" height="1" fill="#0E1726"/>
<rect x="29" y="6" width="1" height="1" fill="#0E1726"/>
<rect x="29" y="9" width="1" height="1" fill="#0E1726"/>
<rect x="29" y="12" width="1" height="1" fill="#0E1726"/>
<rect x="29" y="15" width="1" height="1" fill="#0E1726"/>
<rect x="29" y="18" width="1" height="1" fill="#0E1726"/>
<rect x="29" y="21" width="1" height="1" fill="#0E1726"/>
<rect x="29" y="24" width="1" height="1" fill="#0E1726"/>
<rect x="29" y="27" width="1" height="1" fill="#0E1726"/>
<rect x="29" y="30" width="1" height="1" fill="#0E1726"/>
</svg>
