<svg width="60" height="60" viewBox="0 0 60 60" fill="none" xmlns="http://www.w3.org/2000/svg">
<path fill-rule="evenodd" clip-rule="evenodd" d="M50.378 25.689C50.378 41.4704 30.555 54.7498 30.4588 54.7498C30.2177 54.914 29.9326 55.0019 29.6409 55.0019C29.3491 55.0019 29.0641 54.914 28.8229 54.7498C28.0531 54.2686 9 41.1817 9 25.689C9 20.2019 11.1797 14.9396 15.0597 11.0597C18.9396 7.17975 24.2019 5 29.689 5C35.1761 5 40.4384 7.17975 44.3183 11.0597C48.1983 14.9396 50.378 20.2019 50.378 25.689ZM29.689 51.863C33.2494 49.3611 47.5874 38.2949 47.5874 25.689C47.5422 20.956 45.642 16.4297 42.2951 13.0828C38.9483 9.73595 34.4219 7.83577 29.689 7.79062C24.9428 7.79317 20.3918 9.67971 17.0357 13.0358C13.6797 16.3918 11.7932 20.9428 11.7906 25.689C11.7906 38.2949 26.1286 49.3611 29.689 51.863Z" fill="url(#paint0_linear_2234_300)"/>
<path fill-rule="evenodd" clip-rule="evenodd" d="M34.6926 25.689C34.667 24.3648 34.1529 23.0968 33.2491 22.1286C32.281 21.2248 31.0129 20.7107 29.6887 20.6852C29.0295 20.6798 28.3757 20.8046 27.7647 21.0523C27.1538 21.3 26.5977 21.6657 26.1283 22.1286C25.6624 22.5958 25.2946 23.1515 25.0467 23.763C24.7989 24.3744 24.6758 25.0293 24.6849 25.689C24.6571 26.3512 24.7716 27.0116 25.0206 27.6258C25.2696 28.2399 25.6473 28.7936 26.1283 29.2495C26.5786 29.744 27.129 30.1369 27.7428 30.4024C28.3567 30.6678 29.02 30.7997 29.6887 30.7891C30.3545 30.7808 31.0121 30.6404 31.6232 30.3761C32.2344 30.1118 32.787 29.7289 33.2491 29.2495C33.715 28.7823 34.0828 28.2266 34.3307 27.6151C34.5786 27.0036 34.7016 26.3488 34.6926 25.689ZM35.1737 20.2041C35.9034 20.9193 36.4834 21.7727 36.8799 22.7144C37.2764 23.6561 37.4815 24.6673 37.4832 25.689C37.4978 26.7046 37.3096 27.7128 36.9296 28.6547C36.5495 29.5965 35.9853 30.4531 35.2699 31.174V31.2703C33.7865 32.7454 31.7807 33.5754 29.6887 33.5797C28.6514 33.5866 27.6232 33.3857 26.6647 32.9891C25.7061 32.5925 24.8367 32.0081 24.1075 31.2703C23.3697 30.5411 22.7853 29.6716 22.3886 28.713C21.992 27.7545 21.7912 26.7264 21.798 25.689C21.7915 24.666 21.9928 23.6524 22.3898 22.7095C22.7868 21.7667 23.3712 20.9143 24.1075 20.2041C24.8367 19.4663 25.7061 18.8818 26.6647 18.4852C27.6232 18.0885 28.6514 17.8878 29.6887 17.8946C30.7117 17.8881 31.7254 18.0894 32.6682 18.4864C33.6111 18.8834 34.4635 19.4678 35.1737 20.2041Z" fill="url(#paint1_linear_2234_300)"/>
<defs>
<linearGradient id="paint0_linear_2234_300" x1="12.9723" y1="13.5003" x2="45.2689" y2="19.9467" gradientUnits="userSpaceOnUse">
<stop stop-color="#393185"/>
<stop offset="1" stop-color="#E5097F"/>
</linearGradient>
<linearGradient id="paint1_linear_2234_300" x1="23.3037" y1="20.561" x2="35.3349" y2="23.463" gradientUnits="userSpaceOnUse">
<stop stop-color="#393185"/>
<stop offset="1" stop-color="#E5097F"/>
</linearGradient>
</defs>
</svg>
