<svg width="60" height="60" viewBox="0 0 60 60" fill="none" xmlns="http://www.w3.org/2000/svg">
<path fill-rule="evenodd" clip-rule="evenodd" d="M10.5275 15.7694H18.6865V12.4045C18.7201 10.7097 19.3785 9.08661 20.5359 7.8456C21.1376 7.25229 21.8512 6.78376 22.6354 6.46705C23.4196 6.15034 24.2589 5.99172 25.1049 6.00033H34.8957C36.6081 6.0001 38.2521 6.67133 39.4731 7.86933C40.6941 9.06732 41.3944 10.6961 41.4229 12.4045V15.7694H49.5819C50.4279 15.7608 51.2672 15.9194 52.0514 16.2361C52.8356 16.5528 53.5491 17.0213 54.1509 17.6147L54.2597 17.7232C55.3839 18.9331 56.006 20.5237 56.0003 22.1735V46.5962C56.0089 47.4403 55.85 48.2777 55.5325 49.0602C55.2151 49.8426 54.7456 50.5546 54.1509 51.1551C52.9072 52.3098 51.2805 52.9668 49.5819 53.0003H10.5275C8.82131 53.0047 7.18122 52.3424 5.95846 51.1551L5.84967 51.0465C5.25679 50.4673 4.78735 49.7745 4.46954 49.0098C4.15174 48.245 3.99213 47.424 4.0003 46.5962V22.1735C4.02482 20.4557 4.72864 18.8171 5.95846 17.6147C6.54794 17.0048 7.25931 16.5254 8.04643 16.2075C8.83355 15.8896 9.67884 15.7404 10.5275 15.7694ZM21.8413 15.7694H38.1593V12.4045C38.1761 11.5609 37.8641 10.7437 37.289 10.125C36.9741 9.81312 36.6006 9.56626 36.1899 9.39862C35.7792 9.23099 35.3394 9.14586 34.8957 9.14814H25.1049C24.2463 9.17012 23.4289 9.52025 22.8216 10.1262C22.2142 10.7322 21.8633 11.5478 21.8413 12.4045V15.7694ZM38.1593 49.8525V18.9172H21.8413V49.8525H38.1593ZM18.6865 49.8525V18.9172H10.5275C10.0824 18.9048 9.63961 18.9853 9.22748 19.1536C8.81536 19.3218 8.44298 19.574 8.13419 19.8941C7.53072 20.5031 7.18088 21.3175 7.15511 22.1735V46.5962C7.18175 47.4203 7.53365 48.2006 8.13419 48.7671V48.8756C8.78656 49.4805 9.63729 49.8277 10.5275 49.8525H18.6865ZM41.4229 18.9172V49.8525H49.5819C50.4398 49.8268 51.2561 49.4778 51.8664 48.8756C52.1855 48.5893 52.4384 48.2371 52.6074 47.8434C52.7765 47.4498 52.8577 47.0242 52.8455 46.5962V22.1735C52.8382 21.3343 52.5294 20.5255 51.9752 19.8941H51.8664C51.5794 19.5757 51.2264 19.3234 50.8319 19.1547C50.4374 18.986 50.0109 18.905 49.5819 18.9172H41.4229Z" fill="url(#paint0_linear_2234_291)"/>
<defs>
<linearGradient id="paint0_linear_2234_291" x1="8.99206" y1="13.9901" x2="48.3911" y2="24.5041" gradientUnits="userSpaceOnUse">
<stop stop-color="#393185"/>
<stop offset="1" stop-color="#E5097F"/>
</linearGradient>
</defs>
</svg>
