<svg width="60" height="60" viewBox="0 0 60 60" fill="none" xmlns="http://www.w3.org/2000/svg">
<path fill-rule="evenodd" clip-rule="evenodd" d="M52.7468 47.2519C53.1763 47.2607 53.6032 47.1826 54.0019 47.0223C54.4005 46.862 54.7625 46.6228 55.0663 46.319C55.3702 46.0152 55.6094 45.6531 55.7697 45.2545C55.93 44.8559 56.0081 44.429 55.9992 43.9994C55.7877 42.0766 55.1989 40.2144 54.2667 38.5194C53.3345 36.8243 52.0772 35.3298 50.5666 34.1214C49.0561 32.913 47.322 32.0143 45.4637 31.477C43.6054 30.9396 41.6594 30.774 39.737 30.9896C37.8146 30.774 35.8686 30.9396 34.0103 31.477C32.152 32.0143 30.418 32.913 28.9074 34.1214C27.3969 35.3298 26.1395 36.8243 25.2073 38.5194C24.2751 40.2144 23.6864 42.0766 23.4748 43.9994C23.4659 44.429 23.544 44.8559 23.7043 45.2545C23.8646 45.6531 24.1039 46.0152 24.4077 46.319C24.7115 46.6228 25.0736 46.862 25.4722 47.0223C25.8708 47.1826 26.2977 47.2607 26.7272 47.2519H52.7468ZM26.8202 43.9994H26.7272C26.9488 41.8936 27.8265 39.9107 29.2363 38.3309C30.5714 36.91 32.2071 35.8055 34.0239 35.0981C35.8407 34.3907 37.7927 34.0982 39.737 34.2421C41.6814 34.0982 43.6333 34.3907 45.4501 35.0981C47.2669 35.8055 48.9027 36.91 50.2378 38.3309C51.6476 39.9107 52.5252 41.8936 52.7468 43.9994H26.8202ZM26.5414 31.9189C25.2552 31.4541 23.9101 31.1726 22.5455 31.0826C21.8048 31.0052 21.0599 30.9742 20.3153 30.9896C18.3929 30.774 16.4469 30.9396 14.5886 31.477C12.7303 32.0143 10.9962 32.913 9.48567 34.1214C7.97513 35.3298 6.71776 36.8243 5.78556 38.5194C4.85335 40.2144 4.26461 42.0766 4.05305 43.9994C3.9951 44.4402 4.03932 44.8885 4.18228 45.3095C4.32524 45.7305 4.56312 46.113 4.87751 46.4274C5.19191 46.7418 5.5744 46.9797 5.99541 47.1226C6.41641 47.2656 6.86466 47.3098 7.30549 47.2519H20.9658C20.5203 46.259 20.2982 45.1804 20.3153 44.0923V43.9994C20.3484 40.5243 21.5979 37.1706 23.8465 34.5209C24.6272 33.5395 25.5332 32.6647 26.5414 31.9189ZM20.0365 34.2421C18.0842 37.1203 17.0476 40.5215 17.0628 43.9994H7.30549C7.54002 41.9145 8.37995 39.9439 9.72159 38.3309C11.0363 36.9352 12.6417 35.8455 14.4242 35.1389C16.2066 34.4324 18.1226 34.1262 20.0365 34.2421Z" fill="url(#paint0_linear_2234_294)"/>
<path fill-rule="evenodd" clip-rule="evenodd" d="M17.3411 11.7538C18.4637 11.7525 19.5754 11.9736 20.6121 12.4042C21.6488 12.8349 22.59 13.4665 23.3813 14.2628C24.9397 15.8489 25.8081 17.9866 25.7974 20.2101C25.7903 22.4302 24.9245 24.5614 23.3813 26.1574C21.7489 27.7024 19.5886 28.5665 17.3411 28.5735C15.121 28.5664 12.9898 27.7006 11.3937 26.1574C9.85056 24.5614 8.98476 22.4302 8.97764 20.2101C8.96698 17.9866 9.8354 15.8489 11.3937 14.2628C12.1669 13.4681 13.0916 12.8365 14.1131 12.4056C15.1347 11.9746 16.2323 11.753 17.3411 11.7538ZM21.4299 16.1213C20.895 15.583 20.2575 15.1576 19.5551 14.8703C18.8528 14.583 18.0999 14.4396 17.3411 14.4486C16.5971 14.4468 15.8603 14.5938 15.1741 14.8811C14.4878 15.1683 13.866 15.59 13.3452 16.1213C12.7857 16.645 12.3402 17.2783 12.0364 17.9818C11.7326 18.6853 11.5771 19.4438 11.5796 20.2101C11.5842 20.9753 11.7429 21.7317 12.0462 22.4342C12.3496 23.1367 12.7914 23.7709 13.3452 24.2989C13.866 24.8302 14.4878 25.2519 15.1741 25.5392C15.8603 25.8264 16.5971 25.9735 17.3411 25.9716C18.0999 25.9807 18.8528 25.8373 19.5551 25.55C20.2575 25.2626 20.895 24.8372 21.4299 24.2989C21.9725 23.7673 22.4008 23.1304 22.6884 22.4272C22.9761 21.7241 23.117 20.9697 23.1025 20.2101C23.1237 19.4497 22.9859 18.6932 22.6978 17.9891C22.4098 17.2851 21.9779 16.6489 21.4299 16.1213Z" fill="url(#paint1_linear_2234_294)"/>
<path fill-rule="evenodd" clip-rule="evenodd" d="M38.8079 11.7538C39.9305 11.7525 41.0422 11.9736 42.0789 12.4042C43.1156 12.8349 44.0568 13.4665 44.8481 14.2628C46.4065 15.8489 47.2749 17.9866 47.2642 20.2101C47.2571 22.4302 46.3913 24.5614 44.8481 26.1574L44.7552 26.2504C43.1366 27.7587 41.0017 28.5897 38.7894 28.5724C36.577 28.5551 34.4553 27.6909 32.8605 26.1574C31.3174 24.5614 30.4516 22.4302 30.4444 20.2101C30.4338 17.9866 31.3022 15.8489 32.8605 14.2628C33.6337 13.4681 34.5584 12.8365 35.5799 12.4056C36.6015 11.9746 37.6991 11.753 38.8079 11.7538ZM42.8967 16.1213C42.3618 15.583 41.7243 15.1576 41.0219 14.8703C40.3196 14.583 39.5667 14.4396 38.8079 14.4486C38.0639 14.4468 37.3271 14.5938 36.6408 14.8811C35.9546 15.1683 35.3328 15.59 34.812 16.1213C34.2525 16.645 33.807 17.2783 33.5032 17.9818C33.1994 18.6853 33.0439 19.4438 33.0464 20.2101C33.051 20.9753 33.2097 21.7317 33.513 22.4342C33.8164 23.1367 34.2582 23.7709 34.812 24.2989C35.3328 24.8302 35.9546 25.2519 36.6408 25.5392C37.3271 25.8264 38.0639 25.9735 38.8079 25.9716C40.3337 25.9531 41.7954 25.3551 42.8967 24.2989C43.4393 23.7673 43.8676 23.1304 44.1552 22.4272C44.4429 21.7241 44.5838 20.9697 44.5693 20.2101C44.5905 19.4497 44.4527 18.6932 44.1646 17.9891C43.8766 17.2851 43.4447 16.6489 42.8967 16.1213Z" fill="url(#paint2_linear_2234_294)"/>
<defs>
<linearGradient id="paint0_linear_2234_294" x1="13.9549" y1="25.6567" x2="17.564" y2="48.7605" gradientUnits="userSpaceOnUse">
<stop stop-color="#393185"/>
<stop offset="1" stop-color="#E5097F"/>
</linearGradient>
<linearGradient id="paint1_linear_2234_294" x1="10.4577" y1="14.9159" x2="23.5604" y2="17.523" gradientUnits="userSpaceOnUse">
<stop stop-color="#393185"/>
<stop offset="1" stop-color="#E5097F"/>
</linearGradient>
<linearGradient id="paint2_linear_2234_294" x1="31.9245" y1="14.9157" x2="45.0272" y2="17.523" gradientUnits="userSpaceOnUse">
<stop stop-color="#393185"/>
<stop offset="1" stop-color="#E5097F"/>
</linearGradient>
</defs>
</svg>
