<svg width="60" height="60" viewBox="0 0 60 60" fill="none" xmlns="http://www.w3.org/2000/svg">
<path fill-rule="evenodd" clip-rule="evenodd" d="M20.1231 9.1611C17.007 9.94013 13.8908 10.9139 10.8721 11.8877C10.5942 11.9795 10.3471 12.1463 10.158 12.3697C9.96898 12.5931 9.84539 12.8644 9.8009 13.1536C8.924 18.3715 9.11935 23.7134 10.375 28.8533C11.6307 33.9932 13.9204 38.8233 17.1044 43.0491C19.2294 45.8405 21.7562 48.3017 24.6026 50.3526C25.5132 51.0362 26.4922 51.6236 27.524 52.1054C27.9135 52.3002 28.2056 52.3975 28.4004 52.4949C28.5376 52.4804 28.6756 52.5149 28.7899 52.5923C28.8284 52.5555 28.8745 52.5277 28.925 52.5108C28.9755 52.494 29.0292 52.4886 29.082 52.4949C29.4163 52.3907 29.7419 52.2605 30.0558 52.1054C31.0636 51.5797 32.0391 50.9944 32.9772 50.3526C35.8155 48.3256 38.3136 45.8603 40.378 43.0491C43.562 38.8233 45.8517 33.9932 47.1074 28.8533C48.3631 23.7134 48.5584 18.3715 47.6815 13.1536C47.655 12.858 47.538 12.5777 47.3462 12.3512C47.1545 12.1246 46.8975 11.9627 46.6103 11.8877C44.5654 11.2061 40.9623 10.1349 37.4567 9.1611C34.6331 8.29062 31.7298 7.70344 28.7899 7.40827C25.8486 7.69442 22.9444 8.28178 20.1231 9.1611ZM19.2467 5.75283C22.3508 4.80754 25.5525 4.21946 28.7899 4C32.0262 4.22769 35.2271 4.8156 38.3331 5.75283C41.9361 6.72663 45.5392 7.89512 47.6815 8.57677C48.5773 8.89773 49.3684 9.45755 49.9691 10.1956C50.5698 10.9336 50.9574 11.8218 51.0898 12.7641C52.0206 18.4347 51.7839 24.2357 50.3941 29.8117C49.0043 35.3876 46.4907 40.6211 43.0073 45.1915C40.7316 48.279 37.9689 50.9759 34.8274 53.1766C33.763 53.9711 32.6211 54.6562 31.4191 55.2215C30.6185 55.73 29.6896 56 28.7412 56C27.7928 56 26.8639 55.73 26.0633 55.2215C24.8733 54.6339 23.7334 53.95 22.655 53.1766C19.5353 50.9497 16.7765 48.2566 14.4751 45.1915C11.0335 40.5985 8.54541 35.3635 7.15734 29.7945C5.76928 24.2255 5.50927 18.4351 6.39262 12.7641C6.54282 11.8282 6.93692 10.9485 7.53525 10.2134C8.13359 9.47831 8.91503 8.91381 9.8009 8.57677C12.917 7.60298 16.1306 6.62925 19.2467 5.75283Z" fill="url(#paint0_linear_2234_314)"/>
<path fill-rule="evenodd" clip-rule="evenodd" d="M38.0418 20.7493C38.337 21.0296 38.5116 21.4137 38.5287 21.8204C38.5303 22.038 38.488 22.2536 38.4044 22.4544C38.3207 22.6552 38.1974 22.837 38.0418 22.989L28.3038 32.727C28.1508 32.8812 27.9688 33.0037 27.7682 33.0873C27.5677 33.1709 27.3526 33.2139 27.1353 33.2139C26.918 33.2139 26.7029 33.1709 26.5023 33.0873C26.3017 33.0037 26.1197 32.8812 25.9667 32.727L21.0978 27.858C20.8666 27.6343 20.7088 27.3456 20.6454 27.0303C20.582 26.7149 20.6159 26.3877 20.7426 26.0921C20.8693 25.7964 21.0829 25.5462 21.355 25.3746C21.6271 25.2031 21.9449 25.1183 22.2663 25.1314C22.7021 25.1461 23.1176 25.3192 23.4349 25.6182L27.1353 29.3187L35.7047 20.7493C35.8538 20.5899 36.0351 20.464 36.2365 20.3801C36.438 20.2961 36.6551 20.256 36.8732 20.2624C37.0932 20.2386 37.3157 20.2708 37.52 20.3559C37.7242 20.4411 37.9037 20.5763 38.0418 20.7493Z" fill="url(#paint1_linear_2234_314)"/>
<defs>
<linearGradient id="paint0_linear_2234_314" x1="9.90742" y1="14.504" x2="45.7869" y2="19.2813" gradientUnits="userSpaceOnUse">
<stop stop-color="#393185"/>
<stop offset="1" stop-color="#E5097F"/>
</linearGradient>
<linearGradient id="paint1_linear_2234_314" x1="22.4594" y1="21.8099" x2="34.5633" y2="28.012" gradientUnits="userSpaceOnUse">
<stop stop-color="#393185"/>
<stop offset="1" stop-color="#E5097F"/>
</linearGradient>
</defs>
</svg>
