<svg width="30" height="25" fill="none" xmlns="http://www.w3.org/2000/svg"><path d="M15.67 5.703c0 2.576-2.143 4.703-4.833 4.703-2.69 0-4.833-2.127-4.833-4.703C6.004 3.127 8.147 1 10.837 1c2.69 0 4.833 2.127 4.833 4.703z" stroke="#C3C4C5" stroke-width="2"/><path d="M25.668 10.591c0 1.676-1.396 3.074-3.166 3.074s-3.166-1.398-3.166-3.074 1.396-3.073 3.166-3.073 3.166 1.397 3.166 3.073z" stroke="url(#a)" stroke-width="2"/><path d="M3.876 16.856a9.972 9.972 0 0 1 6.957-2.82c5.377 0 9.728 4.223 9.83 9.405H1.003a9.49 9.49 0 0 1 2.873-6.585z" stroke="#C3C4C5" stroke-width="2"/><path d="M24.333 23.44a12.934 12.934 0 0 0-1.66-6.144c3.46.088 6.225 2.815 6.324 6.145h-4.664z" stroke="url(#b)" stroke-width="2"/><defs><linearGradient id="a" x1="18.336" y1="10.591" x2="26.668" y2="10.591" gradientUnits="userSpaceOnUse"><stop stop-color="#393185"/><stop offset="1" stop-color="#E4097F"/></linearGradient><linearGradient id="b" x1="20.946" y1="20.367" x2="30" y2="20.367" gradientUnits="userSpaceOnUse"><stop stop-color="#393185"/><stop offset="1" stop-color="#E4097F"/></linearGradient></defs></svg>