<svg width="22" height="18" viewBox="0 0 22 18" fill="none" xmlns="http://www.w3.org/2000/svg">
<path d="M16.6854 17.5C14.8009 17.5 12.9076 17.0618 11.0056 16.1855C9.10378 15.3092 7.35637 14.073 5.76337 12.477C4.17053 10.8808 2.93595 9.13333 2.05962 7.2345C1.18328 5.33583 0.745117 3.44425 0.745117 1.55975C0.745117 1.25692 0.845117 1.00458 1.04512 0.80275C1.24512 0.600916 1.49512 0.5 1.79512 0.5H5.05662C5.30912 0.5 5.53187 0.582417 5.72487 0.74725C5.91787 0.911917 6.04062 1.11542 6.09312 1.35775L6.66637 4.3C6.70603 4.573 6.6977 4.80758 6.64137 5.00375C6.58487 5.19992 6.48353 5.36467 6.33737 5.498L4.02787 7.74625C4.39953 8.42692 4.8242 9.07083 5.30187 9.678C5.77937 10.285 6.29637 10.8648 6.85287 11.4173C7.40153 11.9661 7.98487 12.4757 8.60287 12.9462C9.22087 13.4167 9.8882 13.8546 10.6049 14.2598L12.8489 11.9963C13.0054 11.8334 13.1949 11.7193 13.4174 11.6538C13.6397 11.5884 13.8708 11.5724 14.1106 11.6058L16.8874 12.1713C17.1399 12.2379 17.346 12.3667 17.5056 12.5577C17.6653 12.7487 17.7451 12.9654 17.7451 13.2078V16.45C17.7451 16.75 17.6442 17 17.4424 17.2C17.2405 17.4 16.9882 17.5 16.6854 17.5ZM3.31812 6.327L5.10287 4.61925C5.13487 4.59358 5.1557 4.55833 5.16537 4.5135C5.17503 4.46867 5.17345 4.427 5.16062 4.3885L4.72587 2.15375C4.71303 2.10258 4.69062 2.06417 4.65862 2.0385C4.62662 2.01283 4.58495 2 4.53362 2H2.39512C2.35662 2 2.32453 2.01283 2.29887 2.0385C2.27337 2.06417 2.26062 2.09625 2.26062 2.13475C2.31178 2.81808 2.42362 3.51225 2.59612 4.21725C2.76845 4.92242 3.00912 5.62567 3.31812 6.327ZM12.0181 14.9693C12.681 15.2783 13.3723 15.5145 14.0921 15.678C14.8121 15.8413 15.4849 15.9384 16.1104 15.9693C16.1489 15.9693 16.181 15.9564 16.2066 15.9307C16.2323 15.9051 16.2451 15.873 16.2451 15.8345V13.7308C16.2451 13.6794 16.2323 13.6377 16.2066 13.6058C16.181 13.5738 16.1425 13.5513 16.0914 13.5385L13.9914 13.1115C13.9529 13.0987 13.9192 13.0971 13.8904 13.1067C13.8615 13.1164 13.831 13.1372 13.7989 13.1692L12.0181 14.9693Z" fill="#CFD1D4"/>
<path d="M11.1417 9C10.8227 9 10.5526 8.87867 10.3316 8.636C10.1105 8.39333 10 8.09688 10 7.74663V2.25337C10 1.90312 10.1105 1.60667 10.3316 1.364C10.5526 1.12133 10.8227 1 11.1417 1H20.8583C21.1773 1 21.4474 1.12133 21.6684 1.364C21.8895 1.60667 22 1.90312 22 2.25337V7.74663C22 8.09688 21.8895 8.39333 21.6684 8.636C21.4474 8.87867 21.1773 9 20.8583 9H11.1417ZM16 5.78671L10.9474 3.03996V7.74663C10.9474 7.80891 10.9656 7.86004 11.002 7.90003C11.0384 7.94001 11.085 7.96 11.1417 7.96H20.8583C20.915 7.96 20.9616 7.94001 20.998 7.90003C21.0344 7.86004 21.0526 7.80891 21.0526 7.74663V3.03996L16 5.78671ZM16 4.70667L20.9555 2.04H11.0445L16 4.70667ZM10.9474 3.03996V2.04V7.74663C10.9474 7.80891 10.9656 7.86004 11.002 7.90003C11.0384 7.94001 11.085 7.96 11.1417 7.96H10.9474V3.03996Z" fill="#CFD1D4"/>
</svg>
