<svg width="30" height="34" fill="none" xmlns="http://www.w3.org/2000/svg"><path d="M15.469 10.313c6.472 0 11.719-1.68 11.719-3.75 0-2.072-5.247-3.75-11.72-3.75-6.471 0-11.718 1.678-11.718 3.75 0 2.07 5.247 3.75 11.719 3.75zM27.188 20.156c0 2.335-5.246 4.219-11.72 4.219-6.472 0-11.718-1.884-11.718-4.219m23.438-7.031c0 2.334-5.246 4.219-11.72 4.219-6.472 0-11.718-1.885-11.718-4.219" stroke="#C3C4C5" stroke-width="2" stroke-linecap="round" stroke-linejoin="round"/><path d="M27.188 6.563v20.312c0 2.248-5.246 4.063-11.72 4.063-6.472 0-11.718-1.815-11.718-4.063V6.562" stroke="#C3C4C5" stroke-width="2" stroke-linecap="round" stroke-linejoin="round"/><circle cx="8.542" cy="13.333" fill="url(#a)" r="1.667"/><circle cx="8.542" cy="20" fill="url(#b)" r="1.667"/><circle cx="8.542" cy="26.667" fill="url(#c)" r="1.667"/><defs><linearGradient id="a" x1="6.876" y1="13.333" x2="10.209" y2="13.333" gradientUnits="userSpaceOnUse"><stop stop-color="#393185"/><stop offset="1" stop-color="#E4097F"/></linearGradient><linearGradient id="b" x1="6.876" y1="20" x2="10.209" y2="20" gradientUnits="userSpaceOnUse"><stop stop-color="#393185"/><stop offset="1" stop-color="#E4097F"/></linearGradient><linearGradient id="c" x1="6.876" y1="26.667" x2="10.209" y2="26.667" gradientUnits="userSpaceOnUse"><stop stop-color="#393185"/><stop offset="1" stop-color="#E4097F"/></linearGradient></defs></svg>