<svg width="127" height="36" fill="none" xmlns="http://www.w3.org/2000/svg"><path d="M12.062 36c-2.786 0-5.491-.891-7.678-2.53-2.186-1.639-3.726-3.929-4.37-6.5h10.215v3.543l7.313-6.23-7.313-6.232v3.544H0c.631-2.585 2.168-4.89 4.359-6.54 2.19-1.65 4.906-2.548 7.703-2.545 2.45 0 4.843.689 6.879 1.98 2.036 1.29 3.623 3.124 4.56 5.27a11.186 11.186 0 0 1 .704 6.787c-.477 2.278-1.657 4.37-3.388 6.013a12.363 12.363 0 0 1-4.014 2.552 12.88 12.88 0 0 1-4.74.888z" fill="#BD4328"/><path fill-rule="evenodd" clip-rule="evenodd" d="M71.34 16.369v14.117h2.857V19.938c.422.297 4.637 5.865 5.621 6.946.89 1.037 2.576 3.762 3.794 3.762.89 0 1.405-.193 1.405-1.555V14.888H82.16v10.545l-5.995-7.45c-.656-.83-2.25-3.095-3.091-3.095-.75 0-1.733-.074-1.733 1.483v-.002zM32.724 16.281v14.203h2.812V19.85l7.306 9.093c.337.489.748.928 1.218 1.305.515.43 1.592.681 2.107.014.156-.218.238-.477.235-.74V14.889h-2.764v10.633a3.153 3.153 0 0 1-.562-.622c-1.78-2.236-4.45-5.776-6.089-7.642-.187-.237-.327-.43-.562-.68-.984-1.305-1.125-1.689-2.438-1.689-.181.007-.36.05-.523.124a1.32 1.32 0 0 0-.429.312 1.24 1.24 0 0 0-.261.447 1.196 1.196 0 0 0-.052.51h.002zM113.698 30.647c.201-.013.396-.066.574-.155.178-.09.333-.213.457-.364.202-.375.299-.793.281-1.214V15.156c0-.208-.093-.267-.281-.267h-2.669v10.278a4.71 4.71 0 0 1-.89-1.23l-4.262-6.413c-.281-.444-.516-.844-.843-1.288a6.222 6.222 0 0 1-.422-.637 4.363 4.363 0 0 1-.468-.711H101.8c0 .46 1.967 2.932 2.342 3.585.14.207.234.326.375.518.89 1.14 3.325 4.769 4.262 6.146l1.779 2.503a25.787 25.787 0 0 0 1.827 2.517c.363.305.828.478 1.312.49h.001zM58.943 30.646a.945.945 0 0 0 .468-.103 1.18 1.18 0 0 0 .563-.44c.135-.2.2-.434.187-.67V14.887c-3.419 0-2.95-.251-2.95 1.052v9.138c-.094.03.093.222-.188-.148l-.61-.992c-1.076-1.452-2.388-3.659-3.418-5.125l-2.576-3.925h-3.512c.093.281.14.238.327.504 1.03 1.555 2.717 3.732 3.563 5.139l2.482 3.569c.137.16.262.327.375.503.188.223.234.34.375.534l3.375 4.813c.19.212.426.384.691.503.265.12.554.186.848.194zM119.648 23.997l4.309-.104-.047-2.592h-4.262v-3.795h5.011v-2.55h-7.868v15.462l7.868.015v-2.576l-5.058-.015.047-3.845zM90.391 17.673l-.094 12.707 2.717.06.047-12.782 4.169.015v-2.787H85.99v2.787h4.4zM98.21 30.484h2.952V14.89h-2.951v15.593zM28.047 30.484h2.904V14.89h-2.904v15.593zM64.885 23.997l4.309-.104-.047-2.592h-4.262v-3.795h5.011v-2.55h-7.869v15.462l7.87.015v-2.576l-5.06-.015.048-3.845z" fill="#BD4328"/><path d="M20.784 12.416c2.057 0 3.725-1.582 3.725-3.534 0-1.951-1.668-3.533-3.725-3.533-2.058 0-3.725 1.582-3.725 3.533 0 1.952 1.667 3.534 3.725 3.534z" fill="#A6A6A6"/><path d="M25.753 4.176c1.216 0 2.201-.935 2.201-2.088S26.97 0 25.755 0c-1.216 0-2.202.935-2.202 2.088s.986 2.088 2.201 2.088z" fill="#2A2927"/><path d="M123.989 8.239c.334 0 .665.062.974.183.309.122.589.3.826.524a2.4 2.4 0 0 1 .551.783c.128.293.194.607.194.924a2.402 2.402 0 0 1-.736 1.716 2.676 2.676 0 0 1-2.783.515c-.309-.121-.59-.3-.826-.523a2.417 2.417 0 0 1-.552-.784 2.306 2.306 0 0 1 .001-1.846 2.34 2.34 0 0 1 .56-.777c.232-.228.51-.408.818-.531.308-.123.639-.186.973-.184zm1.625.89a2.287 2.287 0 0 0-.745-.473 2.385 2.385 0 0 0-.88-.163 2.346 2.346 0 0 0-.872.163c-.276.11-.526.27-.736.472a2.124 2.124 0 0 0-.497.698 2.02 2.02 0 0 0-.172.827c-.002.286.057.57.172.834.115.265.284.505.497.707a2.373 2.373 0 0 0 1.608.636 2.416 2.416 0 0 0 1.625-.636c.425-.412.665-.965.67-1.541a2.132 2.132 0 0 0-.67-1.525z" fill="#2B2A29"/><path d="M123.436 9.605h.234c.318 0 .52 0 .67.143a.487.487 0 0 1 .168.397.487.487 0 0 1-.168.397c-.15.143-.352.143-.67.143h-.234v-1.08zm-.318-.286v2.668h.318v-1.016h.234a2.4 2.4 0 0 0 .402-.016l.452 1.033h.335l-.486-1.112a.816.816 0 0 0 .338-.303c.08-.13.12-.277.114-.427a.793.793 0 0 0-.061-.326.833.833 0 0 0-.189-.278 1.283 1.283 0 0 0-.905-.223h-.552z" fill="#2B2A29"/></svg>