<svg width="62" height="62" fill="none" xmlns="http://www.w3.org/2000/svg"><path d="M12.872 9.853c-3.455.748-6.618 3.09-8.675 6.426-2.1 3.4-2.775 7.406-1.854 10.99 1.33 5.172 5.57 7.967 7.98 9.175 1.904.953 3.082 2.866 3.002 4.87a7.378 7.378 0 0 1-.04.513c-.481 4.098-4.666 7.66-10.176 8.662a.968.968 0 0 0 .23 1.92c3.343-.195 14.786-1.603 21.645-11.527 4.816-6.968 7.55-17.751 2.173-24.96-2.928-3.925-8.477-7.324-14.285-6.069zM23.39 39.781c-3.318 4.8-7.9 7.45-11.897 8.912 2.079-1.817 3.42-4.121 3.715-6.642.021-.184.041-.403.052-.657.111-2.766-1.487-5.39-4.071-6.684-2.583-1.293-5.888-3.718-6.97-7.924-.792-3.075-.198-6.535 1.625-9.49 1.783-2.89 4.493-4.912 7.438-5.549a9.53 9.53 0 0 1 2.029-.216c4.211 0 8.158 2.688 10.292 5.55 5.532 7.417.971 18.092-2.213 22.7zM42.827 9.853c-3.456.748-6.617 3.09-8.675 6.425-2.1 3.4-2.776 7.407-1.854 10.99 1.331 5.173 5.57 7.97 7.979 9.175 1.905.954 3.084 2.867 3.003 4.872a6.636 6.636 0 0 1-.041.512c-.48 4.098-4.665 7.66-10.176 8.662a.968.968 0 0 0 .23 1.92c3.343-.195 14.787-1.603 21.646-11.527 4.816-6.967 7.551-17.75 2.173-24.96-2.928-3.925-8.483-7.323-14.285-6.069zm10.519 29.928c-3.318 4.8-7.9 7.448-11.895 8.912 2.078-1.816 3.416-4.12 3.712-6.638.022-.184.042-.405.052-.66.113-2.766-1.485-5.39-4.07-6.685-2.582-1.292-5.888-3.717-6.97-7.924-.791-3.076-.199-6.536 1.625-9.491 1.784-2.889 4.494-4.911 7.437-5.548a9.523 9.523 0 0 1 2.03-.216c4.211 0 8.158 2.688 10.291 5.55 5.534 7.418.972 18.092-2.212 22.7z" fill="#091638"/></svg>