<svg width="24" height="25" viewBox="0 0 24 25" fill="none" xmlns="http://www.w3.org/2000/svg">
<mask id="mask0_1947_290" style="mask-type:alpha" maskUnits="userSpaceOnUse" x="0" y="0" width="24" height="24">
<rect width="24" height="24" fill="#D9D9D9"/>
</mask>
<g mask="url(#mask0_1947_290)">
<path d="M12.1 21.5001C10.77 21.5001 9.52308 21.2479 8.35925 20.7434C7.19542 20.2389 6.18017 19.5533 5.3135 18.6866C4.44683 17.8199 3.76125 16.8047 3.25675 15.6409C2.75225 14.477 2.5 13.2301 2.5 11.9001C2.5 9.71045 3.16767 7.76011 4.503 6.04911C5.83817 4.33828 7.56475 3.21619 9.68275 2.68286C9.49808 4.28803 9.66342 5.84445 10.1788 7.35211C10.6943 8.85978 11.5244 10.186 12.6693 11.3309C13.8141 12.4757 15.1403 13.3059 16.648 13.8214C18.1557 14.3367 19.7121 14.502 21.3173 14.3174C20.7943 16.4354 19.6747 18.1619 17.9585 19.4971C16.2425 20.8324 14.2897 21.5001 12.1 21.5001ZM12.1 20.0001C13.5667 20.0001 14.925 19.6334 16.175 18.9001C17.425 18.1668 18.4083 17.1575 19.125 15.8724C17.6917 15.7389 16.3333 15.3759 15.05 14.7834C13.7667 14.1909 12.6167 13.3856 11.6 12.3676C10.5833 11.3496 9.775 10.2005 9.175 8.92036C8.575 7.6402 8.21667 6.28344 8.1 4.85011C6.81667 5.56678 5.8125 6.55428 5.0875 7.81261C4.3625 9.07095 4 10.4334 4 11.9001C4 14.1501 4.7875 16.0626 6.3625 17.6376C7.9375 19.2126 9.85 20.0001 12.1 20.0001Z" fill="#CFD1D4"/>
</g>
</svg>
