<svg width="51" height="46" viewBox="0 0 51 46" fill="none" xmlns="http://www.w3.org/2000/svg">
<path d="M31.8796 0.0500489C24.9931 0.631961 19.0404 5.57822 17.1729 12.212C16.2975 15.1798 16.2975 17.7984 17.0562 20.6498C18.6319 26.5853 23.6508 34.8484 28.7865 39.9693C30.7124 41.8896 31.9963 42.8206 32.9884 42.9952C34.214 43.2862 35.9064 42.2969 38.2992 39.8529C40.2834 37.8744 41.9759 35.8377 43.7267 33.1609C47.1699 27.9237 49.4459 22.8028 50.0879 18.7294C50.263 17.7402 50.263 15.5289 50.0879 14.4233C49.2125 8.83693 45.8276 4.23982 40.867 1.7376C38.1241 0.399202 34.9727 -0.182716 31.8796 0.0500489ZM35.7897 4.87992C37.4821 5.22907 39.2913 5.92737 40.6919 6.91662C41.6841 7.61491 42.968 8.95331 43.6099 9.94257C45.0106 12.0375 45.6525 14.0741 45.6525 16.46C45.6525 17.8566 45.4775 18.9622 45.0689 20.0678C43.785 23.8503 40.7503 26.7598 36.8402 27.8655C34.4474 28.5638 31.6462 28.5056 29.3118 27.6909C25.6351 26.4107 22.7755 23.5593 21.6666 20.0096C21.2581 18.7876 21.1414 17.8566 21.1414 16.5764C21.083 14.1323 21.725 12.1538 23.0089 10.1171C24.9931 7.03301 28.2613 5.11269 32.2881 4.64716C32.9301 4.58897 34.9727 4.70535 35.7897 4.87992Z" fill="url(#paint0_linear_2205_2510)"/>
<path fill-rule="evenodd" clip-rule="evenodd" d="M8.18469 22.9535C4.52213 23.3273 1.3828 25.9434 0.336357 29.5312C-0.112119 31.1008 -0.112119 32.4463 0.336357 34.0159C1.15856 37.1553 3.84942 41.5653 6.54028 44.3309C7.58672 45.3773 8.25943 45.8258 8.78265 45.9753C9.45537 46.1248 10.3523 45.6015 11.623 44.2561C12.6694 43.2097 13.5664 42.0885 14.5381 40.6683C16.4067 37.9027 17.6027 35.1371 17.9017 32.9695C18.0512 32.4462 17.9764 31.2503 17.9017 30.6523C17.4532 27.6625 15.6593 25.1959 12.9684 23.9252C11.5483 23.1778 9.8291 22.8788 8.18469 22.9535ZM10.2776 25.5696C11.2493 25.7191 12.1462 26.1676 12.8937 26.6908C13.4169 27.0646 14.0896 27.7373 14.4634 28.2605C15.2108 29.3817 15.5098 30.5029 15.5098 31.7735C15.5098 32.521 15.435 33.119 15.2856 33.7169C14.5381 35.7351 12.9684 37.23 10.8755 37.9027C9.60486 38.2017 8.10994 38.2017 6.83926 37.7532C4.89586 37.0805 3.3262 35.5856 2.72823 33.6422C2.57874 33.0442 2.50399 32.521 2.50399 31.8483C2.50399 30.5029 2.80297 29.4564 3.47569 28.3352C4.52213 26.6908 6.24129 25.7191 8.40892 25.4201C8.78265 25.4201 9.8291 25.4949 10.2776 25.5696Z" fill="#A6A6A6"/>
<defs>
<linearGradient id="paint0_linear_2205_2510" x1="13.5546" y1="187.717" x2="47.4033" y2="187.424" gradientUnits="userSpaceOnUse">
<stop stop-color="#693185"/>
<stop offset="1" stop-color="#E73970"/>
</linearGradient>
</defs>
</svg>
