<svg width="60" height="60" viewBox="0 0 60 60" fill="none" xmlns="http://www.w3.org/2000/svg">
<path d="M53.9055 29.6438C53.8022 29.4788 46.1351 20.0946 43.7093 17.1157C43.5695 16.9443 43.3019 16.7921 43.028 16.7921H16.9789C16.7222 16.7921 16.4548 16.9228 16.2976 17.1157L6.15725 29.55C5.93436 29.8225 5.87834 30.2372 6.11541 30.5902C6.29612 30.8605 4.36417 28.5422 29.3342 57.8289C29.336 57.8309 29.3387 57.8316 29.3405 57.8336C29.5007 58.0178 29.7805 58.1376 30.0032 58.1376C30.2253 58.1376 30.5054 58.0181 30.6658 57.8336C30.6676 57.8316 30.6703 57.8309 30.6721 57.8289C44.4537 41.6745 39.9886 46.9084 53.8366 30.6762C54.0466 30.4301 54.1302 30.0014 53.9055 29.6438ZM18.3762 30.985H41.6307L30.0033 55.2254L18.3762 30.985ZM19.1736 29.2263L30.0032 18.8868L40.833 29.2263H19.1736ZM51.3159 29.2263H43.9071V20.1412L51.3159 29.2263ZM42.1486 28.0507L32.1974 18.5507H42.1486V28.0507ZM27.809 18.5507L17.8583 28.0507V18.5507H27.809ZM16.0997 20.1412V29.2263H8.69038L16.0997 20.1412ZM16.4252 30.985L26.2901 51.5512L8.74452 30.985H16.4252ZM33.7165 51.5508L43.5816 30.985H51.2619L33.7165 51.5508Z" fill="#0E1726"/>
<path d="M28.4882 2.74156V10.5427C28.4882 11.0284 28.8819 11.422 29.3674 11.422C29.8529 11.422 30.2467 11.0282 30.2467 10.5427V2.74156C30.2467 2.25594 29.8529 1.8623 29.3674 1.8623C28.8819 1.8623 28.4882 2.25605 28.4882 2.74156ZM18.3362 3.75664C17.9202 4.00695 17.7858 4.54754 18.0361 4.96355L22.0577 11.648C22.3065 12.0621 22.8469 12.1993 23.2647 11.9482C23.6807 11.6979 23.8151 11.1573 23.5648 10.7413L19.5431 4.05676C19.2928 3.64062 18.7535 3.50539 18.3362 3.75664ZM40.5073 4.37867L35.8957 10.6712C35.609 11.0632 35.6934 11.6131 36.0851 11.9004C36.4786 12.1882 37.0285 12.101 37.3143 11.711L41.9258 5.41848C42.2126 5.02648 42.1281 4.47652 41.7365 4.1893C41.3445 3.90301 40.7937 3.98762 40.5073 4.37867Z" fill="url(#paint0_linear_2194_1258)"/>
<defs>
<linearGradient id="paint0_linear_2194_1258" x1="17.9102" y1="6.96816" x2="42.0958" y2="6.96816" gradientUnits="userSpaceOnUse">
<stop stop-color="#393185"/>
<stop offset="1" stop-color="#E4097F"/>
</linearGradient>
</defs>
</svg>
