<svg width="60" height="60" viewBox="0 0 60 60" fill="none" xmlns="http://www.w3.org/2000/svg">
<rect x="0.5" y="0.5" width="59" height="59" rx="29.5" fill="#E6EDF7" stroke="white"/>
<mask id="mask0_2240_1456" style="mask-type:alpha" maskUnits="userSpaceOnUse" x="13" y="13" width="34" height="34">
<rect x="13" y="13" width="34" height="34" fill="#D9D9D9"/>
</mask>
<g mask="url(#mask0_2240_1456)">
<path d="M23.353 39.9166L18.667 35.2307L23.353 30.5447L24.3638 31.5473L21.3888 34.5223H30.3V35.939H21.3888L24.3556 38.914L23.353 39.9166ZM33.9794 36.0754C33.7404 36.0754 33.5397 35.9945 33.3773 35.8328C33.2146 35.6713 33.1333 35.471 33.1333 35.2321C33.1333 34.9934 33.2142 34.7927 33.3759 34.63C33.5374 34.4676 33.7376 34.3863 33.9766 34.3863C34.2153 34.3863 34.416 34.4671 34.5786 34.6286C34.7411 34.7901 34.8223 34.9903 34.8223 35.2293C34.8223 35.4682 34.7416 35.6689 34.5801 35.8313C34.4186 35.994 34.2183 36.0754 33.9794 36.0754ZM38.5017 36.0754C38.2628 36.0754 38.0621 35.9945 37.8997 35.8328C37.737 35.6713 37.6556 35.471 37.6556 35.2321C37.6556 34.9934 37.7365 34.7927 37.8982 34.63C38.0597 34.4676 38.26 34.3863 38.4989 34.3863C38.7379 34.3863 38.9385 34.4671 39.101 34.6286C39.2637 34.7901 39.345 34.9903 39.345 35.2293C39.345 35.4682 39.2641 35.6689 39.1024 35.8313C38.9409 35.994 38.7407 36.0754 38.5017 36.0754ZM36.6477 29.4553L35.6369 28.4799L38.6392 25.4776H29.7007V24.061H38.6119L35.645 21.086L36.6477 20.0833L41.3337 24.7693L36.6477 29.4553ZM21.5017 25.6136C21.2628 25.6136 21.0621 25.5329 20.8997 25.3714C20.737 25.2099 20.6556 25.0097 20.6556 24.7707C20.6556 24.5318 20.7365 24.3311 20.8982 24.1686C21.0597 24.0059 21.26 23.9246 21.4989 23.9246C21.7379 23.9246 21.9385 24.0055 22.101 24.1672C22.2637 24.3287 22.345 24.5289 22.345 24.7679C22.345 25.0066 22.2641 25.2073 22.1024 25.37C21.9409 25.5324 21.7407 25.6136 21.5017 25.6136ZM26.0241 25.6136C25.7854 25.6136 25.5847 25.5329 25.422 25.3714C25.2596 25.2099 25.1783 25.0097 25.1783 24.7707C25.1783 24.5318 25.2591 24.3311 25.4206 24.1686C25.5821 24.0059 25.7823 23.9246 26.0213 23.9246C26.2602 23.9246 26.4609 24.0055 26.6233 24.1672C26.786 24.3287 26.8674 24.5289 26.8674 24.7679C26.8674 25.0066 26.7865 25.2073 26.6248 25.37C26.4633 25.5324 26.263 25.6136 26.0241 25.6136Z" fill="#1C1B1F"/>
</g>
</svg>
