<svg width="45" height="48" viewBox="0 0 45 48" fill="none" xmlns="http://www.w3.org/2000/svg">
<path d="M12.6755 1.97583C8.07356 4.86236 6.70105 10.0742 8.15429 14.404C8.71944 15.8473 9.93048 17.05 11.1415 17.8518V19.1347C11.1415 23.3041 13.5636 26.9123 17.1159 28.7565V30.761C14.048 31.9637 10.8186 32.9259 7.91209 33.7277C2.34133 35.4917 0 41.5855 0 47.1982C0 47.6793 0.322943 48 0.726621 48H43.2743C43.678 48 44.0816 47.6793 44.0816 47.1982C44.0816 41.3449 41.6596 35.5719 36.0888 33.7277C32.6172 32.7655 30.0336 32.1241 26.885 30.761C26.0776 30.2799 25.4317 30.6808 25.351 31.4024C25.1088 33.0862 23.7363 34.289 22.0408 34.289C22.0408 34.289 22.0408 34.289 21.9601 34.289C20.1839 34.289 18.6499 32.8457 18.6499 31.0016V29.3979C19.6995 29.7186 20.8298 29.879 22.0408 29.879C28.0153 29.879 32.8594 25.0681 32.8594 19.1347V18.9743C37.0576 17.6914 37.7843 6.78673 32.7787 6.466C30.5181 -1.3116 17.6811 -1.07107 12.6755 1.97583ZM31.3254 6.8669C31.3254 7.26781 31.6484 7.50837 32.052 7.50837C35.3622 7.18764 35.7659 15.9274 32.375 17.2905C31.3254 15.4463 30.2758 13.6022 29.2263 11.6778C28.7419 10.7156 27.3694 11.5175 27.8538 12.3994C28.9841 14.4842 30.1951 16.4887 31.3254 18.5734V19.1347C31.3254 24.2663 27.1272 28.3556 22.0408 28.3556H21.9601C16.8737 28.3556 12.7562 24.2663 12.7562 19.1347V18.4932C13.8058 18.8139 15.0976 18.8139 16.4701 18.4932C23.6555 16.649 27.9345 10.1543 27.9345 10.1543C28.4997 9.27235 27.2079 8.39035 26.6427 9.27234C26.6427 9.27234 22.5252 15.3662 16.0664 16.9698C12.9984 17.5311 10.5764 16.2481 9.60754 13.8427C8.23503 9.99397 10.0112 5.42365 13.4828 3.33893C17.2774 0.692938 29.4685 -0.0287062 31.3254 6.8669ZM17.2774 32.3646C17.6004 33.407 18.2462 34.289 19.1343 34.9304L16.6315 37.7368C15.5012 36.3737 15.6627 34.6899 15.6627 33.0863L17.2774 32.3646ZM26.7235 32.3646L28.3382 33.0863C28.4189 34.8503 28.4189 36.3737 27.4501 37.7368L24.8666 34.9304C25.7547 34.289 26.4005 33.407 26.7235 32.3646ZM14.1287 33.5674C14.048 35.7323 14.3709 38.699 16.1471 39.6612C16.3086 39.7414 16.3893 39.7413 16.5508 39.7413C16.7123 39.7413 16.9545 39.6611 17.1159 39.5008L18.327 38.0575L18.9729 39.18L18.0848 46.4766H8.96165V41.4251C8.96165 40.2224 7.34694 40.2224 7.34694 41.4251V46.4766H1.69545C1.93765 41.9864 3.6331 36.6142 8.47724 35.171C10.3342 34.6899 12.2718 34.1286 14.1287 33.5674ZM29.9529 33.5674L35.5237 35.171C39.9641 36.6142 42.144 41.9062 42.3862 46.4766H35.6044V41.4251C35.6044 40.2224 34.0704 40.3828 34.0704 41.4251V46.4766H25.9161L25.028 39.18L25.6739 38.0575L26.885 39.5008C27.0464 39.6611 27.2886 39.7413 27.5308 39.7413C27.6116 39.7413 27.773 39.7414 27.8538 39.6612C29.8722 38.0575 29.9529 35.8124 29.9529 33.5674ZM20.5876 35.6521C20.9913 35.8125 21.5564 35.8926 22.0408 35.8926C22.5252 35.8926 23.0096 35.8125 23.4941 35.6521L24.5436 36.8548L23.817 38.2179H20.2646L19.4573 36.8548L20.5876 35.6521ZM20.5068 39.8215H23.5748L24.3822 46.4766H19.6187L20.5068 39.8215Z" fill="url(#paint0_linear_2205_2528)"/>
<defs>
<linearGradient id="paint0_linear_2205_2528" x1="0" y1="24" x2="44.0816" y2="24" gradientUnits="userSpaceOnUse">
<stop stop-color="#393185"/>
<stop offset="1" stop-color="#E4097F"/>
</linearGradient>
</defs>
</svg>
