<svg width="60" height="60" viewBox="0 0 60 60" fill="none" xmlns="http://www.w3.org/2000/svg">
<path fill-rule="evenodd" clip-rule="evenodd" d="M47.5174 27.4649C46.8453 24.2194 45.099 21.2651 42.5352 19.0361C39.9715 16.8071 36.7254 15.4211 33.2742 15.0816C29.8229 14.7422 26.3485 15.4672 23.3615 17.1503C20.3745 18.8333 18.0325 21.3855 16.6797 24.4319C16.2419 24.3619 15.7979 24.3337 15.3543 24.3476C12.3429 24.3476 9.45494 25.4882 7.32559 27.5185C5.19625 29.5488 4 32.3025 4 35.1738C4 38.045 5.19625 40.7987 7.32559 42.829C9.45494 44.8593 12.3429 45.9999 15.3543 45.9999H46.192C47.4742 46.0055 48.745 45.7701 49.9318 45.3074C51.1187 44.8447 52.1983 44.1636 53.109 43.303C54.0198 42.4424 54.7439 41.4192 55.2399 40.2919C55.7359 39.1645 55.9942 37.955 56 36.7324C55.9856 34.4748 55.1213 32.2971 53.5643 30.5961C52.0074 28.8951 49.8615 27.7839 47.5174 27.4649ZM31.6126 18.1131C34.8141 18.1045 37.9052 19.2282 40.2881 21.2668C42.671 23.3055 44.1764 26.1142 44.5132 29.1499C44.5623 29.52 44.7506 29.8606 45.0431 30.1085C45.3355 30.3564 45.7124 30.4947 46.1037 30.4979H46.192C47.0449 30.4979 47.8894 30.6581 48.6773 30.9693C49.4653 31.2805 50.1812 31.7366 50.7843 32.3116C51.3874 32.8866 51.8658 33.5693 52.1921 34.3206C52.5185 35.0718 52.6865 35.8771 52.6865 36.6903C52.6865 37.5035 52.5185 38.3087 52.1921 39.06C51.8658 39.8113 51.3874 40.4939 50.7843 41.0689C50.1812 41.644 49.4653 42.1001 48.6773 42.4113C47.8894 42.7225 47.0449 42.8827 46.192 42.8827H15.3543C13.1983 42.8827 11.1306 42.066 9.60612 40.6124C8.08161 39.1588 7.22515 37.1873 7.22515 35.1316C7.22515 33.0759 8.08161 31.1045 9.60612 29.6509C11.1306 28.1973 13.1983 27.3807 15.3543 27.3807C16.0112 27.3818 16.665 27.4668 17.2982 27.6334C17.4019 27.7004 17.5271 27.7303 17.6517 27.7177C18.0031 27.7147 18.3449 27.6077 18.6298 27.4115C18.9147 27.2153 19.1287 26.9396 19.2421 26.6224C20.1053 24.1449 21.7649 21.9894 23.9854 20.462C26.2059 18.9346 28.8745 18.1127 31.6126 18.1131Z" fill="url(#paint0_linear_2234_322)"/>
<defs>
<linearGradient id="paint0_linear_2234_322" x1="9.928" y1="17.449" x2="37.654" y2="40.9579" gradientUnits="userSpaceOnUse">
<stop stop-color="#393185"/>
<stop offset="1" stop-color="#E5097F"/>
</linearGradient>
</defs>
</svg>
