<svg width="60" height="60" viewBox="0 0 60 60" fill="none" xmlns="http://www.w3.org/2000/svg">
<path fill-rule="evenodd" clip-rule="evenodd" d="M20.3103 4.00155C20.5179 4.00038 20.7236 4.04038 20.9157 4.11929C21.1077 4.1982 21.2821 4.31442 21.429 4.46122C21.5758 4.60801 21.692 4.78252 21.7709 4.97454C21.8498 5.16656 21.8898 5.37232 21.8887 5.57992V10.4904H25.1332V5.57992C25.1514 5.15193 25.3355 4.7478 25.6465 4.45319C25.9574 4.15857 26.3709 3.9966 26.7993 4.00155C27.0069 4.00038 27.2127 4.04038 27.4047 4.11929C27.5967 4.1982 27.7712 4.31442 27.918 4.46122C28.0648 4.60801 28.181 4.78252 28.2599 4.97454C28.3388 5.16656 28.3788 5.37232 28.3777 5.57992V10.4904H31.6222V5.57992C31.6404 5.15193 31.8245 4.7478 32.1355 4.45319C32.4465 4.15857 32.8599 3.9966 33.2883 4.00155C33.4959 4.00038 33.7017 4.04038 33.8937 4.11929C34.0857 4.1982 34.2602 4.31442 34.407 4.46122C34.5538 4.60801 34.67 4.78252 34.7489 4.97454C34.8278 5.16656 34.8679 5.37232 34.8667 5.57992V10.4904H38.1989V5.57992C38.1978 5.37232 38.2378 5.16656 38.3167 4.97454C38.3956 4.78252 38.5118 4.60801 38.6586 4.46122C38.8054 4.31442 38.9799 4.1982 39.1719 4.11929C39.3639 4.04038 39.5697 4.00038 39.7773 4.00155C40.2057 3.9966 40.6192 4.15857 40.9301 4.45319C41.2411 4.7478 41.4252 5.15193 41.4434 5.57992V10.4904C42.5035 10.4881 43.5536 10.6952 44.5334 11.0998C45.5133 11.5044 46.4035 12.0985 47.1531 12.8481C47.9027 13.5976 48.4969 14.4879 48.9015 15.4677C49.3061 16.4475 49.5132 17.4975 49.5109 18.5576H54.4215C54.8495 18.5758 55.2536 18.7599 55.5482 19.0709C55.8428 19.3819 56.0048 19.7953 55.9999 20.2236C56.0011 20.4312 55.961 20.637 55.8821 20.829C55.8032 21.021 55.687 21.1956 55.5402 21.3423C55.3934 21.4891 55.2189 21.6054 55.0269 21.6843C54.8349 21.7632 54.6291 21.8032 54.4215 21.802H49.5109V25.0465H54.4215C54.8495 25.0647 55.2536 25.2487 55.5482 25.5597C55.8428 25.8707 56.0048 26.2841 55.9999 26.7125C56.0011 26.9201 55.961 27.1259 55.8821 27.3179C55.8032 27.5099 55.687 27.6844 55.5402 27.8312C55.3934 27.978 55.2189 28.0942 55.0269 28.1731C54.8349 28.252 54.6291 28.292 54.4215 28.2908H49.5109V31.623H54.4215C54.6291 31.6218 54.8349 31.6618 55.0269 31.7407C55.2189 31.8196 55.3934 31.9359 55.5402 32.0827C55.687 32.2295 55.8032 32.404 55.8821 32.596C55.961 32.788 56.0011 32.9938 55.9999 33.2014C56.0048 33.6297 55.8428 34.0431 55.5482 34.3541C55.2536 34.6651 54.8495 34.8492 54.4215 34.8674H49.5109V38.1118H54.4215C54.6291 38.1107 54.8349 38.1507 55.0269 38.2296C55.2189 38.3085 55.3934 38.4247 55.5402 38.5715C55.687 38.7183 55.8032 38.8928 55.8821 39.0848C55.961 39.2768 56.0011 39.4826 55.9999 39.6902C56.0048 40.1185 55.8428 40.532 55.5482 40.8429C55.2536 41.1539 54.8495 41.3381 54.4215 41.3563H49.5109C49.5132 42.4163 49.3061 43.4664 48.9015 44.4462C48.4969 45.426 47.9027 46.3162 47.1531 47.0658C46.4035 47.8154 45.5133 48.4095 44.5334 48.8141C43.5536 49.2187 42.5035 49.4258 41.4434 49.4235V54.3339C41.4222 54.7689 41.2398 55.1805 40.9318 55.4884C40.6239 55.7964 40.2123 55.9787 39.7773 56C39.3493 55.9818 38.9452 55.7977 38.6506 55.4867C38.356 55.1758 38.194 54.7623 38.1989 54.3339V49.4235H34.8667V54.3339C34.8717 54.7623 34.7097 55.1758 34.415 55.4867C34.1204 55.7977 33.7163 55.9818 33.2883 56C32.8533 55.9787 32.4417 55.7964 32.1338 55.4884C31.8258 55.1805 31.6435 54.7689 31.6222 54.3339V49.4235H28.3777V54.3339C28.3826 54.7623 28.2206 55.1758 27.926 55.4867C27.6314 55.7977 27.2273 55.9818 26.7993 56C26.3643 55.9787 25.9527 55.7964 25.6448 55.4884C25.3368 55.1805 25.1544 54.7689 25.1332 54.3339V49.4235H21.8887V54.3339C21.8887 54.7642 21.7177 55.1768 21.4135 55.481C21.1093 55.7852 20.6967 55.9562 20.2664 55.9562C19.8362 55.9562 19.4235 55.7852 19.1193 55.481C18.8151 55.1768 18.6442 54.7642 18.6442 54.3339V49.4235C16.4936 49.4328 14.4272 48.5886 12.8983 47.0762C11.3694 45.5638 10.5029 43.5067 10.489 41.3563H5.6661C5.23109 41.335 4.81955 41.1526 4.51158 40.8447C4.20362 40.5367 4.02126 40.1252 4 39.6902C4.0182 39.2622 4.20229 38.8581 4.51328 38.5635C4.82427 38.2689 5.23774 38.1069 5.6661 38.1118H10.489V34.8674H5.6661C5.23109 34.8461 4.81955 34.6638 4.51158 34.3559C4.20362 34.0479 4.02126 33.6364 4 33.2014C4.0182 32.7734 4.20229 32.3693 4.51328 32.0746C4.82427 31.78 5.23774 31.6181 5.6661 31.623H10.489V28.2908H5.6661C5.23774 28.2958 4.82427 28.1338 4.51328 27.8392C4.20229 27.5446 4.0182 27.1405 4 26.7125C4.02126 26.2775 4.20362 25.8659 4.51158 25.558C4.81955 25.25 5.23109 25.0677 5.6661 25.0465H10.489V21.802H5.6661C5.23774 21.807 4.82427 21.645 4.51328 21.3504C4.20229 21.0558 4.0182 20.6516 4 20.2236C4.02126 19.7886 4.20362 19.3771 4.51158 19.0692C4.81955 18.7612 5.23109 18.5788 5.6661 18.5576H10.489C10.5029 16.4071 11.3694 14.35 12.8983 12.8376C14.4272 11.3252 16.4936 10.481 18.6442 10.4904V5.57992C18.6463 5.36578 18.6915 5.15424 18.7771 4.95795C18.8627 4.76166 18.987 4.58461 19.1424 4.43733C19.2979 4.29006 19.4814 4.17556 19.682 4.10069C19.8827 4.02582 20.0963 3.99212 20.3103 4.00155ZM17.0657 15.3132C16.3048 15.5549 15.613 15.9758 15.0484 16.5403C14.4838 17.1049 14.063 17.7966 13.8212 18.5576V41.3563C13.8189 41.9903 13.9421 42.6184 14.1836 43.2046C14.4252 43.7908 14.7803 44.3233 15.2287 44.7716C15.677 45.2199 16.2096 45.5751 16.7958 45.8166C17.3819 46.0582 18.0101 46.1813 18.6442 46.179H41.4434C42.719 46.1676 43.9391 45.6558 44.8411 44.7539C45.7431 43.8519 46.2549 42.6318 46.2663 41.3563V18.5576C46.2549 17.282 45.7431 16.062 44.8411 15.16C43.9391 14.258 42.719 13.7463 41.4434 13.7348H18.6442L17.0657 15.3132ZM20.3103 25.0465C20.3217 23.7709 20.8335 22.5509 21.7355 21.6489C22.6375 20.7469 23.8576 20.2351 25.1332 20.2236H34.8667C36.1561 20.2166 37.396 20.7197 38.3159 21.6231C39.2358 22.5266 39.7611 23.7572 39.7773 25.0465V34.8674C39.7611 36.1566 39.2358 37.3872 38.3159 38.2907C37.396 39.1942 36.1561 39.6972 34.8667 39.6902H25.1332C23.8576 39.6788 22.6375 39.1669 21.7355 38.265C20.8335 37.363 20.3217 36.1429 20.3103 34.8674V25.0465ZM25.1332 23.4681C24.9256 23.4669 24.7198 23.5069 24.5278 23.5858C24.3357 23.6647 24.1613 23.781 24.0145 23.9278C23.8677 24.0746 23.7515 24.2491 23.6725 24.4411C23.5936 24.6331 23.5536 24.8389 23.5548 25.0465V34.8674C23.5536 35.075 23.5936 35.2808 23.6725 35.4728C23.7515 35.6648 23.8677 35.8393 24.0145 35.9861C24.1613 36.1329 24.3357 36.2491 24.5278 36.328C24.7198 36.4069 24.9256 36.4469 25.1332 36.4457H34.8667C35.0807 36.4552 35.2943 36.4215 35.4949 36.3466C35.6956 36.2717 35.8791 36.1572 36.0345 36.01C36.19 35.8627 36.3142 35.6856 36.3998 35.4893C36.4854 35.2931 36.5307 35.0815 36.5328 34.8674V25.0465C36.5307 24.8323 36.4854 24.6208 36.3998 24.4245C36.3142 24.2282 36.19 24.0512 36.0345 23.9039C35.8791 23.7566 35.6956 23.6421 35.4949 23.5672C35.2943 23.4924 35.0807 23.4587 34.8667 23.4681H25.1332Z" fill="url(#paint0_linear_2234_310)"/>
<defs>
<linearGradient id="paint0_linear_2234_310" x1="8.836" y1="13.62" x2="49.084" y2="21.628" gradientUnits="userSpaceOnUse">
<stop stop-color="#393185"/>
<stop offset="1" stop-color="#E5097F"/>
</linearGradient>
</defs>
</svg>
