<svg width="60" height="60" viewBox="0 0 60 60" fill="none" xmlns="http://www.w3.org/2000/svg">
<path fill-rule="evenodd" clip-rule="evenodd" d="M40.5946 4.2043C40.847 4.34897 41.0561 4.55759 41.2007 4.80884C41.3452 5.06009 41.42 5.34496 41.4174 5.63433C41.4334 5.81086 41.3977 5.98825 41.3146 6.14508L35.4521 25.1441H46.3543C46.5711 25.1414 46.7864 25.1818 46.9873 25.2629C47.1882 25.3441 47.3707 25.4644 47.524 25.6167C47.6774 25.769 47.7985 25.9503 47.8802 26.1498C47.962 26.3493 48.0026 26.563 47.9999 26.7784C47.9818 27.2051 47.7974 27.608 47.4856 27.902L21.3615 55.4813C21.2157 55.6627 21.0261 55.8046 20.8104 55.8939C20.5946 55.9832 20.3597 56.0169 20.1273 55.992C19.7052 56.0031 19.2957 55.8484 18.9876 55.5616C18.6796 55.2748 18.4978 54.8789 18.4817 54.4599C18.5058 54.2878 18.5402 54.1172 18.5845 53.9491L24.447 34.9501H13.6477C13.2145 34.9397 12.802 34.7642 12.4956 34.4599C12.1893 34.1556 12.0125 33.746 12.0021 33.3158C11.9913 33.1107 12.0222 32.9055 12.0929 32.7125C12.1636 32.5194 12.2726 32.3425 12.4135 32.1922L38.6404 4.51072C38.9365 4.20106 39.3422 4.01791 39.7718 4C40.0579 4.00678 40.3389 4.07656 40.5946 4.2043ZM17.3503 31.6814H26.7098C26.9266 31.6787 27.1419 31.7191 27.3428 31.8003C27.5437 31.8814 27.7262 32.0017 27.8795 32.154C28.0329 32.3063 28.154 32.4876 28.2357 32.6871C28.3174 32.8866 28.3581 33.1004 28.3554 33.3158C28.3708 33.4598 28.3343 33.6045 28.2525 33.7243L23.8299 48.229L42.5488 28.4128H33.2922C33.0753 28.4155 32.8601 28.3751 32.6592 28.2939C32.4583 28.2128 32.2758 28.0925 32.1224 27.9402C31.9691 27.7879 31.8479 27.6066 31.7662 27.4071C31.6845 27.2076 31.6438 26.9938 31.6466 26.7784V26.2677L36.172 11.8652L17.3503 31.6814Z" fill="url(#paint0_linear_2234_319)"/>
<defs>
<linearGradient id="paint0_linear_2234_319" x1="14.988" y1="15.752" x2="43.5967" y2="17.6299" gradientUnits="userSpaceOnUse">
<stop stop-color="#393185"/>
<stop offset="1" stop-color="#E5097F"/>
</linearGradient>
</defs>
</svg>
