<svg width="60" height="60" viewBox="0 0 60 60" fill="none" xmlns="http://www.w3.org/2000/svg">
<path fill-rule="evenodd" clip-rule="evenodd" d="M54.0354 4.18105C54.2732 4.33015 54.4699 4.53648 54.6076 4.78115C54.7452 5.02581 54.8193 5.30106 54.8232 5.58175V54.3425C54.8282 54.7701 54.6665 55.1829 54.3723 55.4933C54.0782 55.8038 53.6748 55.9876 53.2475 56.0057H43.4428C43.0155 55.9876 42.6121 55.8038 42.318 55.4933C42.0238 55.1829 41.8621 54.7701 41.8671 54.3425V49.4401H38.628V54.3425C38.6068 54.7768 38.4247 55.1876 38.1173 55.4951C37.8099 55.8025 37.399 55.9845 36.9647 56.0057H7.72579C7.29151 55.9845 6.88067 55.8025 6.57322 55.4951C6.26577 55.1876 6.08372 54.7768 6.0625 54.3425V36.484C6.06561 36.1358 6.17678 35.7972 6.38064 35.5149C6.58451 35.2327 6.871 35.0206 7.20054 34.9082L25.5843 28.7803V18.6254C25.5838 18.3218 25.6648 18.0235 25.8188 17.7618C25.9727 17.5001 26.1941 17.2844 26.4597 17.1373L52.4596 4.18105C52.6971 4.04086 52.973 3.97959 53.2475 4.00599C53.5177 4.02226 53.7837 4.08133 54.0354 4.18105ZM25.5843 32.1944L9.30154 37.622V52.7667H25.5843V32.1944ZM28.8233 52.7667H35.3014V47.8644C35.3227 47.4301 35.5047 47.0193 35.8122 46.7118C36.1196 46.4044 36.5304 46.2223 36.9647 46.2011H43.4428C43.8771 46.2223 44.2879 46.4044 44.5954 46.7118C44.9028 47.0193 45.0849 47.4301 45.1061 47.8644V52.7667H51.5842V8.20796L28.8233 19.5884V52.7667Z" fill="url(#paint0_linear_2234_305)"/>
<path fill-rule="evenodd" clip-rule="evenodd" d="M12.54 39.723H15.8666V42.9621H12.54V39.723ZM19.1057 39.723H22.3447V42.9621H19.1057V39.723ZM12.54 46.2011H15.8666V49.4401H12.54V46.2011ZM19.1057 46.2011H22.3447V49.4401H19.1057V46.2011ZM32.0618 33.2449H35.3009V36.484H32.0618V33.2449ZM38.6275 33.2449H41.8665V36.484H38.6275V33.2449ZM32.0618 39.723H35.3009V42.9621H32.0618V39.723ZM38.6275 39.723H41.8665V42.9621H38.6275V39.723ZM45.1056 33.2449H48.3446V36.484H45.1056V33.2449ZM45.1056 39.723H48.3446V42.9621H45.1056V39.723ZM32.0618 26.7668H35.3009V30.0059H32.0618V26.7668ZM38.6275 26.7668H41.8665V30.0059H38.6275V26.7668ZM45.1056 26.7668H48.3446V30.0059H45.1056V26.7668ZM32.0618 20.2012H35.3009V23.4403H32.0618V20.2012ZM38.6275 20.2012H41.8665V23.4403H38.6275V20.2012ZM45.1056 20.2012H48.3446V23.4403H45.1056V20.2012ZM45.1056 13.7231H48.3446V16.9621H45.1056V13.7231Z" fill="url(#paint1_linear_2234_305)"/>
<defs>
<linearGradient id="paint0_linear_2234_305" x1="10.5485" y1="14.0891" x2="48.4751" y2="20.3294" gradientUnits="userSpaceOnUse">
<stop stop-color="#393185"/>
<stop offset="1" stop-color="#E5097F"/>
</linearGradient>
<linearGradient id="paint1_linear_2234_305" x1="15.8699" y1="20.3665" x2="43.5417" y2="25.8211" gradientUnits="userSpaceOnUse">
<stop stop-color="#393185"/>
<stop offset="1" stop-color="#E5097F"/>
</linearGradient>
</defs>
</svg>
